<?xml version="1.0" encoding="UTF-8" standalone="no"?>
<!DOCTYPE svg PUBLIC "-//W3C//DTD SVG 1.1//EN"
 "http://www.w3.org/Graphics/SVG/1.1/DTD/svg11.dtd">
<!-- Generated by graphviz version 14.1.2 (20260124.0452)
 -->
<!-- Title: G Pages: 1 -->
<svg width="398pt" height="499pt"
 viewBox="1.00 1.00 397.00 498.00" xmlns="http://www.w3.org/2000/svg" xmlns:xlink="http://www.w3.org/1999/xlink">
<g id="graph0" class="graph" transform="scale(1 1) rotate(0) translate(5.76 493.6)">
<title>G</title>
<polygon fill="#ffffff" stroke="none" points="-4.32,4.32 -4.32,-492.16 390.96,-492.16 390.96,4.32 -4.32,4.32"/>
<!-- seed -->
<g id="node1" class="node">
<title>seed</title>
<polygon fill="#ffffff" stroke="#445a79" stroke-width="1.5" points="190.02,-487.84 0,-487.84 0,-446.2 190.02,-446.2 190.02,-487.84"/>
<text xml:space="preserve" text-anchor="middle" x="95.01" y="-470.22" font-family="Times,serif" font-size="14.00">Seeded Corpus</text>
<text xml:space="preserve" text-anchor="middle" x="95.01" y="-453.72" font-family="Times,serif" font-size="14.00">(Pre&#45;Curated ToT+Agent Scope)</text>
</g>
<!-- records -->
<g id="node2" class="node">
<title>records</title>
<polygon fill="#ffffff" stroke="#445a79" stroke-width="1.5" points="151.02,-405.2 39,-405.2 39,-363.56 151.02,-363.56 151.02,-405.2"/>
<text xml:space="preserve" text-anchor="middle" x="95.01" y="-387.58" font-family="Times,serif" font-size="14.00">Records Identified</text>
<text xml:space="preserve" text-anchor="middle" x="95.01" y="-371.08" font-family="Times,serif" font-size="14.00">n = 30</text>
</g>
<!-- seed&#45;&gt;records -->
<g id="edge1" class="edge">
<title>seed&#45;&gt;records</title>
<path fill="none" stroke="#445a79" stroke-width="1.3" d="M95.01,-445.67C95.01,-436.22 95.01,-424.8 95.01,-414.46"/>
<polygon fill="#445a79" stroke="#445a79" stroke-width="1.3" points="97.46,-414.69 95.01,-407.69 92.56,-414.69 97.46,-414.69"/>
</g>
<!-- dupes -->
<g id="node3" class="node">
<title>dupes</title>
<polygon fill="#ffffff" stroke="#445a79" stroke-width="1.5" points="157.77,-322.56 32.25,-322.56 32.25,-280.92 157.77,-280.92 157.77,-322.56"/>
<text xml:space="preserve" text-anchor="middle" x="95.01" y="-304.94" font-family="Times,serif" font-size="14.00">Duplicates Removed</text>
<text xml:space="preserve" text-anchor="middle" x="95.01" y="-288.44" font-family="Times,serif" font-size="14.00">n = 0</text>
</g>
<!-- records&#45;&gt;dupes -->
<g id="edge2" class="edge">
<title>records&#45;&gt;dupes</title>
<path fill="none" stroke="#445a79" stroke-width="1.3" d="M95.01,-363.03C95.01,-353.58 95.01,-342.16 95.01,-331.82"/>
<polygon fill="#445a79" stroke="#445a79" stroke-width="1.3" points="97.46,-332.05 95.01,-325.05 92.56,-332.05 97.46,-332.05"/>
</g>
<!-- screened -->
<g id="node4" class="node">
<title>screened</title>
<polygon fill="#ffffff" stroke="#445a79" stroke-width="1.5" points="164.9,-239.92 25.12,-239.92 25.12,-198.28 164.9,-198.28 164.9,-239.92"/>
<text xml:space="preserve" text-anchor="middle" x="95.01" y="-222.3" font-family="Times,serif" font-size="14.00">Title/Abstract Screened</text>
<text xml:space="preserve" text-anchor="middle" x="95.01" y="-205.8" font-family="Times,serif" font-size="14.00">n = 30</text>
</g>
<!-- dupes&#45;&gt;screened -->
<g id="edge3" class="edge">
<title>dupes&#45;&gt;screened</title>
<path fill="none" stroke="#445a79" stroke-width="1.3" d="M95.01,-280.39C95.01,-270.94 95.01,-259.52 95.01,-249.18"/>
<polygon fill="#445a79" stroke="#445a79" stroke-width="1.3" points="97.46,-249.41 95.01,-242.41 92.56,-249.41 97.46,-249.41"/>
</g>
<!-- fulltext -->
<g id="node5" class="node">
<title>fulltext</title>
<polygon fill="#ffffff" stroke="#445a79" stroke-width="1.5" points="152.52,-140.78 37.5,-140.78 37.5,-99.14 152.52,-99.14 152.52,-140.78"/>
<text xml:space="preserve" text-anchor="middle" x="95.01" y="-123.16" font-family="Times,serif" font-size="14.00">Full&#45;Text Assessed</text>
<text xml:space="preserve" text-anchor="middle" x="95.01" y="-106.66" font-family="Times,serif" font-size="14.00">n = 30</text>
</g>
<!-- screened&#45;&gt;fulltext -->
<g id="edge4" class="edge">
<title>screened&#45;&gt;fulltext</title>
<path fill="none" stroke="#445a79" stroke-width="1.3" d="M95.01,-197.97C95.01,-184.13 95.01,-165.53 95.01,-150.07"/>
<polygon fill="#445a79" stroke="#445a79" stroke-width="1.3" points="97.46,-150.36 95.01,-143.36 92.56,-150.36 97.46,-150.36"/>
</g>
<!-- included -->
<g id="node6" class="node">
<title>included</title>
<polygon fill="#ffffff" stroke="#445a79" stroke-width="1.5" points="181.02,-41.64 9,-41.64 9,0 181.02,0 181.02,-41.64"/>
<text xml:space="preserve" text-anchor="middle" x="95.01" y="-24.02" font-family="Times,serif" font-size="14.00">Studies Included in Synthesis</text>
<text xml:space="preserve" text-anchor="middle" x="95.01" y="-7.52" font-family="Times,serif" font-size="14.00">n = 22</text>
</g>
<!-- fulltext&#45;&gt;included -->
<g id="edge5" class="edge">
<title>fulltext&#45;&gt;included</title>
<path fill="none" stroke="#445a79" stroke-width="1.3" d="M95.01,-98.83C95.01,-84.99 95.01,-66.39 95.01,-50.93"/>
<polygon fill="#445a79" stroke="#445a79" stroke-width="1.3" points="97.46,-51.22 95.01,-44.22 92.56,-51.22 97.46,-51.22"/>
</g>
<!-- excluded -->
<g id="node7" class="node">
<title>excluded</title>
<polygon fill="#ffffff" stroke="#445a79" stroke-width="1.5" points="386.64,-157.28 221.38,-157.28 221.38,-82.64 386.64,-82.64 386.64,-157.28"/>
<text xml:space="preserve" text-anchor="middle" x="304.01" y="-139.66" font-family="Times,serif" font-size="14.00">Full&#45;Text Exclusions</text>
<text xml:space="preserve" text-anchor="middle" x="304.01" y="-123.16" font-family="Times,serif" font-size="14.00">n = 8</text>
<text xml:space="preserve" text-anchor="middle" x="304.01" y="-106.66" font-family="Times,serif" font-size="14.00">Out of scope / method fit</text>
<text xml:space="preserve" text-anchor="middle" x="304.01" y="-90.16" font-family="Times,serif" font-size="14.00">Insufficient extraction detail</text>
</g>
<!-- fulltext&#45;&gt;excluded -->
<g id="edge6" class="edge">
<title>fulltext&#45;&gt;excluded</title>
<path fill="none" stroke="#445a79" stroke-width="1.3" d="M153.23,-119.96C171.43,-119.96 191.98,-119.96 211.92,-119.96"/>
<polygon fill="#445a79" stroke="#445a79" stroke-width="1.3" points="211.75,-122.41 218.75,-119.96 211.75,-117.51 211.75,-122.41"/>
<text xml:space="preserve" text-anchor="middle" x="186.95" y="-125.81" font-family="Times,serif" font-size="12.00" fill="#162130">Excluded</text>
</g>
</g>
</svg>
