<?xml version="1.0" encoding="UTF-8" standalone="no"?>
<!DOCTYPE svg PUBLIC "-//W3C//DTD SVG 1.1//EN"
 "http://www.w3.org/Graphics/SVG/1.1/DTD/svg11.dtd">
<!-- Generated by graphviz version 14.1.2 (20260124.0452)
 -->
<!-- Title: G Pages: 1 -->
<svg width="251pt" height="558pt"
 viewBox="1.00 1.00 249.00 557.00" xmlns="http://www.w3.org/2000/svg" xmlns:xlink="http://www.w3.org/1999/xlink">
<g id="graph0" class="graph" transform="scale(1 1) rotate(0) translate(5.76 552.28)">
<title>G</title>
<polygon fill="#ffffff" stroke="none" points="-4.32,4.32 -4.32,-550.84 243.65,-550.84 243.65,4.32 -4.32,4.32"/>
<!-- input -->
<g id="node1" class="node">
<title>input</title>
<polygon fill="#ffffff" stroke="#445a79" stroke-width="1.5" points="84.02,-546.52 29.62,-546.52 29.62,-510.52 84.02,-510.52 84.02,-546.52"/>
<text xml:space="preserve" text-anchor="middle" x="56.82" y="-524.82" font-family="Times,serif" font-size="11.00">Input Task</text>
</g>
<!-- init -->
<g id="node2" class="node">
<title>init</title>
<polygon fill="#ffffff" stroke="#445a79" stroke-width="1.5" points="93.77,-469.52 19.88,-469.52 19.88,-433.52 93.77,-433.52 93.77,-469.52"/>
<text xml:space="preserve" text-anchor="middle" x="56.82" y="-447.82" font-family="Times,serif" font-size="11.00">Initialize State</text>
</g>
<!-- input&#45;&gt;init -->
<g id="edge1" class="edge">
<title>input&#45;&gt;init</title>
<path fill="none" stroke="#445a79" stroke-width="1.3" d="M56.82,-510.12C56.82,-500.82 56.82,-489.17 56.82,-478.79"/>
<polygon fill="#445a79" stroke="#445a79" stroke-width="1.3" points="59.27,-479.05 56.82,-472.05 54.37,-479.05 59.27,-479.05"/>
</g>
<!-- plan -->
<g id="node3" class="node">
<title>plan</title>
<polygon fill="#ffffff" stroke="#445a79" stroke-width="1.5" points="113.64,-392.52 0,-392.52 0,-356.52 113.64,-356.52 113.64,-392.52"/>
<text xml:space="preserve" text-anchor="middle" x="56.82" y="-370.82" font-family="Times,serif" font-size="11.00">Generate / Update Plan</text>
</g>
<!-- init&#45;&gt;plan -->
<g id="edge2" class="edge">
<title>init&#45;&gt;plan</title>
<path fill="none" stroke="#445a79" stroke-width="1.3" d="M56.82,-433.12C56.82,-423.82 56.82,-412.17 56.82,-401.79"/>
<polygon fill="#445a79" stroke="#445a79" stroke-width="1.3" points="59.27,-402.05 56.82,-395.05 54.37,-402.05 59.27,-402.05"/>
</g>
<!-- step -->
<g id="node4" class="node">
<title>step</title>
<polygon fill="#ffffff" stroke="#445a79" stroke-width="1.5" points="102.77,-315.52 10.88,-315.52 10.88,-279.52 102.77,-279.52 102.77,-315.52"/>
<text xml:space="preserve" text-anchor="middle" x="56.82" y="-293.82" font-family="Times,serif" font-size="11.00">Execute Next Step</text>
</g>
<!-- plan&#45;&gt;step -->
<g id="edge3" class="edge">
<title>plan&#45;&gt;step</title>
<path fill="none" stroke="#445a79" stroke-width="1.3" d="M56.82,-356.12C56.82,-346.82 56.82,-335.17 56.82,-324.79"/>
<polygon fill="#445a79" stroke="#445a79" stroke-width="1.3" points="59.27,-325.05 56.82,-318.05 54.37,-325.05 59.27,-325.05"/>
</g>
<!-- observe -->
<g id="node5" class="node">
<title>observe</title>
<polygon fill="#ffffff" stroke="#445a79" stroke-width="1.5" points="105.77,-229.02 7.88,-229.02 7.88,-193.02 105.77,-193.02 105.77,-229.02"/>
<text xml:space="preserve" text-anchor="middle" x="56.82" y="-207.32" font-family="Times,serif" font-size="11.00">Collect Observation</text>
</g>
<!-- step&#45;&gt;observe -->
<g id="edge4" class="edge">
<title>step&#45;&gt;observe</title>
<path fill="none" stroke="#445a79" stroke-width="1.3" d="M56.82,-279.01C56.82,-267.23 56.82,-251.48 56.82,-238.21"/>
<polygon fill="#445a79" stroke="#445a79" stroke-width="1.3" points="59.27,-238.47 56.82,-231.47 54.37,-238.47 59.27,-238.47"/>
</g>
<!-- goal -->
<g id="node6" class="node">
<title>goal</title>
<polygon fill="#ffffff" stroke="#445a79" stroke-width="1.5" points="56.82,-152.02 6.81,-119.26 56.82,-86.5 106.83,-119.26 56.82,-152.02"/>
<text xml:space="preserve" text-anchor="middle" x="56.82" y="-122.31" font-family="Times,serif" font-size="11.00">Goal</text>
<text xml:space="preserve" text-anchor="middle" x="56.82" y="-108.81" font-family="Times,serif" font-size="11.00">Satisfied?</text>
</g>
<!-- observe&#45;&gt;goal -->
<g id="edge5" class="edge">
<title>observe&#45;&gt;goal</title>
<path fill="none" stroke="#445a79" stroke-width="1.3" d="M56.82,-192.29C56.82,-183.5 56.82,-172.5 56.82,-161.76"/>
<polygon fill="#445a79" stroke="#445a79" stroke-width="1.3" points="59.27,-161.82 56.82,-154.82 54.37,-161.82 59.27,-161.82"/>
</g>
<!-- replan -->
<g id="node7" class="node">
<title>replan</title>
<polygon fill="#ffffff" stroke="#445a79" stroke-width="1.5" points="196.82,-152.02 154.31,-119.26 196.82,-86.5 239.33,-119.26 196.82,-152.02"/>
<text xml:space="preserve" text-anchor="middle" x="196.82" y="-122.31" font-family="Times,serif" font-size="11.00">Need</text>
<text xml:space="preserve" text-anchor="middle" x="196.82" y="-108.81" font-family="Times,serif" font-size="11.00">Replan?</text>
</g>
<!-- goal&#45;&gt;replan -->
<g id="edge7" class="edge">
<title>goal&#45;&gt;replan</title>
<path fill="none" stroke="#445a79" stroke-width="1.3" d="M108.16,-119.26C119.97,-119.26 132.55,-119.26 144.41,-119.26"/>
<polygon fill="#445a79" stroke="#445a79" stroke-width="1.3" points="144.35,-121.71 151.35,-119.26 144.35,-116.81 144.35,-121.71"/>
<text xml:space="preserve" text-anchor="middle" x="130.57" y="-124.21" font-family="Times,serif" font-size="9.00" fill="#162130">No</text>
</g>
<!-- out -->
<g id="node8" class="node">
<title>out</title>
<polygon fill="#ffffff" stroke="#445a79" stroke-width="1.5" points="111.77,-36 1.88,-36 1.88,0 111.77,0 111.77,-36"/>
<text xml:space="preserve" text-anchor="middle" x="56.82" y="-14.3" font-family="Times,serif" font-size="11.00">Return Final Response</text>
</g>
<!-- goal&#45;&gt;out -->
<g id="edge6" class="edge">
<title>goal&#45;&gt;out</title>
<path fill="none" stroke="#445a79" stroke-width="1.3" d="M56.82,-85.76C56.82,-72.69 56.82,-57.82 56.82,-45.44"/>
<polygon fill="#445a79" stroke="#445a79" stroke-width="1.3" points="59.27,-45.49 56.82,-38.49 54.37,-45.49 59.27,-45.49"/>
<text xml:space="preserve" text-anchor="middle" x="63.57" y="-57.95" font-family="Times,serif" font-size="9.00" fill="#162130">Yes</text>
</g>
<!-- replan&#45;&gt;plan -->
<g id="edge8" class="edge">
<title>replan&#45;&gt;plan</title>
<path fill="none" stroke="#445a79" stroke-width="1.3" d="M187.68,-145.76C176.15,-177.91 157.82,-229.02 157.82,-229.02 157.82,-229.02 114.82,-315.52 114.82,-315.52 114.82,-315.52 96.72,-333.62 80.74,-349.6"/>
<polygon fill="#445a79" stroke="#445a79" stroke-width="1.3" points="79.15,-347.73 75.93,-354.41 82.61,-351.19 79.15,-347.73"/>
<text xml:space="preserve" text-anchor="middle" x="154.44" y="-250.97" font-family="Times,serif" font-size="9.00" fill="#162130">Yes</text>
</g>
<!-- replan&#45;&gt;step -->
<g id="edge9" class="edge">
<title>replan&#45;&gt;step</title>
<path fill="none" stroke="#445a79" stroke-width="1.3" d="M180.7,-140.12C168.86,-154.72 154.82,-172.02 154.82,-172.02 154.82,-172.02 117.82,-229.02 117.82,-229.02 117.82,-229.02 96.3,-252.84 78.82,-272.18"/>
<polygon fill="#445a79" stroke="#445a79" stroke-width="1.3" points="77.04,-270.49 74.17,-277.33 80.68,-273.77 77.04,-270.49"/>
<text xml:space="preserve" text-anchor="middle" x="146.23" y="-207.72" font-family="Times,serif" font-size="9.00" fill="#162130">No</text>
</g>
</g>
</svg>
