<?xml version="1.0" encoding="UTF-8" standalone="no"?>
<!DOCTYPE svg PUBLIC "-//W3C//DTD SVG 1.1//EN"
 "http://www.w3.org/Graphics/SVG/1.1/DTD/svg11.dtd">
<!-- Generated by graphviz version 14.1.2 (20260124.0452)
 -->
<!-- Title: G Pages: 1 -->
<svg width="347pt" height="463pt"
 viewBox="1.00 1.00 345.00 462.00" xmlns="http://www.w3.org/2000/svg" xmlns:xlink="http://www.w3.org/1999/xlink">
<g id="graph0" class="graph" transform="scale(1 1) rotate(0) translate(5.76 457.28)">
<title>G</title>
<polygon fill="#ffffff" stroke="none" points="-4.32,4.32 -4.32,-455.84 339.7,-455.84 339.7,4.32 -4.32,4.32"/>
<!-- query -->
<g id="node1" class="node">
<title>query</title>
<polygon fill="#ffffff" stroke="#445a79" stroke-width="1.5" points="183.27,-451.52 103.5,-451.52 103.5,-415.52 183.27,-415.52 183.27,-451.52"/>
<text xml:space="preserve" text-anchor="middle" x="143.38" y="-427.92" font-family="Helvetica,sans-Serif" font-size="13.00">User Query</text>
</g>
<!-- reason -->
<g id="node2" class="node">
<title>reason</title>
<polygon fill="#ffffff" stroke="#445a79" stroke-width="1.5" points="211.77,-376.52 75,-376.52 75,-340.52 211.77,-340.52 211.77,-376.52"/>
<text xml:space="preserve" text-anchor="middle" x="143.38" y="-352.92" font-family="Helvetica,sans-Serif" font-size="13.00">LLM Reasoning Step</text>
</g>
<!-- query&#45;&gt;reason -->
<g id="edge1" class="edge">
<title>query&#45;&gt;reason</title>
<path fill="none" stroke="#445a79" stroke-width="1.3" d="M143.38,-414.85C143.38,-406.15 143.38,-395.49 143.38,-385.85"/>
<polygon fill="#445a79" stroke="#445a79" stroke-width="1.3" points="145.84,-386 143.39,-379 140.94,-386 145.84,-386"/>
</g>
<!-- need -->
<g id="node3" class="node">
<title>need</title>
<polygon fill="#ffffff" stroke="#445a79" stroke-width="1.5" points="143.38,-301.52 105.38,-268.76 143.38,-236 181.39,-268.76 143.38,-301.52"/>
<text xml:space="preserve" text-anchor="middle" x="143.38" y="-269.91" font-family="Helvetica,sans-Serif" font-size="13.00">Need</text>
<text xml:space="preserve" text-anchor="middle" x="143.38" y="-256.41" font-family="Helvetica,sans-Serif" font-size="13.00">Tool?</text>
</g>
<!-- reason&#45;&gt;need -->
<g id="edge2" class="edge">
<title>reason&#45;&gt;need</title>
<path fill="none" stroke="#445a79" stroke-width="1.3" d="M143.38,-340.18C143.38,-331.84 143.38,-321.44 143.38,-311.22"/>
<polygon fill="#445a79" stroke="#445a79" stroke-width="1.3" points="145.84,-311.3 143.39,-304.3 140.94,-311.3 145.84,-311.3"/>
</g>
<!-- select -->
<g id="node4" class="node">
<title>select</title>
<polygon fill="#ffffff" stroke="#445a79" stroke-width="1.5" points="154.77,-186 0,-186 0,-150 154.77,-150 154.77,-186"/>
<text xml:space="preserve" text-anchor="middle" x="77.38" y="-162.4" font-family="Helvetica,sans-Serif" font-size="13.00">Select Tool + Arguments</text>
</g>
<!-- need&#45;&gt;select -->
<g id="edge3" class="edge">
<title>need&#45;&gt;select</title>
<path fill="none" stroke="#445a79" stroke-width="1.3" d="M129.71,-247.3C119.3,-231.72 104.92,-210.21 93.87,-193.67"/>
<polygon fill="#445a79" stroke="#445a79" stroke-width="1.3" points="96.08,-192.56 90.15,-188.1 92,-195.28 96.08,-192.56"/>
<text xml:space="preserve" text-anchor="middle" x="117.03" y="-206.55" font-family="Helvetica,sans-Serif" font-size="11.00" fill="#162130">Yes</text>
</g>
<!-- answer -->
<g id="node7" class="node">
<title>answer</title>
<polygon fill="#ffffff" stroke="#445a79" stroke-width="1.5" points="324.02,-186 176.75,-186 176.75,-150 324.02,-150 324.02,-186"/>
<text xml:space="preserve" text-anchor="middle" x="250.38" y="-162.4" font-family="Helvetica,sans-Serif" font-size="13.00">Generate Final Answer</text>
</g>
<!-- need&#45;&gt;answer -->
<g id="edge4" class="edge">
<title>need&#45;&gt;answer</title>
<path fill="none" stroke="#445a79" stroke-width="1.3" d="M161.54,-251.01C178.92,-234.96 205.33,-210.59 224.84,-192.58"/>
<polygon fill="#445a79" stroke="#445a79" stroke-width="1.3" points="226.5,-194.38 229.98,-187.84 223.17,-190.78 226.5,-194.38"/>
<text xml:space="preserve" text-anchor="middle" x="216.74" y="-206.55" font-family="Helvetica,sans-Serif" font-size="11.00" fill="#162130">No</text>
</g>
<!-- execute -->
<g id="node5" class="node">
<title>execute</title>
<polygon fill="#ffffff" stroke="#445a79" stroke-width="1.5" points="121.39,-111 33.37,-111 33.37,-75 121.39,-75 121.39,-111"/>
<text xml:space="preserve" text-anchor="middle" x="77.38" y="-87.4" font-family="Helvetica,sans-Serif" font-size="13.00">Execute Tool</text>
</g>
<!-- select&#45;&gt;execute -->
<g id="edge5" class="edge">
<title>select&#45;&gt;execute</title>
<path fill="none" stroke="#445a79" stroke-width="1.3" d="M77.38,-149.33C77.38,-140.63 77.38,-129.97 77.38,-120.33"/>
<polygon fill="#445a79" stroke="#445a79" stroke-width="1.3" points="79.84,-120.48 77.39,-113.48 74.94,-120.48 79.84,-120.48"/>
</g>
<!-- observe -->
<g id="node6" class="node">
<title>observe</title>
<polygon fill="#ffffff" stroke="#445a79" stroke-width="1.5" points="133.39,-36 21.37,-36 21.37,0 133.39,0 133.39,-36"/>
<text xml:space="preserve" text-anchor="middle" x="77.38" y="-12.4" font-family="Helvetica,sans-Serif" font-size="13.00">Tool Observation</text>
</g>
<!-- execute&#45;&gt;observe -->
<g id="edge6" class="edge">
<title>execute&#45;&gt;observe</title>
<path fill="none" stroke="#445a79" stroke-width="1.3" d="M77.38,-74.33C77.38,-65.63 77.38,-54.97 77.38,-45.33"/>
<polygon fill="#445a79" stroke="#445a79" stroke-width="1.3" points="79.84,-45.48 77.39,-38.48 74.94,-45.48 79.84,-45.48"/>
</g>
<!-- observe&#45;&gt;reason -->
<g id="edge7" class="edge">
<title>observe&#45;&gt;reason</title>
<path fill="none" stroke="#445a79" stroke-width="1.3" d="M112.18,-36.67C182.6,-72.42 335.38,-150 335.38,-150 335.38,-150 335.38,-186 335.38,-186 335.38,-186 222.16,-287.15 169.61,-334.1"/>
<polygon fill="#445a79" stroke="#445a79" stroke-width="1.3" points="168.26,-332.01 164.68,-338.5 171.53,-335.66 168.26,-332.01"/>
</g>
</g>
</svg>
