<?xml version="1.0" encoding="UTF-8" standalone="no"?>
<!DOCTYPE svg PUBLIC "-//W3C//DTD SVG 1.1//EN"
 "http://www.w3.org/Graphics/SVG/1.1/DTD/svg11.dtd">
<!-- Generated by graphviz version 14.1.2 (20260124.0452)
 -->
<!-- Title: G Pages: 1 -->
<svg width="316pt" height="444pt"
 viewBox="1.00 1.00 314.00 443.00" xmlns="http://www.w3.org/2000/svg" xmlns:xlink="http://www.w3.org/1999/xlink">
<g id="graph0" class="graph" transform="scale(1 1) rotate(0) translate(5.76 438.4)">
<title>G</title>
<polygon fill="#ffffff" stroke="none" points="-4.32,4.32 -4.32,-436.96 308.59,-436.96 308.59,4.32 -4.32,4.32"/>
<!-- seed -->
<g id="node1" class="node">
<title>seed</title>
<polygon fill="#ffffff" stroke="#445a79" stroke-width="1.5" points="142.77,-432.64 0,-432.64 0,-396.64 142.77,-396.64 142.77,-432.64"/>
<text xml:space="preserve" text-anchor="middle" x="71.39" y="-415.84" font-family="Helvetica,sans-Serif" font-size="9.00">Seeded Corpus</text>
<text xml:space="preserve" text-anchor="middle" x="71.39" y="-406.09" font-family="Helvetica,sans-Serif" font-size="9.00">(Pre&#45;Curated ToT+Agent Scope)</text>
</g>
<!-- records -->
<g id="node2" class="node">
<title>records</title>
<polygon fill="#ffffff" stroke="#445a79" stroke-width="1.5" points="114.27,-355.64 28.5,-355.64 28.5,-319.64 114.27,-319.64 114.27,-355.64"/>
<text xml:space="preserve" text-anchor="middle" x="71.39" y="-338.84" font-family="Helvetica,sans-Serif" font-size="9.00">Records Identified</text>
<text xml:space="preserve" text-anchor="middle" x="71.39" y="-329.09" font-family="Helvetica,sans-Serif" font-size="9.00">n = 30</text>
</g>
<!-- seed&#45;&gt;records -->
<g id="edge1" class="edge">
<title>seed&#45;&gt;records</title>
<path fill="none" stroke="#445a79" stroke-width="1.3" d="M71.39,-396.24C71.39,-386.94 71.39,-375.29 71.39,-364.91"/>
<polygon fill="#445a79" stroke="#445a79" stroke-width="1.3" points="73.84,-365.17 71.39,-358.17 68.94,-365.17 73.84,-365.17"/>
</g>
<!-- dupes -->
<g id="node3" class="node">
<title>dupes</title>
<polygon fill="#ffffff" stroke="#445a79" stroke-width="1.5" points="119.9,-278.64 22.88,-278.64 22.88,-242.64 119.9,-242.64 119.9,-278.64"/>
<text xml:space="preserve" text-anchor="middle" x="71.39" y="-261.84" font-family="Helvetica,sans-Serif" font-size="9.00">Duplicates Removed</text>
<text xml:space="preserve" text-anchor="middle" x="71.39" y="-252.09" font-family="Helvetica,sans-Serif" font-size="9.00">n = 0</text>
</g>
<!-- records&#45;&gt;dupes -->
<g id="edge2" class="edge">
<title>records&#45;&gt;dupes</title>
<path fill="none" stroke="#445a79" stroke-width="1.3" d="M71.39,-319.24C71.39,-309.94 71.39,-298.29 71.39,-287.91"/>
<polygon fill="#445a79" stroke="#445a79" stroke-width="1.3" points="73.84,-288.17 71.39,-281.17 68.94,-288.17 73.84,-288.17"/>
</g>
<!-- screened -->
<g id="node4" class="node">
<title>screened</title>
<polygon fill="#ffffff" stroke="#445a79" stroke-width="1.5" points="124.02,-201.64 18.75,-201.64 18.75,-165.64 124.02,-165.64 124.02,-201.64"/>
<text xml:space="preserve" text-anchor="middle" x="71.39" y="-184.84" font-family="Helvetica,sans-Serif" font-size="9.00">Title/Abstract Screened</text>
<text xml:space="preserve" text-anchor="middle" x="71.39" y="-175.09" font-family="Helvetica,sans-Serif" font-size="9.00">n = 30</text>
</g>
<!-- dupes&#45;&gt;screened -->
<g id="edge3" class="edge">
<title>dupes&#45;&gt;screened</title>
<path fill="none" stroke="#445a79" stroke-width="1.3" d="M71.39,-242.24C71.39,-232.94 71.39,-221.29 71.39,-210.91"/>
<polygon fill="#445a79" stroke="#445a79" stroke-width="1.3" points="73.84,-211.17 71.39,-204.17 68.94,-211.17 73.84,-211.17"/>
</g>
<!-- fulltext -->
<g id="node5" class="node">
<title>fulltext</title>
<polygon fill="#ffffff" stroke="#445a79" stroke-width="1.5" points="115.4,-118.82 27.38,-118.82 27.38,-82.82 115.4,-82.82 115.4,-118.82"/>
<text xml:space="preserve" text-anchor="middle" x="71.39" y="-102.02" font-family="Helvetica,sans-Serif" font-size="9.00">Full&#45;Text Assessed</text>
<text xml:space="preserve" text-anchor="middle" x="71.39" y="-92.27" font-family="Helvetica,sans-Serif" font-size="9.00">n = 30</text>
</g>
<!-- screened&#45;&gt;fulltext -->
<g id="edge4" class="edge">
<title>screened&#45;&gt;fulltext</title>
<path fill="none" stroke="#445a79" stroke-width="1.3" d="M71.39,-165.1C71.39,-154.3 71.39,-140.25 71.39,-128.13"/>
<polygon fill="#445a79" stroke="#445a79" stroke-width="1.3" points="73.84,-128.29 71.39,-121.29 68.94,-128.29 73.84,-128.29"/>
</g>
<!-- included -->
<g id="node6" class="node">
<title>included</title>
<polygon fill="#ffffff" stroke="#445a79" stroke-width="1.5" points="137.15,-36 5.62,-36 5.62,0 137.15,0 137.15,-36"/>
<text xml:space="preserve" text-anchor="middle" x="71.39" y="-19.2" font-family="Helvetica,sans-Serif" font-size="9.00">Studies Included in Synthesis</text>
<text xml:space="preserve" text-anchor="middle" x="71.39" y="-9.45" font-family="Helvetica,sans-Serif" font-size="9.00">n = 22</text>
</g>
<!-- fulltext&#45;&gt;included -->
<g id="edge5" class="edge">
<title>fulltext&#45;&gt;included</title>
<path fill="none" stroke="#445a79" stroke-width="1.3" d="M71.39,-82.28C71.39,-71.48 71.39,-57.43 71.39,-45.31"/>
<polygon fill="#445a79" stroke="#445a79" stroke-width="1.3" points="73.84,-45.47 71.39,-38.47 68.94,-45.47 73.84,-45.47"/>
</g>
<!-- excluded -->
<g id="node7" class="node">
<title>excluded</title>
<polygon fill="#ffffff" stroke="#445a79" stroke-width="1.5" points="304.27,-124.64 182.5,-124.64 182.5,-77 304.27,-77 304.27,-124.64"/>
<text xml:space="preserve" text-anchor="middle" x="243.38" y="-111.77" font-family="Helvetica,sans-Serif" font-size="9.00">Full&#45;Text Exclusions</text>
<text xml:space="preserve" text-anchor="middle" x="243.38" y="-102.02" font-family="Helvetica,sans-Serif" font-size="9.00">n = 8</text>
<text xml:space="preserve" text-anchor="middle" x="243.38" y="-92.27" font-family="Helvetica,sans-Serif" font-size="9.00">Out of scope / method fit</text>
<text xml:space="preserve" text-anchor="middle" x="243.38" y="-82.52" font-family="Helvetica,sans-Serif" font-size="9.00">Insufficient extraction detail</text>
</g>
<!-- fulltext&#45;&gt;excluded -->
<g id="edge6" class="edge">
<title>fulltext&#45;&gt;excluded</title>
<path fill="none" stroke="#445a79" stroke-width="1.3" d="M116.13,-100.82C133.56,-100.82 153.96,-100.82 173.26,-100.82"/>
<polygon fill="#445a79" stroke="#445a79" stroke-width="1.3" points="173.07,-103.27 180.07,-100.82 173.07,-98.37 173.07,-103.27"/>
<text xml:space="preserve" text-anchor="middle" x="148.95" y="-105.37" font-family="Helvetica,sans-Serif" font-size="11.00" fill="#162130">Excluded</text>
</g>
</g>
</svg>
