<?xml version="1.0" encoding="UTF-8" standalone="no"?>
<!DOCTYPE svg PUBLIC "-//W3C//DTD SVG 1.1//EN"
 "http://www.w3.org/Graphics/SVG/1.1/DTD/svg11.dtd">
<!-- Generated by graphviz version 14.1.2 (20260124.0452)
 -->
<!-- Title: G Pages: 1 -->
<svg width="291pt" height="579pt"
 viewBox="1.00 1.00 290.00 577.00" xmlns="http://www.w3.org/2000/svg" xmlns:xlink="http://www.w3.org/1999/xlink">
<g id="graph0" class="graph" transform="scale(1 1) rotate(0) translate(5.76 573.16)">
<title>G</title>
<polygon fill="#ffffff" stroke="none" points="-4.32,4.32 -4.32,-571.72 283.9,-571.72 283.9,4.32 -4.32,4.32"/>
<!-- input -->
<g id="node1" class="node">
<title>input</title>
<polygon fill="#ffffff" stroke="#445a79" stroke-width="1.5" points="103.77,-567.4 34.5,-567.4 34.5,-531.4 103.77,-531.4 103.77,-567.4"/>
<text xml:space="preserve" text-anchor="middle" x="69.14" y="-544.35" font-family="Times,serif" font-size="14.00">Input Task</text>
</g>
<!-- init -->
<g id="node2" class="node">
<title>init</title>
<polygon fill="#ffffff" stroke="#445a79" stroke-width="1.5" points="114.27,-490.4 24,-490.4 24,-454.4 114.27,-454.4 114.27,-490.4"/>
<text xml:space="preserve" text-anchor="middle" x="69.14" y="-467.35" font-family="Times,serif" font-size="14.00">Initialize State</text>
</g>
<!-- input&#45;&gt;init -->
<g id="edge1" class="edge">
<title>input&#45;&gt;init</title>
<path fill="none" stroke="#445a79" stroke-width="1.3" d="M69.14,-531C69.14,-521.7 69.14,-510.05 69.14,-499.67"/>
<polygon fill="#445a79" stroke="#445a79" stroke-width="1.3" points="71.59,-499.93 69.14,-492.93 66.69,-499.93 71.59,-499.93"/>
</g>
<!-- plan -->
<g id="node3" class="node">
<title>plan</title>
<polygon fill="#ffffff" stroke="#445a79" stroke-width="1.5" points="138.27,-413.4 0,-413.4 0,-377.4 138.27,-377.4 138.27,-413.4"/>
<text xml:space="preserve" text-anchor="middle" x="69.14" y="-390.35" font-family="Times,serif" font-size="14.00">Generate / Update Plan</text>
</g>
<!-- init&#45;&gt;plan -->
<g id="edge2" class="edge">
<title>init&#45;&gt;plan</title>
<path fill="none" stroke="#445a79" stroke-width="1.3" d="M69.14,-454C69.14,-444.7 69.14,-433.05 69.14,-422.67"/>
<polygon fill="#445a79" stroke="#445a79" stroke-width="1.3" points="71.59,-422.93 69.14,-415.93 66.69,-422.93 71.59,-422.93"/>
</g>
<!-- step -->
<g id="node4" class="node">
<title>step</title>
<polygon fill="#ffffff" stroke="#445a79" stroke-width="1.5" points="125.52,-336.4 12.75,-336.4 12.75,-300.4 125.52,-300.4 125.52,-336.4"/>
<text xml:space="preserve" text-anchor="middle" x="69.14" y="-313.35" font-family="Times,serif" font-size="14.00">Execute Next Step</text>
</g>
<!-- plan&#45;&gt;step -->
<g id="edge3" class="edge">
<title>plan&#45;&gt;step</title>
<path fill="none" stroke="#445a79" stroke-width="1.3" d="M69.14,-377C69.14,-367.7 69.14,-356.05 69.14,-345.67"/>
<polygon fill="#445a79" stroke="#445a79" stroke-width="1.3" points="71.59,-345.93 69.14,-338.93 66.69,-345.93 71.59,-345.93"/>
</g>
<!-- observe -->
<g id="node5" class="node">
<title>observe</title>
<polygon fill="#ffffff" stroke="#445a79" stroke-width="1.5" points="129.27,-246.9 9,-246.9 9,-210.9 129.27,-210.9 129.27,-246.9"/>
<text xml:space="preserve" text-anchor="middle" x="69.14" y="-223.85" font-family="Times,serif" font-size="14.00">Collect Observation</text>
</g>
<!-- step&#45;&gt;observe -->
<g id="edge4" class="edge">
<title>step&#45;&gt;observe</title>
<path fill="none" stroke="#445a79" stroke-width="1.3" d="M69.14,-299.69C69.14,-287.24 69.14,-270.36 69.14,-256.32"/>
<polygon fill="#445a79" stroke="#445a79" stroke-width="1.3" points="71.59,-256.55 69.14,-249.55 66.69,-256.55 71.59,-256.55"/>
</g>
<!-- goal -->
<g id="node6" class="node">
<title>goal</title>
<polygon fill="#ffffff" stroke="#445a79" stroke-width="1.5" points="69.14,-169.9 8.69,-129.7 69.13,-89.5 129.59,-129.7 69.14,-169.9"/>
<text xml:space="preserve" text-anchor="middle" x="69.14" y="-132.9" font-family="Times,serif" font-size="14.00">Goal</text>
<text xml:space="preserve" text-anchor="middle" x="69.14" y="-116.4" font-family="Times,serif" font-size="14.00">Satisfied?</text>
</g>
<!-- observe&#45;&gt;goal -->
<g id="edge5" class="edge">
<title>observe&#45;&gt;goal</title>
<path fill="none" stroke="#445a79" stroke-width="1.3" d="M69.14,-210.52C69.14,-201.73 69.14,-190.58 69.14,-179.42"/>
<polygon fill="#445a79" stroke="#445a79" stroke-width="1.3" points="71.59,-179.48 69.14,-172.48 66.69,-179.48 71.59,-179.48"/>
</g>
<!-- replan -->
<g id="node7" class="node">
<title>replan</title>
<polygon fill="#ffffff" stroke="#445a79" stroke-width="1.5" points="228.13,-169.9 176.69,-129.7 228.13,-89.5 279.58,-129.7 228.13,-169.9"/>
<text xml:space="preserve" text-anchor="middle" x="228.13" y="-132.9" font-family="Times,serif" font-size="14.00">Need</text>
<text xml:space="preserve" text-anchor="middle" x="228.13" y="-116.4" font-family="Times,serif" font-size="14.00">Replan?</text>
</g>
<!-- goal&#45;&gt;replan -->
<g id="edge7" class="edge">
<title>goal&#45;&gt;replan</title>
<path fill="none" stroke="#445a79" stroke-width="1.3" d="M130.61,-129.7C142.45,-129.7 154.85,-129.7 166.69,-129.7"/>
<polygon fill="#445a79" stroke="#445a79" stroke-width="1.3" points="166.64,-132.15 173.64,-129.7 166.64,-127.25 166.64,-132.15"/>
<text xml:space="preserve" text-anchor="middle" x="153.13" y="-135.75" font-family="Times,serif" font-size="11.00" fill="#162130">No</text>
</g>
<!-- out -->
<g id="node8" class="node">
<title>out</title>
<polygon fill="#ffffff" stroke="#445a79" stroke-width="1.5" points="136.77,-36 1.5,-36 1.5,0 136.77,0 136.77,-36"/>
<text xml:space="preserve" text-anchor="middle" x="69.14" y="-12.95" font-family="Times,serif" font-size="14.00">Return Final Response</text>
</g>
<!-- goal&#45;&gt;out -->
<g id="edge6" class="edge">
<title>goal&#45;&gt;out</title>
<path fill="none" stroke="#445a79" stroke-width="1.3" d="M69.14,-88.79C69.14,-74.39 69.14,-58.51 69.14,-45.54"/>
<polygon fill="#445a79" stroke="#445a79" stroke-width="1.3" points="71.59,-45.64 69.14,-38.64 66.69,-45.64 71.59,-45.64"/>
<text xml:space="preserve" text-anchor="middle" x="77.39" y="-59.05" font-family="Times,serif" font-size="11.00" fill="#162130">Yes</text>
</g>
<!-- replan&#45;&gt;plan -->
<g id="edge8" class="edge">
<title>replan&#45;&gt;plan</title>
<path fill="none" stroke="#445a79" stroke-width="1.3" d="M216.46,-161.53C203.42,-195.96 184.13,-246.9 184.13,-246.9 184.13,-246.9 137.13,-336.4 137.13,-336.4 137.13,-336.4 115.54,-354.82 96.68,-370.9"/>
<polygon fill="#445a79" stroke="#445a79" stroke-width="1.3" points="95.14,-369 91.4,-375.41 98.32,-372.73 95.14,-369"/>
<text xml:space="preserve" text-anchor="middle" x="181.77" y="-269.95" font-family="Times,serif" font-size="11.00" fill="#162130">Yes</text>
</g>
<!-- replan&#45;&gt;step -->
<g id="edge9" class="edge">
<title>replan&#45;&gt;step</title>
<path fill="none" stroke="#445a79" stroke-width="1.3" d="M208.2,-154.78C194.64,-171.17 179.13,-189.9 179.13,-189.9 179.13,-189.9 141.13,-246.9 141.13,-246.9 141.13,-246.9 114.13,-273.34 93.2,-293.84"/>
<polygon fill="#445a79" stroke="#445a79" stroke-width="1.3" points="91.63,-291.95 88.34,-298.6 95.05,-295.45 91.63,-291.95"/>
<text xml:space="preserve" text-anchor="middle" x="171.28" y="-225.2" font-family="Times,serif" font-size="11.00" fill="#162130">No</text>
</g>
</g>
</svg>
