<?xml version="1.0" encoding="UTF-8" standalone="no"?>
<!DOCTYPE svg PUBLIC "-//W3C//DTD SVG 1.1//EN"
 "http://www.w3.org/Graphics/SVG/1.1/DTD/svg11.dtd">
<!-- Generated by graphviz version 14.1.2 (20260124.0452)
 -->
<!-- Title: G Pages: 1 -->
<svg width="705pt" height="675pt"
 viewBox="11.00 11.00 695.00 664.00" xmlns="http://www.w3.org/2000/svg" xmlns:xlink="http://www.w3.org/1999/xlink">
<g id="graph0" class="graph" transform="scale(1 1) rotate(0) translate(36 638.8)">
<title>G</title>
<polygon fill="#ffffff" stroke="none" points="-25.2,25.2 -25.2,-628 658.53,-628 658.53,25.2 -25.2,25.2"/>
<text xml:space="preserve" text-anchor="middle" x="316.67" y="-568.4" font-family="Helvetica,sans-Serif" font-size="32.00" fill="#14181f">Tool&#45;Augmented LLM Flow</text>
<!-- query -->
<g id="node1" class="node">
<title>query</title>
<path fill="#f8fbff" stroke="#4f6485" stroke-width="2" d="M378.16,-562.55C378.16,-562.55 280,-562.55 280,-562.55 274,-562.55 268,-556.55 268,-550.55 268,-550.55 268,-538.55 268,-538.55 268,-532.55 274,-526.55 280,-526.55 280,-526.55 378.16,-526.55 378.16,-526.55 384.16,-526.55 390.16,-532.55 390.16,-538.55 390.16,-538.55 390.16,-550.55 390.16,-550.55 390.16,-556.55 384.16,-562.55 378.16,-562.55"/>
<text xml:space="preserve" text-anchor="middle" x="329.08" y="-536.05" font-family="Helvetica,sans-Serif" font-size="20.00">User Query</text>
</g>
<!-- reason -->
<g id="node2" class="node">
<title>reason</title>
<path fill="#f8fbff" stroke="#4f6485" stroke-width="2" d="M420.54,-475.55C420.54,-475.55 237.63,-475.55 237.63,-475.55 231.63,-475.55 225.63,-469.55 225.63,-463.55 225.63,-463.55 225.63,-451.55 225.63,-451.55 225.63,-445.55 231.63,-439.55 237.63,-439.55 237.63,-439.55 420.54,-439.55 420.54,-439.55 426.54,-439.55 432.54,-445.55 432.54,-451.55 432.54,-451.55 432.54,-463.55 432.54,-463.55 432.54,-469.55 426.54,-475.55 420.54,-475.55"/>
<text xml:space="preserve" text-anchor="middle" x="329.08" y="-449.05" font-family="Helvetica,sans-Serif" font-size="20.00">LLM Reasoning Step</text>
</g>
<!-- query&#45;&gt;reason -->
<g id="edge1" class="edge">
<title>query&#45;&gt;reason</title>
<path fill="none" stroke="#5f7390" stroke-width="1.8" d="M329.08,-525.94C329.08,-514.73 329.08,-499.96 329.08,-487.1"/>
<polygon fill="#5f7390" stroke="#5f7390" stroke-width="1.8" points="331.88,-487.16 329.08,-479.16 326.28,-487.16 331.88,-487.16"/>
</g>
<!-- need -->
<g id="node3" class="node">
<title>need</title>
<polygon fill="#edf2f8" stroke="#4f6485" stroke-width="2" points="329.08,-388.55 260.92,-332.15 329.08,-275.75 397.24,-332.15 329.08,-388.55"/>
<text xml:space="preserve" text-anchor="middle" x="329.08" y="-334.15" font-family="Helvetica,sans-Serif" font-size="20.00">Need</text>
<text xml:space="preserve" text-anchor="middle" x="329.08" y="-313.15" font-family="Helvetica,sans-Serif" font-size="20.00">Tool?</text>
</g>
<!-- reason&#45;&gt;need -->
<g id="edge2" class="edge">
<title>reason&#45;&gt;need</title>
<path fill="none" stroke="#5f7390" stroke-width="1.8" d="M329.08,-438.61C329.08,-428.17 329.08,-414.3 329.08,-400.05"/>
<polygon fill="#5f7390" stroke="#5f7390" stroke-width="1.8" points="331.88,-400.38 329.08,-392.38 326.28,-400.38 331.88,-400.38"/>
</g>
<!-- select -->
<g id="node4" class="node">
<title>select</title>
<path fill="#f8fbff" stroke="#4f6485" stroke-width="2" d="M224.16,-210C224.16,-210 12,-210 12,-210 6,-210 0,-204 0,-198 0,-198 0,-186 0,-186 0,-180 6,-174 12,-174 12,-174 224.16,-174 224.16,-174 230.16,-174 236.16,-180 236.16,-186 236.16,-186 236.16,-198 236.16,-198 236.16,-204 230.16,-210 224.16,-210"/>
<text xml:space="preserve" text-anchor="middle" x="118.08" y="-183.5" font-family="Helvetica,sans-Serif" font-size="20.00">Select Tool + Arguments</text>
</g>
<!-- need&#45;&gt;select -->
<g id="edge3" class="edge">
<title>need&#45;&gt;select</title>
<path fill="none" stroke="#5f7390" stroke-width="1.8" d="M290.87,-306.13C251.95,-280.65 192.06,-241.44 153.99,-216.51"/>
<polygon fill="#5f7390" stroke="#5f7390" stroke-width="1.8" points="155.78,-214.34 147.56,-212.3 152.72,-219.02 155.78,-214.34"/>
<text xml:space="preserve" text-anchor="middle" x="216.68" y="-236.5" font-family="Helvetica,sans-Serif" font-size="15.00">Yes</text>
</g>
<!-- ans -->
<g id="node7" class="node">
<title>ans</title>
<path fill="#f8fbff" stroke="#4f6485" stroke-width="2" d="M488.16,-210C488.16,-210 288,-210 288,-210 282,-210 276,-204 276,-198 276,-198 276,-186 276,-186 276,-180 282,-174 288,-174 288,-174 488.16,-174 488.16,-174 494.16,-174 500.16,-180 500.16,-186 500.16,-186 500.16,-198 500.16,-198 500.16,-204 494.16,-210 488.16,-210"/>
<text xml:space="preserve" text-anchor="middle" x="388.08" y="-183.5" font-family="Helvetica,sans-Serif" font-size="20.00">Generate Final Answer</text>
</g>
<!-- need&#45;&gt;ans -->
<g id="edge4" class="edge">
<title>need&#45;&gt;ans</title>
<path fill="none" stroke="#5f7390" stroke-width="1.8" d="M346.94,-289.33C356.43,-267.11 367.83,-240.42 376.22,-220.77"/>
<polygon fill="#5f7390" stroke="#5f7390" stroke-width="1.8" points="378.79,-221.89 379.35,-213.43 373.64,-219.69 378.79,-221.89"/>
<text xml:space="preserve" text-anchor="middle" x="378.37" y="-236.5" font-family="Helvetica,sans-Serif" font-size="15.00">No</text>
</g>
<!-- exec -->
<g id="node5" class="node">
<title>exec</title>
<path fill="#f8fbff" stroke="#4f6485" stroke-width="2" d="M173.16,-123C173.16,-123 63,-123 63,-123 57,-123 51,-117 51,-111 51,-111 51,-99 51,-99 51,-93 57,-87 63,-87 63,-87 173.16,-87 173.16,-87 179.16,-87 185.16,-93 185.16,-99 185.16,-99 185.16,-111 185.16,-111 185.16,-117 179.16,-123 173.16,-123"/>
<text xml:space="preserve" text-anchor="middle" x="118.08" y="-96.5" font-family="Helvetica,sans-Serif" font-size="20.00">Execute Tool</text>
</g>
<!-- select&#45;&gt;exec -->
<g id="edge5" class="edge">
<title>select&#45;&gt;exec</title>
<path fill="none" stroke="#5f7390" stroke-width="1.8" d="M118.08,-173.39C118.08,-162.18 118.08,-147.41 118.08,-134.55"/>
<polygon fill="#5f7390" stroke="#5f7390" stroke-width="1.8" points="120.88,-134.61 118.08,-126.61 115.28,-134.61 120.88,-134.61"/>
</g>
<!-- obs -->
<g id="node6" class="node">
<title>obs</title>
<path fill="#f8fbff" stroke="#4f6485" stroke-width="2" d="M191.16,-36C191.16,-36 45,-36 45,-36 39,-36 33,-30 33,-24 33,-24 33,-12 33,-12 33,-6 39,0 45,0 45,0 191.16,0 191.16,0 197.16,0 203.16,-6 203.16,-12 203.16,-12 203.16,-24 203.16,-24 203.16,-30 197.16,-36 191.16,-36"/>
<text xml:space="preserve" text-anchor="middle" x="118.08" y="-9.5" font-family="Helvetica,sans-Serif" font-size="20.00">Tool Observation</text>
</g>
<!-- exec&#45;&gt;obs -->
<g id="edge6" class="edge">
<title>exec&#45;&gt;obs</title>
<path fill="none" stroke="#5f7390" stroke-width="1.8" d="M118.08,-86.39C118.08,-75.18 118.08,-60.41 118.08,-47.55"/>
<polygon fill="#5f7390" stroke="#5f7390" stroke-width="1.8" points="120.88,-47.61 118.08,-39.61 115.28,-47.61 120.88,-47.61"/>
</g>
<!-- obs&#45;&gt;reason -->
<g id="edge7" class="edge">
<title>obs&#45;&gt;reason</title>
<path fill="none" stroke="#5f7390" stroke-width="1.8" d="M164.59,-36.93C270.41,-77.73 520.08,-174 520.08,-174 520.08,-174 520.08,-210 520.08,-210 520.08,-210 417.08,-388.55 417.08,-388.55 417.08,-388.55 385.76,-412.75 360.49,-432.28"/>
<polygon fill="#5f7390" stroke="#5f7390" stroke-width="1.8" points="358.97,-429.91 354.36,-437.02 362.4,-434.34 358.97,-429.91"/>
<text xml:space="preserve" text-anchor="middle" x="576.71" y="-185.62" font-family="Helvetica,sans-Serif" font-size="15.00">Observation loop</text>
</g>
</g>
</svg>
