<?xml version="1.0" encoding="UTF-8" standalone="no"?>
<!DOCTYPE svg PUBLIC "-//W3C//DTD SVG 1.1//EN"
 "http://www.w3.org/Graphics/SVG/1.1/DTD/svg11.dtd">
<!-- Generated by graphviz version 14.1.2 (20260124.0452)
 -->
<!-- Title: G Pages: 1 -->
<svg width="288pt" height="578pt"
 viewBox="1.00 1.00 286.00 576.00" xmlns="http://www.w3.org/2000/svg" xmlns:xlink="http://www.w3.org/1999/xlink">
<g id="graph0" class="graph" transform="scale(1 1) rotate(0) translate(5.76 571.78)">
<title>G</title>
<polygon fill="#ffffff" stroke="none" points="-4.32,4.32 -4.32,-570.34 280.46,-570.34 280.46,4.32 -4.32,4.32"/>
<!-- input -->
<g id="node1" class="node">
<title>input</title>
<polygon fill="#ffffff" stroke="#445a79" stroke-width="1.5" points="103.77,-566.02 34.5,-566.02 34.5,-530.02 103.77,-530.02 103.77,-566.02"/>
<text xml:space="preserve" text-anchor="middle" x="69.14" y="-542.97" font-family="Times,serif" font-size="14.00">Input Task</text>
</g>
<!-- init -->
<g id="node2" class="node">
<title>init</title>
<polygon fill="#ffffff" stroke="#445a79" stroke-width="1.5" points="114.27,-489.02 24,-489.02 24,-453.02 114.27,-453.02 114.27,-489.02"/>
<text xml:space="preserve" text-anchor="middle" x="69.14" y="-465.97" font-family="Times,serif" font-size="14.00">Initialize State</text>
</g>
<!-- input&#45;&gt;init -->
<g id="edge1" class="edge">
<title>input&#45;&gt;init</title>
<path fill="none" stroke="#445a79" stroke-width="1.3" d="M69.14,-529.62C69.14,-520.32 69.14,-508.67 69.14,-498.29"/>
<polygon fill="#445a79" stroke="#445a79" stroke-width="1.3" points="71.59,-498.55 69.14,-491.55 66.69,-498.55 71.59,-498.55"/>
</g>
<!-- plan -->
<g id="node3" class="node">
<title>plan</title>
<polygon fill="#ffffff" stroke="#445a79" stroke-width="1.5" points="138.27,-412.02 0,-412.02 0,-376.02 138.27,-376.02 138.27,-412.02"/>
<text xml:space="preserve" text-anchor="middle" x="69.14" y="-388.97" font-family="Times,serif" font-size="14.00">Generate / Update Plan</text>
</g>
<!-- init&#45;&gt;plan -->
<g id="edge2" class="edge">
<title>init&#45;&gt;plan</title>
<path fill="none" stroke="#445a79" stroke-width="1.3" d="M69.14,-452.62C69.14,-443.32 69.14,-431.67 69.14,-421.29"/>
<polygon fill="#445a79" stroke="#445a79" stroke-width="1.3" points="71.59,-421.55 69.14,-414.55 66.69,-421.55 71.59,-421.55"/>
</g>
<!-- step -->
<g id="node4" class="node">
<title>step</title>
<polygon fill="#ffffff" stroke="#445a79" stroke-width="1.5" points="125.52,-335.02 12.75,-335.02 12.75,-299.02 125.52,-299.02 125.52,-335.02"/>
<text xml:space="preserve" text-anchor="middle" x="69.14" y="-311.97" font-family="Times,serif" font-size="14.00">Execute Next Step</text>
</g>
<!-- plan&#45;&gt;step -->
<g id="edge3" class="edge">
<title>plan&#45;&gt;step</title>
<path fill="none" stroke="#445a79" stroke-width="1.3" d="M69.14,-375.62C69.14,-366.32 69.14,-354.67 69.14,-344.29"/>
<polygon fill="#445a79" stroke="#445a79" stroke-width="1.3" points="71.59,-344.55 69.14,-337.55 66.69,-344.55 71.59,-344.55"/>
</g>
<!-- observe -->
<g id="node5" class="node">
<title>observe</title>
<polygon fill="#ffffff" stroke="#445a79" stroke-width="1.5" points="129.27,-244.77 9,-244.77 9,-208.77 129.27,-208.77 129.27,-244.77"/>
<text xml:space="preserve" text-anchor="middle" x="69.14" y="-221.72" font-family="Times,serif" font-size="14.00">Collect Observation</text>
</g>
<!-- step&#45;&gt;observe -->
<g id="edge4" class="edge">
<title>step&#45;&gt;observe</title>
<path fill="none" stroke="#445a79" stroke-width="1.3" d="M69.14,-298.58C69.14,-285.98 69.14,-268.71 69.14,-254.38"/>
<polygon fill="#445a79" stroke="#445a79" stroke-width="1.3" points="71.59,-254.44 69.14,-247.44 66.69,-254.44 71.59,-254.44"/>
</g>
<!-- goal -->
<g id="node6" class="node">
<title>goal</title>
<polygon fill="#ffffff" stroke="#445a79" stroke-width="1.5" points="69.14,-167.77 10.13,-129.01 69.13,-90.25 128.15,-129.01 69.14,-167.77"/>
<text xml:space="preserve" text-anchor="middle" x="69.14" y="-132.21" font-family="Times,serif" font-size="14.00">Goal</text>
<text xml:space="preserve" text-anchor="middle" x="69.14" y="-115.71" font-family="Times,serif" font-size="14.00">Satisfied?</text>
</g>
<!-- observe&#45;&gt;goal -->
<g id="edge5" class="edge">
<title>observe&#45;&gt;goal</title>
<path fill="none" stroke="#445a79" stroke-width="1.3" d="M69.14,-208.21C69.14,-199.43 69.14,-188.34 69.14,-177.3"/>
<polygon fill="#445a79" stroke="#445a79" stroke-width="1.3" points="71.59,-177.47 69.14,-170.47 66.69,-177.47 71.59,-177.47"/>
</g>
<!-- replan -->
<g id="node7" class="node">
<title>replan</title>
<polygon fill="#ffffff" stroke="#445a79" stroke-width="1.5" points="226.13,-167.77 176.12,-129.01 226.13,-90.25 276.14,-129.01 226.13,-167.77"/>
<text xml:space="preserve" text-anchor="middle" x="226.13" y="-132.21" font-family="Times,serif" font-size="14.00">Need</text>
<text xml:space="preserve" text-anchor="middle" x="226.13" y="-115.71" font-family="Times,serif" font-size="14.00">Replan?</text>
</g>
<!-- goal&#45;&gt;replan -->
<g id="edge7" class="edge">
<title>goal&#45;&gt;replan</title>
<path fill="none" stroke="#445a79" stroke-width="1.3" d="M129.39,-129.01C141.49,-129.01 154.21,-129.01 166.31,-129.01"/>
<polygon fill="#445a79" stroke="#445a79" stroke-width="1.3" points="166.02,-131.46 173.02,-129.01 166.02,-126.56 166.02,-131.46"/>
<text xml:space="preserve" text-anchor="middle" x="152.13" y="-134.86" font-family="Times,serif" font-size="12.00" fill="#162130">No</text>
</g>
<!-- out -->
<g id="node8" class="node">
<title>out</title>
<polygon fill="#ffffff" stroke="#445a79" stroke-width="1.5" points="136.77,-36 1.5,-36 1.5,0 136.77,0 136.77,-36"/>
<text xml:space="preserve" text-anchor="middle" x="69.14" y="-12.95" font-family="Times,serif" font-size="14.00">Return Final Response</text>
</g>
<!-- goal&#45;&gt;out -->
<g id="edge6" class="edge">
<title>goal&#45;&gt;out</title>
<path fill="none" stroke="#445a79" stroke-width="1.3" d="M69.14,-89.58C69.14,-74.93 69.14,-58.59 69.14,-45.32"/>
<polygon fill="#445a79" stroke="#445a79" stroke-width="1.3" points="71.59,-45.66 69.14,-38.66 66.69,-45.66 71.59,-45.66"/>
<text xml:space="preserve" text-anchor="middle" x="77.76" y="-58.85" font-family="Times,serif" font-size="12.00" fill="#162130">Yes</text>
</g>
<!-- replan&#45;&gt;plan -->
<g id="edge8" class="edge">
<title>replan&#45;&gt;plan</title>
<path fill="none" stroke="#445a79" stroke-width="1.3" d="M215.36,-160.16C203.22,-194.16 185.13,-244.77 185.13,-244.77 185.13,-244.77 137.13,-335.02 137.13,-335.02 137.13,-335.02 115.54,-353.44 96.68,-369.52"/>
<polygon fill="#445a79" stroke="#445a79" stroke-width="1.3" points="95.14,-367.62 91.4,-374.03 98.32,-371.35 95.14,-367.62"/>
<text xml:space="preserve" text-anchor="middle" x="182.92" y="-267.62" font-family="Times,serif" font-size="12.00" fill="#162130">Yes</text>
</g>
<!-- replan&#45;&gt;step -->
<g id="edge9" class="edge">
<title>replan&#45;&gt;step</title>
<path fill="none" stroke="#445a79" stroke-width="1.3" d="M206.61,-153.5C193.32,-169.49 178.13,-187.77 178.13,-187.77 178.13,-187.77 141.13,-244.77 141.13,-244.77 141.13,-244.77 114.13,-271.49 93.2,-292.21"/>
<polygon fill="#445a79" stroke="#445a79" stroke-width="1.3" points="91.58,-290.36 88.33,-297.02 95.03,-293.84 91.58,-290.36"/>
<text xml:space="preserve" text-anchor="middle" x="171.42" y="-222.49" font-family="Times,serif" font-size="12.00" fill="#162130">No</text>
</g>
</g>
</svg>
