<?xml version="1.0" encoding="UTF-8" standalone="no"?>
<!DOCTYPE svg PUBLIC "-//W3C//DTD SVG 1.1//EN"
 "http://www.w3.org/Graphics/SVG/1.1/DTD/svg11.dtd">
<!-- Generated by graphviz version 14.1.2 (20260124.0452)
 -->
<!-- Title: G Pages: 1 -->
<svg width="323pt" height="471pt"
 viewBox="1.00 1.00 322.00 469.00" xmlns="http://www.w3.org/2000/svg" xmlns:xlink="http://www.w3.org/1999/xlink">
<g id="graph0" class="graph" transform="scale(1 1) rotate(0) translate(5.76 464.78)">
<title>G</title>
<polygon fill="#ffffff" stroke="none" points="-4.32,4.32 -4.32,-463.34 316.08,-463.34 316.08,4.32 -4.32,4.32"/>
<!-- query -->
<g id="node1" class="node">
<title>query</title>
<polygon fill="#ffffff" stroke="#445a79" stroke-width="1.5" points="169.64,-459.02 95.88,-459.02 95.88,-423.02 169.64,-423.02 169.64,-459.02"/>
<text xml:space="preserve" text-anchor="middle" x="132.76" y="-436.17" font-family="Times,serif" font-size="13.00">User Query</text>
</g>
<!-- reason -->
<g id="node2" class="node">
<title>reason</title>
<polygon fill="#ffffff" stroke="#445a79" stroke-width="1.5" points="195.89,-384.02 69.62,-384.02 69.62,-348.02 195.89,-348.02 195.89,-384.02"/>
<text xml:space="preserve" text-anchor="middle" x="132.76" y="-361.17" font-family="Times,serif" font-size="13.00">LLM Reasoning Step</text>
</g>
<!-- query&#45;&gt;reason -->
<g id="edge1" class="edge">
<title>query&#45;&gt;reason</title>
<path fill="none" stroke="#445a79" stroke-width="1.3" d="M132.76,-422.35C132.76,-413.65 132.76,-402.99 132.76,-393.35"/>
<polygon fill="#445a79" stroke="#445a79" stroke-width="1.3" points="135.21,-393.5 132.76,-386.5 130.31,-393.5 135.21,-393.5"/>
</g>
<!-- need -->
<g id="node3" class="node">
<title>need</title>
<polygon fill="#ffffff" stroke="#445a79" stroke-width="1.5" points="132.76,-309.02 97,-273.26 132.76,-237.5 168.52,-273.26 132.76,-309.02"/>
<text xml:space="preserve" text-anchor="middle" x="132.76" y="-275.91" font-family="Times,serif" font-size="13.00">Need</text>
<text xml:space="preserve" text-anchor="middle" x="132.76" y="-260.91" font-family="Times,serif" font-size="13.00">Tool?</text>
</g>
<!-- reason&#45;&gt;need -->
<g id="edge2" class="edge">
<title>reason&#45;&gt;need</title>
<path fill="none" stroke="#445a79" stroke-width="1.3" d="M132.76,-347.52C132.76,-339.23 132.76,-328.92 132.76,-318.68"/>
<polygon fill="#445a79" stroke="#445a79" stroke-width="1.3" points="135.21,-318.71 132.76,-311.71 130.31,-318.71 135.21,-318.71"/>
</g>
<!-- select -->
<g id="node4" class="node">
<title>select</title>
<polygon fill="#ffffff" stroke="#445a79" stroke-width="1.5" points="143.52,-186 0,-186 0,-150 143.52,-150 143.52,-186"/>
<text xml:space="preserve" text-anchor="middle" x="71.76" y="-163.15" font-family="Times,serif" font-size="13.00">Select Tool + Arguments</text>
</g>
<!-- need&#45;&gt;select -->
<g id="edge3" class="edge">
<title>need&#45;&gt;select</title>
<path fill="none" stroke="#445a79" stroke-width="1.3" d="M119.52,-249.85C109.8,-233.39 96.59,-211.03 86.52,-193.99"/>
<polygon fill="#445a79" stroke="#445a79" stroke-width="1.3" points="88.81,-193.05 83.14,-188.27 84.59,-195.54 88.81,-193.05"/>
<text xml:space="preserve" text-anchor="middle" x="108.68" y="-208.05" font-family="Times,serif" font-size="11.00" fill="#162130">Yes</text>
</g>
<!-- answer -->
<g id="node7" class="node">
<title>answer</title>
<polygon fill="#ffffff" stroke="#445a79" stroke-width="1.5" points="300.39,-186 165.12,-186 165.12,-150 300.39,-150 300.39,-186"/>
<text xml:space="preserve" text-anchor="middle" x="232.76" y="-163.15" font-family="Times,serif" font-size="13.00">Generate Final Answer</text>
</g>
<!-- need&#45;&gt;answer -->
<g id="edge4" class="edge">
<title>need&#45;&gt;answer</title>
<path fill="none" stroke="#445a79" stroke-width="1.3" d="M150.18,-254.27C166.77,-237.14 191.84,-211.26 210,-192.5"/>
<polygon fill="#445a79" stroke="#445a79" stroke-width="1.3" points="211.4,-194.58 214.51,-187.85 207.88,-191.17 211.4,-194.58"/>
<text xml:space="preserve" text-anchor="middle" x="204.31" y="-208.05" font-family="Times,serif" font-size="11.00" fill="#162130">No</text>
</g>
<!-- execute -->
<g id="node5" class="node">
<title>execute</title>
<polygon fill="#ffffff" stroke="#445a79" stroke-width="1.5" points="112.77,-111 30.75,-111 30.75,-75 112.77,-75 112.77,-111"/>
<text xml:space="preserve" text-anchor="middle" x="71.76" y="-88.15" font-family="Times,serif" font-size="13.00">Execute Tool</text>
</g>
<!-- select&#45;&gt;execute -->
<g id="edge5" class="edge">
<title>select&#45;&gt;execute</title>
<path fill="none" stroke="#445a79" stroke-width="1.3" d="M71.76,-149.33C71.76,-140.63 71.76,-129.97 71.76,-120.33"/>
<polygon fill="#445a79" stroke="#445a79" stroke-width="1.3" points="74.21,-120.48 71.76,-113.48 69.31,-120.48 74.21,-120.48"/>
</g>
<!-- observe -->
<g id="node6" class="node">
<title>observe</title>
<polygon fill="#ffffff" stroke="#445a79" stroke-width="1.5" points="124.02,-36 19.5,-36 19.5,0 124.02,0 124.02,-36"/>
<text xml:space="preserve" text-anchor="middle" x="71.76" y="-13.15" font-family="Times,serif" font-size="13.00">Tool Observation</text>
</g>
<!-- execute&#45;&gt;observe -->
<g id="edge6" class="edge">
<title>execute&#45;&gt;observe</title>
<path fill="none" stroke="#445a79" stroke-width="1.3" d="M71.76,-74.33C71.76,-65.63 71.76,-54.97 71.76,-45.33"/>
<polygon fill="#445a79" stroke="#445a79" stroke-width="1.3" points="74.21,-45.48 71.76,-38.48 69.31,-45.48 74.21,-45.48"/>
</g>
<!-- observe&#45;&gt;reason -->
<g id="edge7" class="edge">
<title>observe&#45;&gt;reason</title>
<path fill="none" stroke="#445a79" stroke-width="1.3" d="M104.13,-36.67C169.64,-72.42 311.76,-150 311.76,-150 311.76,-150 311.76,-186 311.76,-186 311.76,-186 205.08,-292.69 156.44,-341.34"/>
<polygon fill="#445a79" stroke="#445a79" stroke-width="1.3" points="154.86,-339.46 151.64,-346.14 158.32,-342.92 154.86,-339.46"/>
</g>
</g>
</svg>
