<?xml version="1.0" encoding="UTF-8" standalone="no"?>
<!DOCTYPE svg PUBLIC "-//W3C//DTD SVG 1.1//EN"
 "http://www.w3.org/Graphics/SVG/1.1/DTD/svg11.dtd">
<!-- Generated by graphviz version 14.1.2 (20260124.0452)
 -->
<!-- Title: G Pages: 1 -->
<svg width="330pt" height="477pt"
 viewBox="1.00 1.00 328.00 476.00" xmlns="http://www.w3.org/2000/svg" xmlns:xlink="http://www.w3.org/1999/xlink">
<g id="graph0" class="graph" transform="scale(1 1) rotate(0) translate(5.76 471.53)">
<title>G</title>
<polygon fill="#ffffff" stroke="none" points="-4.32,4.32 -4.32,-470.09 322.7,-470.09 322.7,4.32 -4.32,4.32"/>
<!-- query -->
<g id="node1" class="node">
<title>query</title>
<polygon fill="#ffffff" stroke="#445a79" stroke-width="1.5" points="174.64,-465.77 100.12,-465.77 100.12,-429.77 174.64,-429.77 174.64,-465.77"/>
<text xml:space="preserve" text-anchor="middle" x="137.38" y="-442.72" font-family="Times,serif" font-size="14.00">User Query</text>
</g>
<!-- reason -->
<g id="node2" class="node">
<title>reason</title>
<polygon fill="#ffffff" stroke="#445a79" stroke-width="1.5" points="202.02,-390.77 72.75,-390.77 72.75,-354.77 202.02,-354.77 202.02,-390.77"/>
<text xml:space="preserve" text-anchor="middle" x="137.38" y="-367.72" font-family="Times,serif" font-size="14.00">LLM Reasoning Step</text>
</g>
<!-- query&#45;&gt;reason -->
<g id="edge1" class="edge">
<title>query&#45;&gt;reason</title>
<path fill="none" stroke="#445a79" stroke-width="1.3" d="M137.38,-429.1C137.38,-420.4 137.38,-409.74 137.38,-400.1"/>
<polygon fill="#445a79" stroke="#445a79" stroke-width="1.3" points="139.84,-400.25 137.39,-393.25 134.94,-400.25 139.84,-400.25"/>
</g>
<!-- need -->
<g id="node3" class="node">
<title>need</title>
<polygon fill="#ffffff" stroke="#445a79" stroke-width="1.5" points="137.38,-315.77 100.12,-277.01 137.38,-238.25 174.64,-277.01 137.38,-315.77"/>
<text xml:space="preserve" text-anchor="middle" x="137.38" y="-280.21" font-family="Times,serif" font-size="14.00">Need</text>
<text xml:space="preserve" text-anchor="middle" x="137.38" y="-263.71" font-family="Times,serif" font-size="14.00">Tool?</text>
</g>
<!-- reason&#45;&gt;need -->
<g id="edge2" class="edge">
<title>reason&#45;&gt;need</title>
<path fill="none" stroke="#445a79" stroke-width="1.3" d="M137.38,-354.13C137.38,-345.93 137.38,-335.73 137.38,-325.5"/>
<polygon fill="#445a79" stroke="#445a79" stroke-width="1.3" points="139.84,-325.51 137.39,-318.51 134.94,-325.51 139.84,-325.51"/>
</g>
<!-- select -->
<g id="node4" class="node">
<title>select</title>
<polygon fill="#ffffff" stroke="#445a79" stroke-width="1.5" points="148.77,-186 0,-186 0,-150 148.77,-150 148.77,-186"/>
<text xml:space="preserve" text-anchor="middle" x="74.38" y="-162.95" font-family="Times,serif" font-size="14.00">Select Tool + Arguments</text>
</g>
<!-- need&#45;&gt;select -->
<g id="edge3" class="edge">
<title>need&#45;&gt;select</title>
<path fill="none" stroke="#445a79" stroke-width="1.3" d="M123.25,-251.99C113.12,-234.79 99.5,-211.66 89.22,-194.19"/>
<polygon fill="#445a79" stroke="#445a79" stroke-width="1.3" points="91.41,-193.09 85.75,-188.3 87.19,-195.58 91.41,-193.09"/>
<text xml:space="preserve" text-anchor="middle" x="110.74" y="-207.85" font-family="Times,serif" font-size="12.00" fill="#162130">Yes</text>
</g>
<!-- answer -->
<g id="node7" class="node">
<title>answer</title>
<polygon fill="#ffffff" stroke="#445a79" stroke-width="1.5" points="307.77,-186 171,-186 171,-150 307.77,-150 307.77,-186"/>
<text xml:space="preserve" text-anchor="middle" x="239.38" y="-162.95" font-family="Times,serif" font-size="14.00">Generate Final Answer</text>
</g>
<!-- need&#45;&gt;answer -->
<g id="edge4" class="edge">
<title>need&#45;&gt;answer</title>
<path fill="none" stroke="#445a79" stroke-width="1.3" d="M155.62,-256.88C172.64,-239.02 198.1,-212.32 216.48,-193.03"/>
<polygon fill="#445a79" stroke="#445a79" stroke-width="1.3" points="218.25,-194.73 221.3,-187.97 214.7,-191.35 218.25,-194.73"/>
<text xml:space="preserve" text-anchor="middle" x="210.98" y="-207.85" font-family="Times,serif" font-size="12.00" fill="#162130">No</text>
</g>
<!-- execute -->
<g id="node5" class="node">
<title>execute</title>
<polygon fill="#ffffff" stroke="#445a79" stroke-width="1.5" points="116.14,-111 32.62,-111 32.62,-75 116.14,-75 116.14,-111"/>
<text xml:space="preserve" text-anchor="middle" x="74.38" y="-87.95" font-family="Times,serif" font-size="14.00">Execute Tool</text>
</g>
<!-- select&#45;&gt;execute -->
<g id="edge5" class="edge">
<title>select&#45;&gt;execute</title>
<path fill="none" stroke="#445a79" stroke-width="1.3" d="M74.38,-149.33C74.38,-140.63 74.38,-129.97 74.38,-120.33"/>
<polygon fill="#445a79" stroke="#445a79" stroke-width="1.3" points="76.84,-120.48 74.39,-113.48 71.94,-120.48 76.84,-120.48"/>
</g>
<!-- observe -->
<g id="node6" class="node">
<title>observe</title>
<polygon fill="#ffffff" stroke="#445a79" stroke-width="1.5" points="127.77,-36 21,-36 21,0 127.77,0 127.77,-36"/>
<text xml:space="preserve" text-anchor="middle" x="74.38" y="-12.95" font-family="Times,serif" font-size="14.00">Tool Observation</text>
</g>
<!-- execute&#45;&gt;observe -->
<g id="edge6" class="edge">
<title>execute&#45;&gt;observe</title>
<path fill="none" stroke="#445a79" stroke-width="1.3" d="M74.38,-74.33C74.38,-65.63 74.38,-54.97 74.38,-45.33"/>
<polygon fill="#445a79" stroke="#445a79" stroke-width="1.3" points="76.84,-45.48 74.39,-38.48 71.94,-45.48 76.84,-45.48"/>
</g>
<!-- observe&#45;&gt;reason -->
<g id="edge7" class="edge">
<title>observe&#45;&gt;reason</title>
<path fill="none" stroke="#445a79" stroke-width="1.3" d="M107.29,-36.67C173.89,-72.42 318.38,-150 318.38,-150 318.38,-150 318.38,-186 318.38,-186 318.38,-186 209.47,-297.79 160.62,-347.93"/>
<polygon fill="#445a79" stroke="#445a79" stroke-width="1.3" points="158.92,-346.16 155.79,-352.88 162.43,-349.58 158.92,-346.16"/>
</g>
</g>
</svg>
