<?xml version="1.0" encoding="UTF-8" standalone="no"?>
<!DOCTYPE svg PUBLIC "-//W3C//DTD SVG 1.1//EN"
 "http://www.w3.org/Graphics/SVG/1.1/DTD/svg11.dtd">
<!-- Generated by graphviz version 14.1.2 (20260124.0452)
 -->
<!-- Title: G Pages: 1 -->
<svg width="330pt" height="479pt"
 viewBox="1.00 1.00 328.00 478.00" xmlns="http://www.w3.org/2000/svg" xmlns:xlink="http://www.w3.org/1999/xlink">
<g id="graph0" class="graph" transform="scale(1 1) rotate(0) translate(5.76 473.66)">
<title>G</title>
<polygon fill="#ffffff" stroke="none" points="-4.32,4.32 -4.32,-472.22 322.7,-472.22 322.7,4.32 -4.32,4.32"/>
<!-- query -->
<g id="node1" class="node">
<title>query</title>
<polygon fill="#ffffff" stroke="#445a79" stroke-width="1.5" points="173.64,-467.9 99.12,-467.9 99.12,-431.9 173.64,-431.9 173.64,-467.9"/>
<text xml:space="preserve" text-anchor="middle" x="136.38" y="-444.85" font-family="Times,serif" font-size="14.00">User Query</text>
</g>
<!-- reason -->
<g id="node2" class="node">
<title>reason</title>
<polygon fill="#ffffff" stroke="#445a79" stroke-width="1.5" points="201.02,-392.9 71.75,-392.9 71.75,-356.9 201.02,-356.9 201.02,-392.9"/>
<text xml:space="preserve" text-anchor="middle" x="136.38" y="-369.85" font-family="Times,serif" font-size="14.00">LLM Reasoning Step</text>
</g>
<!-- query&#45;&gt;reason -->
<g id="edge1" class="edge">
<title>query&#45;&gt;reason</title>
<path fill="none" stroke="#445a79" stroke-width="1.3" d="M136.38,-431.23C136.38,-422.53 136.38,-411.87 136.38,-402.23"/>
<polygon fill="#445a79" stroke="#445a79" stroke-width="1.3" points="138.84,-402.38 136.39,-395.38 133.94,-402.38 138.84,-402.38"/>
</g>
<!-- need -->
<g id="node3" class="node">
<title>need</title>
<polygon fill="#ffffff" stroke="#445a79" stroke-width="1.5" points="136.38,-317.9 97.69,-277.7 136.38,-237.5 175.08,-277.7 136.38,-317.9"/>
<text xml:space="preserve" text-anchor="middle" x="136.38" y="-280.9" font-family="Times,serif" font-size="14.00">Need</text>
<text xml:space="preserve" text-anchor="middle" x="136.38" y="-264.4" font-family="Times,serif" font-size="14.00">Tool?</text>
</g>
<!-- reason&#45;&gt;need -->
<g id="edge2" class="edge">
<title>reason&#45;&gt;need</title>
<path fill="none" stroke="#445a79" stroke-width="1.3" d="M136.38,-356.44C136.38,-348.22 136.38,-337.96 136.38,-327.62"/>
<polygon fill="#445a79" stroke="#445a79" stroke-width="1.3" points="138.84,-327.93 136.39,-320.93 133.94,-327.93 138.84,-327.93"/>
</g>
<!-- select -->
<g id="node4" class="node">
<title>select</title>
<polygon fill="#ffffff" stroke="#445a79" stroke-width="1.5" points="148.77,-186 0,-186 0,-150 148.77,-150 148.77,-186"/>
<text xml:space="preserve" text-anchor="middle" x="74.38" y="-162.95" font-family="Times,serif" font-size="14.00">Select Tool + Arguments</text>
</g>
<!-- need&#45;&gt;select -->
<g id="edge3" class="edge">
<title>need&#45;&gt;select</title>
<path fill="none" stroke="#445a79" stroke-width="1.3" d="M122.01,-251.72C112.02,-234.37 98.76,-211.34 88.77,-193.99"/>
<polygon fill="#445a79" stroke="#445a79" stroke-width="1.3" points="91.03,-193 85.41,-188.16 86.78,-195.45 91.03,-193"/>
<text xml:space="preserve" text-anchor="middle" x="109.92" y="-208.05" font-family="Times,serif" font-size="11.00" fill="#162130">Yes</text>
</g>
<!-- answer -->
<g id="node7" class="node">
<title>answer</title>
<polygon fill="#ffffff" stroke="#445a79" stroke-width="1.5" points="307.77,-186 171,-186 171,-150 307.77,-150 307.77,-186"/>
<text xml:space="preserve" text-anchor="middle" x="239.38" y="-162.95" font-family="Times,serif" font-size="14.00">Generate Final Answer</text>
</g>
<!-- need&#45;&gt;answer -->
<g id="edge4" class="edge">
<title>need&#45;&gt;answer</title>
<path fill="none" stroke="#445a79" stroke-width="1.3" d="M155.52,-256.69C172.79,-238.63 198.25,-212.02 216.58,-192.85"/>
<polygon fill="#445a79" stroke="#445a79" stroke-width="1.3" points="218.31,-194.58 221.38,-187.83 214.77,-191.19 218.31,-194.58"/>
<text xml:space="preserve" text-anchor="middle" x="209.88" y="-208.05" font-family="Times,serif" font-size="11.00" fill="#162130">No</text>
</g>
<!-- execute -->
<g id="node5" class="node">
<title>execute</title>
<polygon fill="#ffffff" stroke="#445a79" stroke-width="1.5" points="116.14,-111 32.62,-111 32.62,-75 116.14,-75 116.14,-111"/>
<text xml:space="preserve" text-anchor="middle" x="74.38" y="-87.95" font-family="Times,serif" font-size="14.00">Execute Tool</text>
</g>
<!-- select&#45;&gt;execute -->
<g id="edge5" class="edge">
<title>select&#45;&gt;execute</title>
<path fill="none" stroke="#445a79" stroke-width="1.3" d="M74.38,-149.33C74.38,-140.63 74.38,-129.97 74.38,-120.33"/>
<polygon fill="#445a79" stroke="#445a79" stroke-width="1.3" points="76.84,-120.48 74.39,-113.48 71.94,-120.48 76.84,-120.48"/>
</g>
<!-- observe -->
<g id="node6" class="node">
<title>observe</title>
<polygon fill="#ffffff" stroke="#445a79" stroke-width="1.5" points="127.77,-36 21,-36 21,0 127.77,0 127.77,-36"/>
<text xml:space="preserve" text-anchor="middle" x="74.38" y="-12.95" font-family="Times,serif" font-size="14.00">Tool Observation</text>
</g>
<!-- execute&#45;&gt;observe -->
<g id="edge6" class="edge">
<title>execute&#45;&gt;observe</title>
<path fill="none" stroke="#445a79" stroke-width="1.3" d="M74.38,-74.33C74.38,-65.63 74.38,-54.97 74.38,-45.33"/>
<polygon fill="#445a79" stroke="#445a79" stroke-width="1.3" points="76.84,-45.48 74.39,-38.48 71.94,-45.48 76.84,-45.48"/>
</g>
<!-- observe&#45;&gt;reason -->
<g id="edge7" class="edge">
<title>observe&#45;&gt;reason</title>
<path fill="none" stroke="#445a79" stroke-width="1.3" d="M107.29,-36.67C173.89,-72.42 318.38,-150 318.38,-150 318.38,-150 318.38,-186 318.38,-186 318.38,-186 208.87,-299.07 159.74,-349.78"/>
<polygon fill="#445a79" stroke="#445a79" stroke-width="1.3" points="157.99,-348.08 154.88,-354.81 161.51,-351.49 157.99,-348.08"/>
</g>
</g>
</svg>
