<?xml version="1.0" encoding="UTF-8" standalone="no"?>
<!DOCTYPE svg PUBLIC "-//W3C//DTD SVG 1.1//EN"
 "http://www.w3.org/Graphics/SVG/1.1/DTD/svg11.dtd">
<!-- Generated by graphviz version 14.1.2 (20260124.0452)
 -->
<!-- Title: G Pages: 1 -->
<svg width="221pt" height="431pt"
 viewBox="1.00 1.00 219.00 430.00" xmlns="http://www.w3.org/2000/svg" xmlns:xlink="http://www.w3.org/1999/xlink">
<g id="graph0" class="graph" transform="scale(1 1) rotate(0) translate(5.76 425.51)">
<title>G</title>
<polygon fill="#ffffff" stroke="none" points="-4.32,4.32 -4.32,-424.07 213.45,-424.07 213.45,4.32 -4.32,4.32"/>
<!-- query -->
<g id="node1" class="node">
<title>query</title>
<polygon fill="#ffffff" stroke="#445a79" stroke-width="1.5" points="110.13,-419.75 56.13,-419.75 56.13,-383.75 110.13,-383.75 110.13,-419.75"/>
<text xml:space="preserve" text-anchor="middle" x="83.13" y="-399.02" font-family="Times,serif" font-size="8.00">User Query</text>
</g>
<!-- reason -->
<g id="node2" class="node">
<title>reason</title>
<polygon fill="#ffffff" stroke="#445a79" stroke-width="1.5" points="123.39,-344.75 42.87,-344.75 42.87,-308.75 123.39,-308.75 123.39,-344.75"/>
<text xml:space="preserve" text-anchor="middle" x="83.13" y="-324.02" font-family="Times,serif" font-size="8.00">LLM Reasoning Step</text>
</g>
<!-- query&#45;&gt;reason -->
<g id="edge1" class="edge">
<title>query&#45;&gt;reason</title>
<path fill="none" stroke="#445a79" stroke-width="1.3" d="M83.13,-383.08C83.13,-374.38 83.13,-363.72 83.13,-354.08"/>
<polygon fill="#445a79" stroke="#445a79" stroke-width="1.3" points="85.59,-354.23 83.14,-347.23 80.69,-354.23 85.59,-354.23"/>
</g>
<!-- need -->
<g id="node3" class="node">
<title>need</title>
<polygon fill="#ffffff" stroke="#445a79" stroke-width="1.5" points="83.13,-269.75 56.13,-251.75 83.13,-233.75 110.13,-251.75 83.13,-269.75"/>
<text xml:space="preserve" text-anchor="middle" x="83.13" y="-253.9" font-family="Times,serif" font-size="8.00">Need</text>
<text xml:space="preserve" text-anchor="middle" x="83.13" y="-244.15" font-family="Times,serif" font-size="8.00">Tool?</text>
</g>
<!-- reason&#45;&gt;need -->
<g id="edge2" class="edge">
<title>reason&#45;&gt;need</title>
<path fill="none" stroke="#445a79" stroke-width="1.3" d="M83.13,-308.08C83.13,-299.44 83.13,-288.88 83.13,-279.3"/>
<polygon fill="#445a79" stroke="#445a79" stroke-width="1.3" points="85.59,-279.48 83.14,-272.48 80.69,-279.48 85.59,-279.48"/>
</g>
<!-- select -->
<g id="node4" class="node">
<title>select</title>
<polygon fill="#ffffff" stroke="#445a79" stroke-width="1.5" points="90.27,-186 0,-186 0,-150 90.27,-150 90.27,-186"/>
<text xml:space="preserve" text-anchor="middle" x="45.13" y="-165.28" font-family="Times,serif" font-size="8.00">Select Tool + Arguments</text>
</g>
<!-- need&#45;&gt;select -->
<g id="edge3" class="edge">
<title>need&#45;&gt;select</title>
<path fill="none" stroke="#445a79" stroke-width="1.3" d="M76.86,-237.25C71.47,-225.65 63.54,-208.61 56.97,-194.45"/>
<polygon fill="#445a79" stroke="#445a79" stroke-width="1.3" points="59.28,-193.61 54.11,-188.3 54.84,-195.68 59.28,-193.61"/>
<text xml:space="preserve" text-anchor="middle" x="70.9" y="-207.15" font-family="Times,serif" font-size="8.00" fill="#162130">Yes</text>
</g>
<!-- answer -->
<g id="node7" class="node">
<title>answer</title>
<polygon fill="#ffffff" stroke="#445a79" stroke-width="1.5" points="198.39,-186 111.88,-186 111.88,-150 198.39,-150 198.39,-186"/>
<text xml:space="preserve" text-anchor="middle" x="155.13" y="-165.28" font-family="Times,serif" font-size="8.00">Generate Final Answer</text>
</g>
<!-- need&#45;&gt;answer -->
<g id="edge4" class="edge">
<title>need&#45;&gt;answer</title>
<path fill="none" stroke="#445a79" stroke-width="1.3" d="M92.85,-239.72C103.32,-227.83 120.34,-208.51 133.94,-193.07"/>
<polygon fill="#445a79" stroke="#445a79" stroke-width="1.3" points="135.44,-195.07 138.23,-188.2 131.76,-191.83 135.44,-195.07"/>
<text xml:space="preserve" text-anchor="middle" x="126.17" y="-207.15" font-family="Times,serif" font-size="8.00" fill="#162130">No</text>
</g>
<!-- execute -->
<g id="node5" class="node">
<title>execute</title>
<polygon fill="#ffffff" stroke="#445a79" stroke-width="1.5" points="72.27,-111 18,-111 18,-75 72.27,-75 72.27,-111"/>
<text xml:space="preserve" text-anchor="middle" x="45.13" y="-90.28" font-family="Times,serif" font-size="8.00">Execute Tool</text>
</g>
<!-- select&#45;&gt;execute -->
<g id="edge5" class="edge">
<title>select&#45;&gt;execute</title>
<path fill="none" stroke="#445a79" stroke-width="1.3" d="M45.13,-149.33C45.13,-140.63 45.13,-129.97 45.13,-120.33"/>
<polygon fill="#445a79" stroke="#445a79" stroke-width="1.3" points="47.59,-120.48 45.14,-113.48 42.69,-120.48 47.59,-120.48"/>
</g>
<!-- observe -->
<g id="node6" class="node">
<title>observe</title>
<polygon fill="#ffffff" stroke="#445a79" stroke-width="1.5" points="78.64,-36 11.62,-36 11.62,0 78.64,0 78.64,-36"/>
<text xml:space="preserve" text-anchor="middle" x="45.13" y="-15.28" font-family="Times,serif" font-size="8.00">Tool Observation</text>
</g>
<!-- execute&#45;&gt;observe -->
<g id="edge6" class="edge">
<title>execute&#45;&gt;observe</title>
<path fill="none" stroke="#445a79" stroke-width="1.3" d="M45.13,-74.33C45.13,-65.63 45.13,-54.97 45.13,-45.33"/>
<polygon fill="#445a79" stroke="#445a79" stroke-width="1.3" points="47.59,-45.48 45.14,-38.48 42.69,-45.48 47.59,-45.48"/>
</g>
<!-- observe&#45;&gt;reason -->
<g id="edge7" class="edge">
<title>observe&#45;&gt;reason</title>
<path fill="none" stroke="#445a79" stroke-width="1.3" d="M67.25,-36.67C112.02,-72.42 209.13,-150 209.13,-150 209.13,-150 209.13,-186 209.13,-186 209.13,-186 141.1,-261.46 105.02,-301.48"/>
<polygon fill="#445a79" stroke="#445a79" stroke-width="1.3" points="103.28,-299.75 100.41,-306.59 106.92,-303.03 103.28,-299.75"/>
</g>
</g>
</svg>
