<?xml version="1.0" encoding="UTF-8" standalone="no"?>
<!DOCTYPE svg PUBLIC "-//W3C//DTD SVG 1.1//EN"
 "http://www.w3.org/Graphics/SVG/1.1/DTD/svg11.dtd">
<!-- Generated by graphviz version 14.1.2 (20260124.0452)
 -->
<!-- Title: G Pages: 1 -->
<svg width="417pt" height="459pt"
 viewBox="1.00 1.00 415.00 458.00" xmlns="http://www.w3.org/2000/svg" xmlns:xlink="http://www.w3.org/1999/xlink">
<g id="graph0" class="graph" transform="scale(1 1) rotate(0) translate(5.76 453.4)">
<title>G</title>
<polygon fill="#ffffff" stroke="none" points="-4.32,4.32 -4.32,-451.96 409.59,-451.96 409.59,4.32 -4.32,4.32"/>
<!-- seed -->
<g id="node1" class="node">
<title>seed</title>
<polygon fill="#ffffff" stroke="#445a79" stroke-width="1.5" points="204.27,-447.64 0,-447.64 0,-411.64 204.27,-411.64 204.27,-447.64"/>
<text xml:space="preserve" text-anchor="middle" x="102.14" y="-430.79" font-family="Helvetica,sans-Serif" font-size="13.00">Seeded Corpus</text>
<text xml:space="preserve" text-anchor="middle" x="102.14" y="-417.29" font-family="Helvetica,sans-Serif" font-size="13.00">(Pre&#45;Curated ToT+Agent Scope)</text>
</g>
<!-- records -->
<g id="node2" class="node">
<title>records</title>
<polygon fill="#ffffff" stroke="#445a79" stroke-width="1.5" points="162.27,-370.64 42,-370.64 42,-334.64 162.27,-334.64 162.27,-370.64"/>
<text xml:space="preserve" text-anchor="middle" x="102.14" y="-353.79" font-family="Helvetica,sans-Serif" font-size="13.00">Records Identified</text>
<text xml:space="preserve" text-anchor="middle" x="102.14" y="-340.29" font-family="Helvetica,sans-Serif" font-size="13.00">n = 30</text>
</g>
<!-- seed&#45;&gt;records -->
<g id="edge1" class="edge">
<title>seed&#45;&gt;records</title>
<path fill="none" stroke="#445a79" stroke-width="1.3" d="M102.14,-411.24C102.14,-401.94 102.14,-390.29 102.14,-379.91"/>
<polygon fill="#445a79" stroke="#445a79" stroke-width="1.3" points="104.59,-380.17 102.14,-373.17 99.69,-380.17 104.59,-380.17"/>
</g>
<!-- dupes -->
<g id="node3" class="node">
<title>dupes</title>
<polygon fill="#ffffff" stroke="#445a79" stroke-width="1.5" points="169.77,-293.64 34.5,-293.64 34.5,-257.64 169.77,-257.64 169.77,-293.64"/>
<text xml:space="preserve" text-anchor="middle" x="102.14" y="-276.79" font-family="Helvetica,sans-Serif" font-size="13.00">Duplicates Removed</text>
<text xml:space="preserve" text-anchor="middle" x="102.14" y="-263.29" font-family="Helvetica,sans-Serif" font-size="13.00">n = 0</text>
</g>
<!-- records&#45;&gt;dupes -->
<g id="edge2" class="edge">
<title>records&#45;&gt;dupes</title>
<path fill="none" stroke="#445a79" stroke-width="1.3" d="M102.14,-334.24C102.14,-324.94 102.14,-313.29 102.14,-302.91"/>
<polygon fill="#445a79" stroke="#445a79" stroke-width="1.3" points="104.59,-303.17 102.14,-296.17 99.69,-303.17 104.59,-303.17"/>
</g>
<!-- screened -->
<g id="node4" class="node">
<title>screened</title>
<polygon fill="#ffffff" stroke="#445a79" stroke-width="1.5" points="177.65,-216.64 26.62,-216.64 26.62,-180.64 177.65,-180.64 177.65,-216.64"/>
<text xml:space="preserve" text-anchor="middle" x="102.14" y="-199.79" font-family="Helvetica,sans-Serif" font-size="13.00">Title/Abstract Screened</text>
<text xml:space="preserve" text-anchor="middle" x="102.14" y="-186.29" font-family="Helvetica,sans-Serif" font-size="13.00">n = 30</text>
</g>
<!-- dupes&#45;&gt;screened -->
<g id="edge3" class="edge">
<title>dupes&#45;&gt;screened</title>
<path fill="none" stroke="#445a79" stroke-width="1.3" d="M102.14,-257.24C102.14,-247.94 102.14,-236.29 102.14,-225.91"/>
<polygon fill="#445a79" stroke="#445a79" stroke-width="1.3" points="104.59,-226.17 102.14,-219.17 99.69,-226.17 104.59,-226.17"/>
</g>
<!-- fulltext -->
<g id="node5" class="node">
<title>fulltext</title>
<polygon fill="#ffffff" stroke="#445a79" stroke-width="1.5" points="163.77,-126.32 40.5,-126.32 40.5,-90.32 163.77,-90.32 163.77,-126.32"/>
<text xml:space="preserve" text-anchor="middle" x="102.14" y="-109.47" font-family="Helvetica,sans-Serif" font-size="13.00">Full&#45;Text Assessed</text>
<text xml:space="preserve" text-anchor="middle" x="102.14" y="-95.97" font-family="Helvetica,sans-Serif" font-size="13.00">n = 30</text>
</g>
<!-- screened&#45;&gt;fulltext -->
<g id="edge4" class="edge">
<title>screened&#45;&gt;fulltext</title>
<path fill="none" stroke="#445a79" stroke-width="1.3" d="M102.14,-180.19C102.14,-167.57 102.14,-150.29 102.14,-135.95"/>
<polygon fill="#445a79" stroke="#445a79" stroke-width="1.3" points="104.59,-136 102.14,-129 99.69,-136 104.59,-136"/>
</g>
<!-- included -->
<g id="node6" class="node">
<title>included</title>
<polygon fill="#ffffff" stroke="#445a79" stroke-width="1.5" points="196.02,-36 8.25,-36 8.25,0 196.02,0 196.02,-36"/>
<text xml:space="preserve" text-anchor="middle" x="102.14" y="-19.15" font-family="Helvetica,sans-Serif" font-size="13.00">Studies Included in Synthesis</text>
<text xml:space="preserve" text-anchor="middle" x="102.14" y="-5.65" font-family="Helvetica,sans-Serif" font-size="13.00">n = 22</text>
</g>
<!-- fulltext&#45;&gt;included -->
<g id="edge5" class="edge">
<title>fulltext&#45;&gt;included</title>
<path fill="none" stroke="#445a79" stroke-width="1.3" d="M102.14,-89.87C102.14,-77.25 102.14,-59.97 102.14,-45.63"/>
<polygon fill="#445a79" stroke="#445a79" stroke-width="1.3" points="104.59,-45.68 102.14,-38.68 99.69,-45.68 104.59,-45.68"/>
</g>
<!-- excluded -->
<g id="node7" class="node">
<title>excluded</title>
<polygon fill="#ffffff" stroke="#445a79" stroke-width="1.5" points="405.27,-139.64 231,-139.64 231,-77 405.27,-77 405.27,-139.64"/>
<text xml:space="preserve" text-anchor="middle" x="318.13" y="-122.97" font-family="Helvetica,sans-Serif" font-size="13.00">Full&#45;Text Exclusions</text>
<text xml:space="preserve" text-anchor="middle" x="318.13" y="-109.47" font-family="Helvetica,sans-Serif" font-size="13.00">n = 8</text>
<text xml:space="preserve" text-anchor="middle" x="318.13" y="-95.97" font-family="Helvetica,sans-Serif" font-size="13.00">Out of scope / method fit</text>
<text xml:space="preserve" text-anchor="middle" x="318.13" y="-82.47" font-family="Helvetica,sans-Serif" font-size="13.00">Insufficient extraction detail</text>
</g>
<!-- fulltext&#45;&gt;excluded -->
<g id="edge6" class="edge">
<title>fulltext&#45;&gt;excluded</title>
<path fill="none" stroke="#445a79" stroke-width="1.3" d="M164.32,-108.32C182.15,-108.32 202.03,-108.32 221.42,-108.32"/>
<polygon fill="#445a79" stroke="#445a79" stroke-width="1.3" points="221.32,-110.77 228.32,-108.32 221.32,-105.87 221.32,-110.77"/>
<text xml:space="preserve" text-anchor="middle" x="197.38" y="-112.87" font-family="Helvetica,sans-Serif" font-size="11.00" fill="#162130">Excluded</text>
</g>
</g>
</svg>
