<?xml version="1.0" encoding="UTF-8" standalone="no"?>
<!DOCTYPE svg PUBLIC "-//W3C//DTD SVG 1.1//EN"
 "http://www.w3.org/Graphics/SVG/1.1/DTD/svg11.dtd">
<!-- Generated by graphviz version 14.1.2 (20260124.0452)
 -->
<!-- Title: G Pages: 1 -->
<svg width="326pt" height="458pt"
 viewBox="1.00 1.00 324.00 456.00" xmlns="http://www.w3.org/2000/svg" xmlns:xlink="http://www.w3.org/1999/xlink">
<g id="graph0" class="graph" transform="scale(1 1) rotate(0) translate(5.76 451.96)">
<title>G</title>
<polygon fill="#ffffff" stroke="none" points="-4.32,4.32 -4.32,-450.52 318.71,-450.52 318.71,4.32 -4.32,4.32"/>
<!-- seed -->
<g id="node1" class="node">
<title>seed</title>
<polygon fill="#ffffff" stroke="#445a79" stroke-width="1.5" points="154.14,-446.2 0,-446.2 0,-410.2 154.14,-410.2 154.14,-446.2"/>
<text xml:space="preserve" text-anchor="middle" x="77.07" y="-431.25" font-family="Times,serif" font-size="11.00">Seeded Corpus</text>
<text xml:space="preserve" text-anchor="middle" x="77.07" y="-417.75" font-family="Times,serif" font-size="11.00">(Pre&#45;Curated ToT+Agent Scope)</text>
</g>
<!-- records -->
<g id="node2" class="node">
<title>records</title>
<polygon fill="#ffffff" stroke="#445a79" stroke-width="1.5" points="122.64,-369.2 31.5,-369.2 31.5,-333.2 122.64,-333.2 122.64,-369.2"/>
<text xml:space="preserve" text-anchor="middle" x="77.07" y="-354.25" font-family="Times,serif" font-size="11.00">Records Identified</text>
<text xml:space="preserve" text-anchor="middle" x="77.07" y="-340.75" font-family="Times,serif" font-size="11.00">n = 30</text>
</g>
<!-- seed&#45;&gt;records -->
<g id="edge1" class="edge">
<title>seed&#45;&gt;records</title>
<path fill="none" stroke="#445a79" stroke-width="1.3" d="M77.07,-409.8C77.07,-400.5 77.07,-388.85 77.07,-378.47"/>
<polygon fill="#445a79" stroke="#445a79" stroke-width="1.3" points="79.52,-378.73 77.07,-371.73 74.62,-378.73 79.52,-378.73"/>
</g>
<!-- dupes -->
<g id="node3" class="node">
<title>dupes</title>
<polygon fill="#ffffff" stroke="#445a79" stroke-width="1.5" points="127.89,-292.2 26.25,-292.2 26.25,-256.2 127.89,-256.2 127.89,-292.2"/>
<text xml:space="preserve" text-anchor="middle" x="77.07" y="-277.25" font-family="Times,serif" font-size="11.00">Duplicates Removed</text>
<text xml:space="preserve" text-anchor="middle" x="77.07" y="-263.75" font-family="Times,serif" font-size="11.00">n = 0</text>
</g>
<!-- records&#45;&gt;dupes -->
<g id="edge2" class="edge">
<title>records&#45;&gt;dupes</title>
<path fill="none" stroke="#445a79" stroke-width="1.3" d="M77.07,-332.8C77.07,-323.5 77.07,-311.85 77.07,-301.47"/>
<polygon fill="#445a79" stroke="#445a79" stroke-width="1.3" points="79.52,-301.73 77.07,-294.73 74.62,-301.73 79.52,-301.73"/>
</g>
<!-- screened -->
<g id="node4" class="node">
<title>screened</title>
<polygon fill="#ffffff" stroke="#445a79" stroke-width="1.5" points="134.64,-215.2 19.5,-215.2 19.5,-179.2 134.64,-179.2 134.64,-215.2"/>
<text xml:space="preserve" text-anchor="middle" x="77.07" y="-200.25" font-family="Times,serif" font-size="11.00">Title/Abstract Screened</text>
<text xml:space="preserve" text-anchor="middle" x="77.07" y="-186.75" font-family="Times,serif" font-size="11.00">n = 30</text>
</g>
<!-- dupes&#45;&gt;screened -->
<g id="edge3" class="edge">
<title>dupes&#45;&gt;screened</title>
<path fill="none" stroke="#445a79" stroke-width="1.3" d="M77.07,-255.8C77.07,-246.5 77.07,-234.85 77.07,-224.47"/>
<polygon fill="#445a79" stroke="#445a79" stroke-width="1.3" points="79.52,-224.73 77.07,-217.73 74.62,-224.73 79.52,-224.73"/>
</g>
<!-- fulltext -->
<g id="node5" class="node">
<title>fulltext</title>
<polygon fill="#ffffff" stroke="#445a79" stroke-width="1.5" points="123.01,-125.6 31.12,-125.6 31.12,-89.6 123.01,-89.6 123.01,-125.6"/>
<text xml:space="preserve" text-anchor="middle" x="77.07" y="-110.65" font-family="Times,serif" font-size="11.00">Full&#45;Text Assessed</text>
<text xml:space="preserve" text-anchor="middle" x="77.07" y="-97.15" font-family="Times,serif" font-size="11.00">n = 30</text>
</g>
<!-- screened&#45;&gt;fulltext -->
<g id="edge4" class="edge">
<title>screened&#45;&gt;fulltext</title>
<path fill="none" stroke="#445a79" stroke-width="1.3" d="M77.07,-178.47C77.07,-166.01 77.07,-149.11 77.07,-135.05"/>
<polygon fill="#445a79" stroke="#445a79" stroke-width="1.3" points="79.52,-135.27 77.07,-128.27 74.62,-135.27 79.52,-135.27"/>
</g>
<!-- included -->
<g id="node6" class="node">
<title>included</title>
<polygon fill="#ffffff" stroke="#445a79" stroke-width="1.5" points="146.26,-36 7.88,-36 7.88,0 146.26,0 146.26,-36"/>
<text xml:space="preserve" text-anchor="middle" x="77.07" y="-21.05" font-family="Times,serif" font-size="11.00">Studies Included in Synthesis</text>
<text xml:space="preserve" text-anchor="middle" x="77.07" y="-7.55" font-family="Times,serif" font-size="11.00">n = 22</text>
</g>
<!-- fulltext&#45;&gt;included -->
<g id="edge5" class="edge">
<title>fulltext&#45;&gt;included</title>
<path fill="none" stroke="#445a79" stroke-width="1.3" d="M77.07,-88.87C77.07,-76.41 77.07,-59.51 77.07,-45.45"/>
<polygon fill="#445a79" stroke="#445a79" stroke-width="1.3" points="79.52,-45.67 77.07,-38.67 74.62,-45.67 79.52,-45.67"/>
</g>
<!-- excluded -->
<g id="node7" class="node">
<title>excluded</title>
<polygon fill="#ffffff" stroke="#445a79" stroke-width="1.5" points="314.39,-138.2 179.75,-138.2 179.75,-77 314.39,-77 314.39,-138.2"/>
<text xml:space="preserve" text-anchor="middle" x="247.07" y="-124.15" font-family="Times,serif" font-size="11.00">Full&#45;Text Exclusions</text>
<text xml:space="preserve" text-anchor="middle" x="247.07" y="-110.65" font-family="Times,serif" font-size="11.00">n = 8</text>
<text xml:space="preserve" text-anchor="middle" x="247.07" y="-97.15" font-family="Times,serif" font-size="11.00">Out of scope / method fit</text>
<text xml:space="preserve" text-anchor="middle" x="247.07" y="-83.65" font-family="Times,serif" font-size="11.00">Insufficient extraction detail</text>
</g>
<!-- fulltext&#45;&gt;excluded -->
<g id="edge6" class="edge">
<title>fulltext&#45;&gt;excluded</title>
<path fill="none" stroke="#445a79" stroke-width="1.3" d="M123.52,-107.6C138.04,-107.6 154.46,-107.6 170.47,-107.6"/>
<polygon fill="#445a79" stroke="#445a79" stroke-width="1.3" points="170.35,-110.05 177.35,-107.6 170.35,-105.15 170.35,-110.05"/>
<text xml:space="preserve" text-anchor="middle" x="151.38" y="-112.55" font-family="Times,serif" font-size="9.00" fill="#162130">Excluded</text>
</g>
</g>
</svg>
