<?xml version="1.0" encoding="UTF-8" standalone="no"?>
<!DOCTYPE svg PUBLIC "-//W3C//DTD SVG 1.1//EN"
 "http://www.w3.org/Graphics/SVG/1.1/DTD/svg11.dtd">
<!-- Generated by graphviz version 14.1.2 (20260124.0452)
 -->
<!-- Title: G Pages: 1 -->
<svg width="313pt" height="561pt"
 viewBox="1.00 1.00 311.00 560.00" xmlns="http://www.w3.org/2000/svg" xmlns:xlink="http://www.w3.org/1999/xlink">
<g id="graph0" class="graph" transform="scale(1 1) rotate(0) translate(5.76 555.28)">
<title>G</title>
<polygon fill="#ffffff" stroke="none" points="-4.32,4.32 -4.32,-553.84 305.59,-553.84 305.59,4.32 -4.32,4.32"/>
<!-- input -->
<g id="node1" class="node">
<title>input</title>
<polygon fill="#ffffff" stroke="#445a79" stroke-width="1.5" points="112.4,-549.52 40.13,-549.52 40.13,-513.52 112.4,-513.52 112.4,-549.52"/>
<text xml:space="preserve" text-anchor="middle" x="76.26" y="-525.92" font-family="Helvetica,sans-Serif" font-size="13.00">Input Task</text>
</g>
<!-- init -->
<g id="node2" class="node">
<title>init</title>
<polygon fill="#ffffff" stroke="#445a79" stroke-width="1.5" points="124.02,-472.52 28.5,-472.52 28.5,-436.52 124.02,-436.52 124.02,-472.52"/>
<text xml:space="preserve" text-anchor="middle" x="76.26" y="-448.92" font-family="Helvetica,sans-Serif" font-size="13.00">Initialize State</text>
</g>
<!-- input&#45;&gt;init -->
<g id="edge1" class="edge">
<title>input&#45;&gt;init</title>
<path fill="none" stroke="#445a79" stroke-width="1.3" d="M76.26,-513.12C76.26,-503.82 76.26,-492.17 76.26,-481.79"/>
<polygon fill="#445a79" stroke="#445a79" stroke-width="1.3" points="78.71,-482.05 76.26,-475.05 73.81,-482.05 78.71,-482.05"/>
</g>
<!-- plan -->
<g id="node3" class="node">
<title>plan</title>
<polygon fill="#ffffff" stroke="#445a79" stroke-width="1.5" points="152.52,-395.52 0,-395.52 0,-359.52 152.52,-359.52 152.52,-395.52"/>
<text xml:space="preserve" text-anchor="middle" x="76.26" y="-371.92" font-family="Helvetica,sans-Serif" font-size="13.00">Generate / Update Plan</text>
</g>
<!-- init&#45;&gt;plan -->
<g id="edge2" class="edge">
<title>init&#45;&gt;plan</title>
<path fill="none" stroke="#445a79" stroke-width="1.3" d="M76.26,-436.12C76.26,-426.82 76.26,-415.17 76.26,-404.79"/>
<polygon fill="#445a79" stroke="#445a79" stroke-width="1.3" points="78.71,-405.05 76.26,-398.05 73.81,-405.05 78.71,-405.05"/>
</g>
<!-- step -->
<g id="node4" class="node">
<title>step</title>
<polygon fill="#ffffff" stroke="#445a79" stroke-width="1.5" points="137.9,-318.52 14.63,-318.52 14.63,-282.52 137.9,-282.52 137.9,-318.52"/>
<text xml:space="preserve" text-anchor="middle" x="76.26" y="-294.92" font-family="Helvetica,sans-Serif" font-size="13.00">Execute Next Step</text>
</g>
<!-- plan&#45;&gt;step -->
<g id="edge3" class="edge">
<title>plan&#45;&gt;step</title>
<path fill="none" stroke="#445a79" stroke-width="1.3" d="M76.26,-359.12C76.26,-349.82 76.26,-338.17 76.26,-327.79"/>
<polygon fill="#445a79" stroke="#445a79" stroke-width="1.3" points="78.71,-328.05 76.26,-321.05 73.81,-328.05 78.71,-328.05"/>
</g>
<!-- observe -->
<g id="node5" class="node">
<title>observe</title>
<polygon fill="#ffffff" stroke="#445a79" stroke-width="1.5" points="140.52,-230.52 12,-230.52 12,-194.52 140.52,-194.52 140.52,-230.52"/>
<text xml:space="preserve" text-anchor="middle" x="76.26" y="-206.92" font-family="Helvetica,sans-Serif" font-size="13.00">Collect Observation</text>
</g>
<!-- step&#45;&gt;observe -->
<g id="edge4" class="edge">
<title>step&#45;&gt;observe</title>
<path fill="none" stroke="#445a79" stroke-width="1.3" d="M76.26,-282.12C76.26,-270.07 76.26,-253.82 76.26,-240.15"/>
<polygon fill="#445a79" stroke="#445a79" stroke-width="1.3" points="78.71,-240.16 76.26,-233.16 73.81,-240.16 78.71,-240.16"/>
</g>
<!-- goal -->
<g id="node6" class="node">
<title>goal</title>
<polygon fill="#ffffff" stroke="#445a79" stroke-width="1.5" points="76.26,-153.52 11.25,-120.76 76.26,-88 141.27,-120.76 76.26,-153.52"/>
<text xml:space="preserve" text-anchor="middle" x="76.26" y="-121.91" font-family="Helvetica,sans-Serif" font-size="13.00">Goal</text>
<text xml:space="preserve" text-anchor="middle" x="76.26" y="-108.41" font-family="Helvetica,sans-Serif" font-size="13.00">Satisfied?</text>
</g>
<!-- observe&#45;&gt;goal -->
<g id="edge5" class="edge">
<title>observe&#45;&gt;goal</title>
<path fill="none" stroke="#445a79" stroke-width="1.3" d="M76.26,-193.79C76.26,-185 76.26,-174 76.26,-163.26"/>
<polygon fill="#445a79" stroke="#445a79" stroke-width="1.3" points="78.71,-163.32 76.26,-156.32 73.81,-163.32 78.71,-163.32"/>
</g>
<!-- replan -->
<g id="node7" class="node">
<title>replan</title>
<polygon fill="#ffffff" stroke="#445a79" stroke-width="1.5" points="245.26,-153.52 189.25,-120.76 245.26,-88 301.27,-120.76 245.26,-153.52"/>
<text xml:space="preserve" text-anchor="middle" x="245.26" y="-121.91" font-family="Helvetica,sans-Serif" font-size="13.00">Need</text>
<text xml:space="preserve" text-anchor="middle" x="245.26" y="-108.41" font-family="Helvetica,sans-Serif" font-size="13.00">Replan?</text>
</g>
<!-- goal&#45;&gt;replan -->
<g id="edge7" class="edge">
<title>goal&#45;&gt;replan</title>
<path fill="none" stroke="#445a79" stroke-width="1.3" d="M142.57,-120.76C154.62,-120.76 167.2,-120.76 179.24,-120.76"/>
<polygon fill="#445a79" stroke="#445a79" stroke-width="1.3" points="178.94,-123.21 185.94,-120.76 178.94,-118.31 178.94,-123.21"/>
<text xml:space="preserve" text-anchor="middle" x="165.26" y="-125.31" font-family="Helvetica,sans-Serif" font-size="11.00" fill="#162130">No</text>
</g>
<!-- out -->
<g id="node8" class="node">
<title>out</title>
<polygon fill="#ffffff" stroke="#445a79" stroke-width="1.5" points="151.02,-36 1.5,-36 1.5,0 151.02,0 151.02,-36"/>
<text xml:space="preserve" text-anchor="middle" x="76.26" y="-12.4" font-family="Helvetica,sans-Serif" font-size="13.00">Return Final Response</text>
</g>
<!-- goal&#45;&gt;out -->
<g id="edge6" class="edge">
<title>goal&#45;&gt;out</title>
<path fill="none" stroke="#445a79" stroke-width="1.3" d="M76.26,-87.32C76.26,-73.81 76.26,-58.31 76.26,-45.49"/>
<polygon fill="#445a79" stroke="#445a79" stroke-width="1.3" points="78.71,-45.67 76.26,-38.67 73.81,-45.67 78.71,-45.67"/>
<text xml:space="preserve" text-anchor="middle" x="84.89" y="-57.55" font-family="Helvetica,sans-Serif" font-size="11.00" fill="#162130">Yes</text>
</g>
<!-- replan&#45;&gt;plan -->
<g id="edge8" class="edge">
<title>replan&#45;&gt;plan</title>
<path fill="none" stroke="#445a79" stroke-width="1.3" d="M233.54,-147.26C218.76,-179.41 195.26,-230.52 195.26,-230.52 195.26,-230.52 150.26,-318.52 150.26,-318.52 150.26,-318.52 126.34,-337.27 105.7,-353.45"/>
<polygon fill="#445a79" stroke="#445a79" stroke-width="1.3" points="104.41,-351.34 100.41,-357.59 107.43,-355.2 104.41,-351.34"/>
<text xml:space="preserve" text-anchor="middle" x="193.28" y="-252.07" font-family="Helvetica,sans-Serif" font-size="11.00" fill="#162130">Yes</text>
</g>
<!-- replan&#45;&gt;step -->
<g id="edge9" class="edge">
<title>replan&#45;&gt;step</title>
<path fill="none" stroke="#445a79" stroke-width="1.3" d="M223.77,-141.62C207.98,-156.22 189.26,-173.52 189.26,-173.52 189.26,-173.52 152.26,-230.52 152.26,-230.52 152.26,-230.52 124.08,-256.1 102.04,-276.11"/>
<polygon fill="#445a79" stroke="#445a79" stroke-width="1.3" points="100.43,-274.27 96.89,-280.79 103.72,-277.89 100.43,-274.27"/>
<text xml:space="preserve" text-anchor="middle" x="182.17" y="-208.07" font-family="Helvetica,sans-Serif" font-size="11.00" fill="#162130">No</text>
</g>
</g>
</svg>
