<?xml version="1.0" encoding="UTF-8" standalone="no"?>
<!DOCTYPE svg PUBLIC "-//W3C//DTD SVG 1.1//EN"
 "http://www.w3.org/Graphics/SVG/1.1/DTD/svg11.dtd">
<!-- Generated by graphviz version 14.1.2 (20260124.0452)
 -->
<!-- Title: G Pages: 1 -->
<svg width="316pt" height="449pt"
 viewBox="1.00 1.00 315.00 447.00" xmlns="http://www.w3.org/2000/svg" xmlns:xlink="http://www.w3.org/1999/xlink">
<g id="graph0" class="graph" transform="scale(1 1) rotate(0) translate(5.76 442.96)">
<title>G</title>
<polygon fill="#ffffff" stroke="none" points="-4.32,4.32 -4.32,-441.52 309.08,-441.52 309.08,4.32 -4.32,4.32"/>
<!-- seed -->
<g id="node1" class="node">
<title>seed</title>
<polygon fill="#ffffff" stroke="#445a79" stroke-width="1.5" points="148.89,-437.2 0,-437.2 0,-401.2 148.89,-401.2 148.89,-437.2"/>
<text xml:space="preserve" text-anchor="middle" x="74.44" y="-420.95" font-family="Latin Modern Roman" font-size="10.00">Seeded Corpus</text>
<text xml:space="preserve" text-anchor="middle" x="74.44" y="-409.7" font-family="Latin Modern Roman" font-size="10.00">(Pre&#45;Curated ToT+Agent Scope)</text>
</g>
<!-- records -->
<g id="node2" class="node">
<title>records</title>
<polygon fill="#ffffff" stroke="#445a79" stroke-width="1.5" points="118.51,-360.2 30.37,-360.2 30.37,-324.2 118.51,-324.2 118.51,-360.2"/>
<text xml:space="preserve" text-anchor="middle" x="74.44" y="-343.95" font-family="Latin Modern Roman" font-size="10.00">Records Identified</text>
<text xml:space="preserve" text-anchor="middle" x="74.44" y="-332.7" font-family="Latin Modern Roman" font-size="10.00">n = 30</text>
</g>
<!-- seed&#45;&gt;records -->
<g id="edge1" class="edge">
<title>seed&#45;&gt;records</title>
<path fill="none" stroke="#445a79" stroke-width="1.3" d="M74.44,-400.8C74.44,-391.5 74.44,-379.85 74.44,-369.47"/>
<polygon fill="#445a79" stroke="#445a79" stroke-width="1.3" points="76.9,-369.73 74.45,-362.73 72,-369.73 76.9,-369.73"/>
</g>
<!-- dupes -->
<g id="node3" class="node">
<title>dupes</title>
<polygon fill="#ffffff" stroke="#445a79" stroke-width="1.5" points="124.51,-283.2 24.37,-283.2 24.37,-247.2 124.51,-247.2 124.51,-283.2"/>
<text xml:space="preserve" text-anchor="middle" x="74.44" y="-266.95" font-family="Latin Modern Roman" font-size="10.00">Duplicates Removed</text>
<text xml:space="preserve" text-anchor="middle" x="74.44" y="-255.7" font-family="Latin Modern Roman" font-size="10.00">n = 0</text>
</g>
<!-- records&#45;&gt;dupes -->
<g id="edge2" class="edge">
<title>records&#45;&gt;dupes</title>
<path fill="none" stroke="#445a79" stroke-width="1.3" d="M74.44,-323.8C74.44,-314.5 74.44,-302.85 74.44,-292.47"/>
<polygon fill="#445a79" stroke="#445a79" stroke-width="1.3" points="76.9,-292.73 74.45,-285.73 72,-292.73 76.9,-292.73"/>
</g>
<!-- screened -->
<g id="node4" class="node">
<title>screened</title>
<polygon fill="#ffffff" stroke="#445a79" stroke-width="1.5" points="130.14,-206.2 18.75,-206.2 18.75,-170.2 130.14,-170.2 130.14,-206.2"/>
<text xml:space="preserve" text-anchor="middle" x="74.44" y="-189.95" font-family="Latin Modern Roman" font-size="10.00">Title/Abstract Screened</text>
<text xml:space="preserve" text-anchor="middle" x="74.44" y="-178.7" font-family="Latin Modern Roman" font-size="10.00">n = 30</text>
</g>
<!-- dupes&#45;&gt;screened -->
<g id="edge3" class="edge">
<title>dupes&#45;&gt;screened</title>
<path fill="none" stroke="#445a79" stroke-width="1.3" d="M74.44,-246.8C74.44,-237.5 74.44,-225.85 74.44,-215.47"/>
<polygon fill="#445a79" stroke="#445a79" stroke-width="1.3" points="76.9,-215.73 74.45,-208.73 72,-215.73 76.9,-215.73"/>
</g>
<!-- fulltext -->
<g id="node5" class="node">
<title>fulltext</title>
<polygon fill="#ffffff" stroke="#445a79" stroke-width="1.5" points="120.39,-121.1 28.5,-121.1 28.5,-85.1 120.39,-85.1 120.39,-121.1"/>
<text xml:space="preserve" text-anchor="middle" x="74.44" y="-104.85" font-family="Latin Modern Roman" font-size="10.00">Full&#45;Text Assessed</text>
<text xml:space="preserve" text-anchor="middle" x="74.44" y="-93.6" font-family="Latin Modern Roman" font-size="10.00">n = 30</text>
</g>
<!-- screened&#45;&gt;fulltext -->
<g id="edge4" class="edge">
<title>screened&#45;&gt;fulltext</title>
<path fill="none" stroke="#445a79" stroke-width="1.3" d="M74.44,-169.58C74.44,-158.23 74.44,-143.27 74.44,-130.51"/>
<polygon fill="#445a79" stroke="#445a79" stroke-width="1.3" points="76.9,-130.67 74.45,-123.67 72,-130.67 76.9,-130.67"/>
</g>
<!-- included -->
<g id="node6" class="node">
<title>included</title>
<polygon fill="#ffffff" stroke="#445a79" stroke-width="1.5" points="143.64,-36 5.25,-36 5.25,0 143.64,0 143.64,-36"/>
<text xml:space="preserve" text-anchor="middle" x="74.44" y="-19.75" font-family="Latin Modern Roman" font-size="10.00">Studies Included in Synthesis</text>
<text xml:space="preserve" text-anchor="middle" x="74.44" y="-8.5" font-family="Latin Modern Roman" font-size="10.00">n = 22</text>
</g>
<!-- fulltext&#45;&gt;included -->
<g id="edge5" class="edge">
<title>fulltext&#45;&gt;included</title>
<path fill="none" stroke="#445a79" stroke-width="1.3" d="M74.44,-84.48C74.44,-73.13 74.44,-58.17 74.44,-45.41"/>
<polygon fill="#445a79" stroke="#445a79" stroke-width="1.3" points="76.9,-45.57 74.45,-38.57 72,-45.57 76.9,-45.57"/>
</g>
<!-- excluded -->
<g id="node7" class="node">
<title>excluded</title>
<polygon fill="#ffffff" stroke="#445a79" stroke-width="1.5" points="304.76,-129.2 176.12,-129.2 176.12,-77 304.76,-77 304.76,-129.2"/>
<text xml:space="preserve" text-anchor="middle" x="240.44" y="-116.1" font-family="Latin Modern Roman" font-size="10.00">Full&#45;Text Exclusions</text>
<text xml:space="preserve" text-anchor="middle" x="240.44" y="-104.85" font-family="Latin Modern Roman" font-size="10.00">n = 8</text>
<text xml:space="preserve" text-anchor="middle" x="240.44" y="-93.6" font-family="Latin Modern Roman" font-size="10.00">Out of scope / method fit</text>
<text xml:space="preserve" text-anchor="middle" x="240.44" y="-82.35" font-family="Latin Modern Roman" font-size="10.00">Insufficient extraction detail</text>
</g>
<!-- fulltext&#45;&gt;excluded -->
<g id="edge6" class="edge">
<title>fulltext&#45;&gt;excluded</title>
<path fill="none" stroke="#445a79" stroke-width="1.3" d="M121.13,-103.1C135.37,-103.1 151.38,-103.1 166.95,-103.1"/>
<polygon fill="#445a79" stroke="#445a79" stroke-width="1.3" points="166.57,-105.55 173.57,-103.1 166.57,-100.65 166.57,-105.55"/>
<text xml:space="preserve" text-anchor="middle" x="148.26" y="-107.5" font-family="Latin Modern Roman" font-size="8.00" fill="#162130">Excluded</text>
</g>
</g>
</svg>
