<?xml version="1.0" encoding="UTF-8" standalone="no"?>
<!DOCTYPE svg PUBLIC "-//W3C//DTD SVG 1.1//EN"
 "http://www.w3.org/Graphics/SVG/1.1/DTD/svg11.dtd">
<!-- Generated by graphviz version 14.1.2 (20260124.0452)
 -->
<!-- Title: G Pages: 1 -->
<svg width="824pt" height="640pt"
 viewBox="11.00 11.00 813.00 629.00" xmlns="http://www.w3.org/2000/svg" xmlns:xlink="http://www.w3.org/1999/xlink">
<g id="graph0" class="graph" transform="scale(1 1) rotate(0) translate(36 604.25)">
<title>G</title>
<polygon fill="#ffffff" stroke="none" points="-25.2,25.2 -25.2,-593.45 776.99,-593.45 776.99,25.2 -25.2,25.2"/>
<text xml:space="preserve" text-anchor="middle" x="375.89" y="-533.85" font-family="Helvetica,sans-Serif" font-size="32.00" fill="#14181f">Survey Method Flow (Frozen Run)</text>
<!-- seed -->
<g id="node1" class="node">
<title>seed</title>
<path fill="#f8fbff" stroke="#4f6485" stroke-width="2" d="M296.16,-528C296.16,-528 12,-528 12,-528 6,-528 0,-522 0,-516 0,-516 0,-483.6 0,-483.6 0,-477.6 6,-471.6 12,-471.6 12,-471.6 296.16,-471.6 296.16,-471.6 302.16,-471.6 308.16,-477.6 308.16,-483.6 308.16,-483.6 308.16,-516 308.16,-516 308.16,-522 302.16,-528 296.16,-528"/>
<text xml:space="preserve" text-anchor="middle" x="154.08" y="-501.8" font-family="Helvetica,sans-Serif" font-size="20.00">Seeded Corpus</text>
<text xml:space="preserve" text-anchor="middle" x="154.08" y="-480.8" font-family="Helvetica,sans-Serif" font-size="20.00">(Pre&#45;Curated ToT+Agent Scope)</text>
</g>
<!-- records -->
<g id="node2" class="node">
<title>records</title>
<path fill="#f8fbff" stroke="#4f6485" stroke-width="2" d="M367.41,-420.6C367.41,-420.6 210.75,-420.6 210.75,-420.6 204.75,-420.6 198.75,-414.6 198.75,-408.6 198.75,-408.6 198.75,-376.2 198.75,-376.2 198.75,-370.2 204.75,-364.2 210.75,-364.2 210.75,-364.2 367.41,-364.2 367.41,-364.2 373.41,-364.2 379.41,-370.2 379.41,-376.2 379.41,-376.2 379.41,-408.6 379.41,-408.6 379.41,-414.6 373.41,-420.6 367.41,-420.6"/>
<text xml:space="preserve" text-anchor="middle" x="289.08" y="-394.4" font-family="Helvetica,sans-Serif" font-size="20.00">Records Identified</text>
<text xml:space="preserve" text-anchor="middle" x="289.08" y="-373.4" font-family="Helvetica,sans-Serif" font-size="20.00">n = 30</text>
</g>
<!-- seed&#45;&gt;records -->
<g id="edge1" class="edge">
<title>seed&#45;&gt;records</title>
<path fill="none" stroke="#5f7390" stroke-width="1.8" d="M189.9,-470.83C206.84,-457.61 227.21,-441.7 245.08,-427.75"/>
<polygon fill="#5f7390" stroke="#5f7390" stroke-width="1.8" points="246.36,-430.31 250.94,-423.18 242.91,-425.89 246.36,-430.31"/>
</g>
<!-- screened -->
<g id="node3" class="node">
<title>screened</title>
<path fill="#f8fbff" stroke="#4f6485" stroke-width="2" d="M390.29,-313.2C390.29,-313.2 187.88,-313.2 187.88,-313.2 181.88,-313.2 175.88,-307.2 175.88,-301.2 175.88,-301.2 175.88,-268.8 175.88,-268.8 175.88,-262.8 181.88,-256.8 187.88,-256.8 187.88,-256.8 390.29,-256.8 390.29,-256.8 396.29,-256.8 402.29,-262.8 402.29,-268.8 402.29,-268.8 402.29,-301.2 402.29,-301.2 402.29,-307.2 396.29,-313.2 390.29,-313.2"/>
<text xml:space="preserve" text-anchor="middle" x="289.08" y="-287" font-family="Helvetica,sans-Serif" font-size="20.00">Title/Abstract Screened</text>
<text xml:space="preserve" text-anchor="middle" x="289.08" y="-266" font-family="Helvetica,sans-Serif" font-size="20.00">n = 30</text>
</g>
<!-- records&#45;&gt;screened -->
<g id="edge2" class="edge">
<title>records&#45;&gt;screened</title>
<path fill="none" stroke="#5f7390" stroke-width="1.8" d="M289.08,-363.43C289.08,-351.52 289.08,-337.43 289.08,-324.55"/>
<polygon fill="#5f7390" stroke="#5f7390" stroke-width="1.8" points="291.88,-324.82 289.08,-316.82 286.28,-324.82 291.88,-324.82"/>
</g>
<!-- fulltext -->
<g id="node4" class="node">
<title>fulltext</title>
<path fill="#f8fbff" stroke="#4f6485" stroke-width="2" d="M370.04,-184.8C370.04,-184.8 208.13,-184.8 208.13,-184.8 202.13,-184.8 196.13,-178.8 196.13,-172.8 196.13,-172.8 196.13,-140.4 196.13,-140.4 196.13,-134.4 202.13,-128.4 208.13,-128.4 208.13,-128.4 370.04,-128.4 370.04,-128.4 376.04,-128.4 382.04,-134.4 382.04,-140.4 382.04,-140.4 382.04,-172.8 382.04,-172.8 382.04,-178.8 376.04,-184.8 370.04,-184.8"/>
<text xml:space="preserve" text-anchor="middle" x="289.08" y="-158.6" font-family="Helvetica,sans-Serif" font-size="20.00">Full&#45;Text Assessed</text>
<text xml:space="preserve" text-anchor="middle" x="289.08" y="-137.6" font-family="Helvetica,sans-Serif" font-size="20.00">n = 30</text>
</g>
<!-- screened&#45;&gt;fulltext -->
<g id="edge3" class="edge">
<title>screened&#45;&gt;fulltext</title>
<path fill="none" stroke="#5f7390" stroke-width="1.8" d="M289.08,-255.95C289.08,-238.36 289.08,-215.44 289.08,-196.15"/>
<polygon fill="#5f7390" stroke="#5f7390" stroke-width="1.8" points="291.88,-196.3 289.08,-188.3 286.28,-196.3 291.88,-196.3"/>
</g>
<!-- included -->
<g id="node5" class="node">
<title>included</title>
<path fill="#f8fbff" stroke="#4f6485" stroke-width="2" d="M417.29,-56.4C417.29,-56.4 160.88,-56.4 160.88,-56.4 154.88,-56.4 148.88,-50.4 148.88,-44.4 148.88,-44.4 148.88,-12 148.88,-12 148.88,-6 154.88,0 160.88,0 160.88,0 417.29,0 417.29,0 423.29,0 429.29,-6 429.29,-12 429.29,-12 429.29,-44.4 429.29,-44.4 429.29,-50.4 423.29,-56.4 417.29,-56.4"/>
<text xml:space="preserve" text-anchor="middle" x="289.08" y="-30.2" font-family="Helvetica,sans-Serif" font-size="20.00">Studies Included in Synthesis</text>
<text xml:space="preserve" text-anchor="middle" x="289.08" y="-9.2" font-family="Helvetica,sans-Serif" font-size="20.00">n = 22</text>
</g>
<!-- fulltext&#45;&gt;included -->
<g id="edge4" class="edge">
<title>fulltext&#45;&gt;included</title>
<path fill="none" stroke="#5f7390" stroke-width="1.8" d="M289.08,-127.55C289.08,-109.96 289.08,-87.04 289.08,-67.75"/>
<polygon fill="#5f7390" stroke="#5f7390" stroke-width="1.8" points="291.88,-67.9 289.08,-59.9 286.28,-67.9 291.88,-67.9"/>
</g>
<!-- excl -->
<g id="node6" class="node">
<title>excl</title>
<path fill="#f8fbff" stroke="#4f6485" stroke-width="2" d="M739.79,-205.8C739.79,-205.8 492.38,-205.8 492.38,-205.8 486.38,-205.8 480.38,-199.8 480.38,-193.8 480.38,-193.8 480.38,-119.4 480.38,-119.4 480.38,-113.4 486.38,-107.4 492.38,-107.4 492.38,-107.4 739.79,-107.4 739.79,-107.4 745.79,-107.4 751.79,-113.4 751.79,-119.4 751.79,-119.4 751.79,-193.8 751.79,-193.8 751.79,-199.8 745.79,-205.8 739.79,-205.8"/>
<text xml:space="preserve" text-anchor="middle" x="616.08" y="-179.6" font-family="Helvetica,sans-Serif" font-size="20.00">Full&#45;Text Exclusions</text>
<text xml:space="preserve" text-anchor="middle" x="616.08" y="-158.6" font-family="Helvetica,sans-Serif" font-size="20.00">n = 8</text>
<text xml:space="preserve" text-anchor="middle" x="616.08" y="-137.6" font-family="Helvetica,sans-Serif" font-size="20.00">&#45; Out of scope / method fit</text>
<text xml:space="preserve" text-anchor="middle" x="616.08" y="-116.6" font-family="Helvetica,sans-Serif" font-size="20.00">&#45; Insufficient extraction detail</text>
</g>
<!-- fulltext&#45;&gt;excl -->
<g id="edge5" class="edge">
<title>fulltext&#45;&gt;excl</title>
<path fill="none" stroke="#5f7390" stroke-width="1.8" d="M382.79,-156.6C409.59,-156.6 439.49,-156.6 468.69,-156.6"/>
<polygon fill="#5f7390" stroke="#5f7390" stroke-width="1.8" points="468.68,-159.4 476.68,-156.6 468.68,-153.8 468.68,-159.4"/>
<text xml:space="preserve" text-anchor="middle" x="431.21" y="-161.1" font-family="Helvetica,sans-Serif" font-size="15.00">excluded</text>
</g>
<!-- dup -->
<g id="node7" class="node">
<title>dup</title>
<polygon fill="#eef3f9" stroke="#9aa9be" stroke-width="2" points="495.54,-517.8 348.63,-517.8 348.63,-481.8 501.54,-481.8 501.54,-511.8 495.54,-517.8"/>
<polyline fill="none" stroke="#9aa9be" stroke-width="2" points="495.54,-517.8 495.54,-511.8"/>
<polyline fill="none" stroke="#9aa9be" stroke-width="2" points="501.54,-511.8 495.54,-511.8"/>
<text xml:space="preserve" text-anchor="middle" x="425.08" y="-494" font-family="Helvetica,sans-Serif" font-size="14.00">duplicates removed: 0</text>
</g>
<!-- dup&#45;&gt;records -->
<g id="edge6" class="edge">
<title>dup&#45;&gt;records</title>
<path fill="none" stroke="#5f7390" stroke-width="1.8" stroke-dasharray="5,2" d="M402.01,-480.92C381.02,-464.65 349.69,-440.37 325.35,-421.51"/>
</g>
</g>
</svg>
