<?xml version="1.0" encoding="UTF-8" standalone="no"?>
<!DOCTYPE svg PUBLIC "-//W3C//DTD SVG 1.1//EN"
 "http://www.w3.org/Graphics/SVG/1.1/DTD/svg11.dtd">
<!-- Generated by graphviz version 14.1.2 (20260124.0452)
 -->
<!-- Title: G Pages: 1 -->
<svg width="240pt" height="532pt"
 viewBox="1.00 1.00 239.00 530.00" xmlns="http://www.w3.org/2000/svg" xmlns:xlink="http://www.w3.org/1999/xlink">
<g id="graph0" class="graph" transform="scale(1 1) rotate(0) translate(5.76 525.76)">
<title>G</title>
<polygon fill="#ffffff" stroke="none" points="-4.32,4.32 -4.32,-524.32 232.78,-524.32 232.78,4.32 -4.32,4.32"/>
<!-- input -->
<g id="node1" class="node">
<title>input</title>
<polygon fill="#ffffff" stroke="#445a79" stroke-width="1.5" points="80.76,-520 26.76,-520 26.76,-484 80.76,-484 80.76,-520"/>
<text xml:space="preserve" text-anchor="middle" x="53.76" y="-498.32" font-family="Helvetica,sans-Serif" font-size="9.00">Input Task</text>
</g>
<!-- init -->
<g id="node2" class="node">
<title>init</title>
<polygon fill="#ffffff" stroke="#445a79" stroke-width="1.5" points="88.02,-443 19.5,-443 19.5,-407 88.02,-407 88.02,-443"/>
<text xml:space="preserve" text-anchor="middle" x="53.76" y="-421.32" font-family="Helvetica,sans-Serif" font-size="9.00">Initialize State</text>
</g>
<!-- input&#45;&gt;init -->
<g id="edge1" class="edge">
<title>input&#45;&gt;init</title>
<path fill="none" stroke="#445a79" stroke-width="1.3" d="M53.76,-483.6C53.76,-474.3 53.76,-462.65 53.76,-452.27"/>
<polygon fill="#445a79" stroke="#445a79" stroke-width="1.3" points="56.21,-452.53 53.76,-445.53 51.31,-452.53 56.21,-452.53"/>
</g>
<!-- plan -->
<g id="node3" class="node">
<title>plan</title>
<polygon fill="#ffffff" stroke="#445a79" stroke-width="1.5" points="107.52,-366 0,-366 0,-330 107.52,-330 107.52,-366"/>
<text xml:space="preserve" text-anchor="middle" x="53.76" y="-344.32" font-family="Helvetica,sans-Serif" font-size="9.00">Generate / Update Plan</text>
</g>
<!-- init&#45;&gt;plan -->
<g id="edge2" class="edge">
<title>init&#45;&gt;plan</title>
<path fill="none" stroke="#445a79" stroke-width="1.3" d="M53.76,-406.6C53.76,-397.3 53.76,-385.65 53.76,-375.27"/>
<polygon fill="#445a79" stroke="#445a79" stroke-width="1.3" points="56.21,-375.53 53.76,-368.53 51.31,-375.53 56.21,-375.53"/>
</g>
<!-- step -->
<g id="node4" class="node">
<title>step</title>
<polygon fill="#ffffff" stroke="#445a79" stroke-width="1.5" points="97.02,-289 10.5,-289 10.5,-253 97.02,-253 97.02,-289"/>
<text xml:space="preserve" text-anchor="middle" x="53.76" y="-267.32" font-family="Helvetica,sans-Serif" font-size="9.00">Execute Next Step</text>
</g>
<!-- plan&#45;&gt;step -->
<g id="edge3" class="edge">
<title>plan&#45;&gt;step</title>
<path fill="none" stroke="#445a79" stroke-width="1.3" d="M53.76,-329.6C53.76,-320.3 53.76,-308.65 53.76,-298.27"/>
<polygon fill="#445a79" stroke="#445a79" stroke-width="1.3" points="56.21,-298.53 53.76,-291.53 51.31,-298.53 56.21,-298.53"/>
</g>
<!-- observe -->
<g id="node5" class="node">
<title>observe</title>
<polygon fill="#ffffff" stroke="#445a79" stroke-width="1.5" points="99.64,-201 7.87,-201 7.87,-165 99.64,-165 99.64,-201"/>
<text xml:space="preserve" text-anchor="middle" x="53.76" y="-179.32" font-family="Helvetica,sans-Serif" font-size="9.00">Collect Observation</text>
</g>
<!-- step&#45;&gt;observe -->
<g id="edge4" class="edge">
<title>step&#45;&gt;observe</title>
<path fill="none" stroke="#445a79" stroke-width="1.3" d="M53.76,-252.6C53.76,-240.55 53.76,-224.3 53.76,-210.63"/>
<polygon fill="#445a79" stroke="#445a79" stroke-width="1.3" points="56.21,-210.64 53.76,-203.64 51.31,-210.64 56.21,-210.64"/>
</g>
<!-- goal -->
<g id="node6" class="node">
<title>goal</title>
<polygon fill="#ffffff" stroke="#445a79" stroke-width="1.5" points="53.76,-124 7.85,-106 53.76,-88 99.67,-106 53.76,-124"/>
<text xml:space="preserve" text-anchor="middle" x="53.76" y="-107.2" font-family="Helvetica,sans-Serif" font-size="9.00">Goal</text>
<text xml:space="preserve" text-anchor="middle" x="53.76" y="-97.45" font-family="Helvetica,sans-Serif" font-size="9.00">Satisfied?</text>
</g>
<!-- observe&#45;&gt;goal -->
<g id="edge5" class="edge">
<title>observe&#45;&gt;goal</title>
<path fill="none" stroke="#445a79" stroke-width="1.3" d="M53.76,-164.6C53.76,-155.3 53.76,-143.65 53.76,-133.27"/>
<polygon fill="#445a79" stroke="#445a79" stroke-width="1.3" points="56.21,-133.53 53.76,-126.53 51.31,-133.53 56.21,-133.53"/>
</g>
<!-- replan -->
<g id="node7" class="node">
<title>replan</title>
<polygon fill="#ffffff" stroke="#445a79" stroke-width="1.5" points="187.76,-124 147.06,-106 187.76,-88 228.46,-106 187.76,-124"/>
<text xml:space="preserve" text-anchor="middle" x="187.76" y="-107.2" font-family="Helvetica,sans-Serif" font-size="9.00">Need</text>
<text xml:space="preserve" text-anchor="middle" x="187.76" y="-97.45" font-family="Helvetica,sans-Serif" font-size="9.00">Replan?</text>
</g>
<!-- goal&#45;&gt;replan -->
<g id="edge7" class="edge">
<title>goal&#45;&gt;replan</title>
<path fill="none" stroke="#445a79" stroke-width="1.3" d="M101.38,-106C112.89,-106 125.23,-106 136.89,-106"/>
<polygon fill="#445a79" stroke="#445a79" stroke-width="1.3" points="136.67,-108.45 143.67,-106 136.67,-103.55 136.67,-108.45"/>
<text xml:space="preserve" text-anchor="middle" x="123.37" y="-110.55" font-family="Helvetica,sans-Serif" font-size="11.00" fill="#162130">No</text>
</g>
<!-- out -->
<g id="node8" class="node">
<title>out</title>
<polygon fill="#ffffff" stroke="#445a79" stroke-width="1.5" points="106.77,-36 0.75,-36 0.75,0 106.77,0 106.77,-36"/>
<text xml:space="preserve" text-anchor="middle" x="53.76" y="-14.32" font-family="Helvetica,sans-Serif" font-size="9.00">Return Final Response</text>
</g>
<!-- goal&#45;&gt;out -->
<g id="edge6" class="edge">
<title>goal&#45;&gt;out</title>
<path fill="none" stroke="#445a79" stroke-width="1.3" d="M53.76,-87.6C53.76,-75.55 53.76,-59.3 53.76,-45.63"/>
<polygon fill="#445a79" stroke="#445a79" stroke-width="1.3" points="56.21,-45.64 53.76,-38.64 51.31,-45.64 56.21,-45.64"/>
<text xml:space="preserve" text-anchor="middle" x="62.38" y="-57.55" font-family="Helvetica,sans-Serif" font-size="11.00" fill="#162130">Yes</text>
</g>
<!-- replan&#45;&gt;plan -->
<g id="edge8" class="edge">
<title>replan&#45;&gt;plan</title>
<path fill="none" stroke="#445a79" stroke-width="1.3" d="M182.3,-122.1C172.69,-148.67 153.76,-201 153.76,-201 153.76,-201 108.76,-289 108.76,-289 108.76,-289 91.59,-307.1 76.44,-323.08"/>
<polygon fill="#445a79" stroke="#445a79" stroke-width="1.3" points="74.95,-321.09 71.91,-327.86 78.51,-324.46 74.95,-321.09"/>
<text xml:space="preserve" text-anchor="middle" x="151.78" y="-222.55" font-family="Helvetica,sans-Serif" font-size="11.00" fill="#162130">Yes</text>
</g>
<!-- replan&#45;&gt;step -->
<g id="edge9" class="edge">
<title>replan&#45;&gt;step</title>
<path fill="none" stroke="#445a79" stroke-width="1.3" d="M175.1,-118.71C163.38,-129.55 147.76,-144 147.76,-144 147.76,-144 111.76,-201 111.76,-201 111.76,-201 90.81,-225.92 74.09,-245.81"/>
<polygon fill="#445a79" stroke="#445a79" stroke-width="1.3" points="72.29,-244.15 69.66,-251.08 76.04,-247.3 72.29,-244.15"/>
<text xml:space="preserve" text-anchor="middle" x="141.05" y="-178.55" font-family="Helvetica,sans-Serif" font-size="11.00" fill="#162130">No</text>
</g>
</g>
</svg>
