<?xml version="1.0" encoding="UTF-8" standalone="no"?>
<!DOCTYPE svg PUBLIC "-//W3C//DTD SVG 1.1//EN"
 "http://www.w3.org/Graphics/SVG/1.1/DTD/svg11.dtd">
<!-- Generated by graphviz version 14.1.2 (20260124.0452)
 -->
<!-- Title: G Pages: 1 -->
<svg width="268pt" height="451pt"
 viewBox="1.00 1.00 267.00 450.00" xmlns="http://www.w3.org/2000/svg" xmlns:xlink="http://www.w3.org/1999/xlink">
<g id="graph0" class="graph" transform="scale(1 1) rotate(0) translate(5.76 445.28)">
<title>G</title>
<polygon fill="#ffffff" stroke="none" points="-4.32,4.32 -4.32,-443.84 261.26,-443.84 261.26,4.32 -4.32,4.32"/>
<!-- query -->
<g id="node1" class="node">
<title>query</title>
<polygon fill="#ffffff" stroke="#445a79" stroke-width="1.5" points="136.39,-439.52 77.5,-439.52 77.5,-403.52 136.39,-403.52 136.39,-439.52"/>
<text xml:space="preserve" text-anchor="middle" x="106.94" y="-417.64" font-family="Latin Modern Roman" font-size="10.00">User Query</text>
</g>
<!-- reason -->
<g id="node2" class="node">
<title>reason</title>
<polygon fill="#ffffff" stroke="#445a79" stroke-width="1.5" points="157.01,-364.52 56.87,-364.52 56.87,-328.52 157.01,-328.52 157.01,-364.52"/>
<text xml:space="preserve" text-anchor="middle" x="106.94" y="-342.64" font-family="Latin Modern Roman" font-size="10.00">LLM Reasoning Step</text>
</g>
<!-- query&#45;&gt;reason -->
<g id="edge1" class="edge">
<title>query&#45;&gt;reason</title>
<path fill="none" stroke="#445a79" stroke-width="1.3" d="M106.94,-402.85C106.94,-394.15 106.94,-383.49 106.94,-373.85"/>
<polygon fill="#445a79" stroke="#445a79" stroke-width="1.3" points="109.4,-374 106.95,-367 104.5,-374 109.4,-374"/>
</g>
<!-- need -->
<g id="node3" class="node">
<title>need</title>
<polygon fill="#ffffff" stroke="#445a79" stroke-width="1.5" points="106.94,-289.52 77.94,-261.26 106.94,-233 135.95,-261.26 106.94,-289.52"/>
<text xml:space="preserve" text-anchor="middle" x="106.94" y="-263.01" font-family="Latin Modern Roman" font-size="10.00">Need</text>
<text xml:space="preserve" text-anchor="middle" x="106.94" y="-251.76" font-family="Latin Modern Roman" font-size="10.00">Tool?</text>
</g>
<!-- reason&#45;&gt;need -->
<g id="edge2" class="edge">
<title>reason&#45;&gt;need</title>
<path fill="none" stroke="#445a79" stroke-width="1.3" d="M106.94,-327.86C106.94,-319.53 106.94,-309.25 106.94,-299.33"/>
<polygon fill="#445a79" stroke="#445a79" stroke-width="1.3" points="109.4,-299.34 106.95,-292.34 104.5,-299.34 109.4,-299.34"/>
</g>
<!-- select -->
<g id="node4" class="node">
<title>select</title>
<polygon fill="#ffffff" stroke="#445a79" stroke-width="1.5" points="115.89,-186 0,-186 0,-150 115.89,-150 115.89,-186"/>
<text xml:space="preserve" text-anchor="middle" x="57.94" y="-164.12" font-family="Latin Modern Roman" font-size="10.00">Select Tool + Arguments</text>
</g>
<!-- need&#45;&gt;select -->
<g id="edge3" class="edge">
<title>need&#45;&gt;select</title>
<path fill="none" stroke="#445a79" stroke-width="1.3" d="M97.03,-241.79C89.65,-228.04 79.49,-209.12 71.38,-194.02"/>
<polygon fill="#445a79" stroke="#445a79" stroke-width="1.3" points="73.75,-193.25 68.28,-188.24 69.43,-195.57 73.75,-193.25"/>
<text xml:space="preserve" text-anchor="middle" x="87.35" y="-206.4" font-family="Latin Modern Roman" font-size="8.00" fill="#162130">Yes</text>
</g>
<!-- answer -->
<g id="node7" class="node">
<title>answer</title>
<polygon fill="#ffffff" stroke="#445a79" stroke-width="1.5" points="245.76,-186 138.12,-186 138.12,-150 245.76,-150 245.76,-186"/>
<text xml:space="preserve" text-anchor="middle" x="191.94" y="-164.12" font-family="Latin Modern Roman" font-size="10.00">Generate Final Answer</text>
</g>
<!-- need&#45;&gt;answer -->
<g id="edge4" class="edge">
<title>need&#45;&gt;answer</title>
<path fill="none" stroke="#445a79" stroke-width="1.3" d="M120.6,-245.6C133.86,-231.36 154.21,-209.52 169.78,-192.79"/>
<polygon fill="#445a79" stroke="#445a79" stroke-width="1.3" points="171.39,-194.67 174.37,-187.87 167.8,-191.33 171.39,-194.67"/>
<text xml:space="preserve" text-anchor="middle" x="162.31" y="-206.4" font-family="Latin Modern Roman" font-size="8.00" fill="#162130">No</text>
</g>
<!-- execute -->
<g id="node5" class="node">
<title>execute</title>
<polygon fill="#ffffff" stroke="#445a79" stroke-width="1.5" points="90.76,-111 25.12,-111 25.12,-75 90.76,-75 90.76,-111"/>
<text xml:space="preserve" text-anchor="middle" x="57.94" y="-89.12" font-family="Latin Modern Roman" font-size="10.00">Execute Tool</text>
</g>
<!-- select&#45;&gt;execute -->
<g id="edge5" class="edge">
<title>select&#45;&gt;execute</title>
<path fill="none" stroke="#445a79" stroke-width="1.3" d="M57.94,-149.33C57.94,-140.63 57.94,-129.97 57.94,-120.33"/>
<polygon fill="#445a79" stroke="#445a79" stroke-width="1.3" points="60.4,-120.48 57.95,-113.48 55.5,-120.48 60.4,-120.48"/>
</g>
<!-- observe -->
<g id="node6" class="node">
<title>observe</title>
<polygon fill="#ffffff" stroke="#445a79" stroke-width="1.5" points="99.01,-36 16.87,-36 16.87,0 99.01,0 99.01,-36"/>
<text xml:space="preserve" text-anchor="middle" x="57.94" y="-14.12" font-family="Latin Modern Roman" font-size="10.00">Tool Observation</text>
</g>
<!-- execute&#45;&gt;observe -->
<g id="edge6" class="edge">
<title>execute&#45;&gt;observe</title>
<path fill="none" stroke="#445a79" stroke-width="1.3" d="M57.94,-74.33C57.94,-65.63 57.94,-54.97 57.94,-45.33"/>
<polygon fill="#445a79" stroke="#445a79" stroke-width="1.3" points="60.4,-45.48 57.95,-38.48 55.5,-45.48 60.4,-45.48"/>
</g>
<!-- observe&#45;&gt;reason -->
<g id="edge7" class="edge">
<title>observe&#45;&gt;reason</title>
<path fill="none" stroke="#445a79" stroke-width="1.3" d="M84.78,-36.67C139.1,-72.42 256.94,-150 256.94,-150 256.94,-150 256.94,-186 256.94,-186 256.94,-186 171.61,-276.75 129.67,-321.35"/>
<polygon fill="#445a79" stroke="#445a79" stroke-width="1.3" points="127.93,-319.63 124.92,-326.41 131.5,-322.98 127.93,-319.63"/>
</g>
</g>
</svg>
