<?xml version="1.0" encoding="UTF-8" standalone="no"?>
<!DOCTYPE svg PUBLIC "-//W3C//DTD SVG 1.1//EN"
 "http://www.w3.org/Graphics/SVG/1.1/DTD/svg11.dtd">
<!-- Generated by graphviz version 14.1.2 (20260124.0452)
 -->
<!-- Title: G Pages: 1 -->
<svg width="204pt" height="527pt"
 viewBox="1.00 1.00 203.00 526.00" xmlns="http://www.w3.org/2000/svg" xmlns:xlink="http://www.w3.org/1999/xlink">
<g id="graph0" class="graph" transform="scale(1 1) rotate(0) translate(5.76 521.26)">
<title>G</title>
<polygon fill="#ffffff" stroke="none" points="-4.32,4.32 -4.32,-519.82 197.1,-519.82 197.1,4.32 -4.32,4.32"/>
<!-- input -->
<g id="node1" class="node">
<title>input</title>
<polygon fill="#ffffff" stroke="#445a79" stroke-width="1.5" points="71.01,-515.5 17.01,-515.5 17.01,-479.5 71.01,-479.5 71.01,-515.5"/>
<text xml:space="preserve" text-anchor="middle" x="44.01" y="-494.77" font-family="Times,serif" font-size="8.00">Input Task</text>
</g>
<!-- init -->
<g id="node2" class="node">
<title>init</title>
<polygon fill="#ffffff" stroke="#445a79" stroke-width="1.5" points="73.77,-438.5 14.25,-438.5 14.25,-402.5 73.77,-402.5 73.77,-438.5"/>
<text xml:space="preserve" text-anchor="middle" x="44.01" y="-417.77" font-family="Times,serif" font-size="8.00">Initialize State</text>
</g>
<!-- input&#45;&gt;init -->
<g id="edge1" class="edge">
<title>input&#45;&gt;init</title>
<path fill="none" stroke="#445a79" stroke-width="1.3" d="M44.01,-479.1C44.01,-469.8 44.01,-458.15 44.01,-447.77"/>
<polygon fill="#445a79" stroke="#445a79" stroke-width="1.3" points="46.46,-448.03 44.01,-441.03 41.56,-448.03 46.46,-448.03"/>
</g>
<!-- plan -->
<g id="node3" class="node">
<title>plan</title>
<polygon fill="#ffffff" stroke="#445a79" stroke-width="1.5" points="88.02,-361.5 0,-361.5 0,-325.5 88.02,-325.5 88.02,-361.5"/>
<text xml:space="preserve" text-anchor="middle" x="44.01" y="-340.77" font-family="Times,serif" font-size="8.00">Generate / Update Plan</text>
</g>
<!-- init&#45;&gt;plan -->
<g id="edge2" class="edge">
<title>init&#45;&gt;plan</title>
<path fill="none" stroke="#445a79" stroke-width="1.3" d="M44.01,-402.1C44.01,-392.8 44.01,-381.15 44.01,-370.77"/>
<polygon fill="#445a79" stroke="#445a79" stroke-width="1.3" points="46.46,-371.03 44.01,-364.03 41.56,-371.03 46.46,-371.03"/>
</g>
<!-- step -->
<g id="node4" class="node">
<title>step</title>
<polygon fill="#ffffff" stroke="#445a79" stroke-width="1.5" points="80.14,-284.5 7.87,-284.5 7.87,-248.5 80.14,-248.5 80.14,-284.5"/>
<text xml:space="preserve" text-anchor="middle" x="44.01" y="-263.77" font-family="Times,serif" font-size="8.00">Execute Next Step</text>
</g>
<!-- plan&#45;&gt;step -->
<g id="edge3" class="edge">
<title>plan&#45;&gt;step</title>
<path fill="none" stroke="#445a79" stroke-width="1.3" d="M44.01,-325.1C44.01,-315.8 44.01,-304.15 44.01,-293.77"/>
<polygon fill="#445a79" stroke="#445a79" stroke-width="1.3" points="46.46,-294.03 44.01,-287.03 41.56,-294.03 46.46,-294.03"/>
</g>
<!-- observe -->
<g id="node5" class="node">
<title>observe</title>
<polygon fill="#ffffff" stroke="#445a79" stroke-width="1.5" points="82.02,-198.75 6,-198.75 6,-162.75 82.02,-162.75 82.02,-198.75"/>
<text xml:space="preserve" text-anchor="middle" x="44.01" y="-178.03" font-family="Times,serif" font-size="8.00">Collect Observation</text>
</g>
<!-- step&#45;&gt;observe -->
<g id="edge4" class="edge">
<title>step&#45;&gt;observe</title>
<path fill="none" stroke="#445a79" stroke-width="1.3" d="M44.01,-248.15C44.01,-236.55 44.01,-221.07 44.01,-207.98"/>
<polygon fill="#445a79" stroke="#445a79" stroke-width="1.3" points="46.46,-208.34 44.01,-201.34 41.56,-208.34 46.46,-208.34"/>
</g>
<!-- goal -->
<g id="node6" class="node">
<title>goal</title>
<polygon fill="#ffffff" stroke="#445a79" stroke-width="1.5" points="44.01,-121.75 6.29,-103.75 44.01,-85.75 81.73,-103.75 44.01,-121.75"/>
<text xml:space="preserve" text-anchor="middle" x="44.01" y="-105.9" font-family="Times,serif" font-size="8.00">Goal</text>
<text xml:space="preserve" text-anchor="middle" x="44.01" y="-96.15" font-family="Times,serif" font-size="8.00">Satisfied?</text>
</g>
<!-- observe&#45;&gt;goal -->
<g id="edge5" class="edge">
<title>observe&#45;&gt;goal</title>
<path fill="none" stroke="#445a79" stroke-width="1.3" d="M44.01,-162.35C44.01,-153.12 44.01,-141.57 44.01,-131.24"/>
<polygon fill="#445a79" stroke="#445a79" stroke-width="1.3" points="46.46,-131.54 44.01,-124.54 41.56,-131.54 46.46,-131.54"/>
</g>
<!-- replan -->
<g id="node7" class="node">
<title>replan</title>
<polygon fill="#ffffff" stroke="#445a79" stroke-width="1.5" points="161.01,-121.75 129.24,-103.75 161.01,-85.75 192.78,-103.75 161.01,-121.75"/>
<text xml:space="preserve" text-anchor="middle" x="161.01" y="-105.9" font-family="Times,serif" font-size="8.00">Need</text>
<text xml:space="preserve" text-anchor="middle" x="161.01" y="-96.15" font-family="Times,serif" font-size="8.00">Replan?</text>
</g>
<!-- goal&#45;&gt;replan -->
<g id="edge7" class="edge">
<title>goal&#45;&gt;replan</title>
<path fill="none" stroke="#445a79" stroke-width="1.3" d="M83.29,-103.75C94.83,-103.75 107.48,-103.75 119.17,-103.75"/>
<polygon fill="#445a79" stroke="#445a79" stroke-width="1.3" points="118.91,-106.2 125.91,-103.75 118.91,-101.3 118.91,-106.2"/>
<text xml:space="preserve" text-anchor="middle" x="105.49" y="-108.9" font-family="Times,serif" font-size="8.00" fill="#162130">No</text>
</g>
<!-- out -->
<g id="node8" class="node">
<title>out</title>
<polygon fill="#ffffff" stroke="#445a79" stroke-width="1.5" points="86.14,-36 1.87,-36 1.87,0 86.14,0 86.14,-36"/>
<text xml:space="preserve" text-anchor="middle" x="44.01" y="-15.28" font-family="Times,serif" font-size="8.00">Return Final Response</text>
</g>
<!-- goal&#45;&gt;out -->
<g id="edge6" class="edge">
<title>goal&#45;&gt;out</title>
<path fill="none" stroke="#445a79" stroke-width="1.3" d="M44.01,-84.99C44.01,-73.55 44.01,-58.47 44.01,-45.62"/>
<polygon fill="#445a79" stroke="#445a79" stroke-width="1.3" points="46.46,-45.7 44.01,-38.7 41.56,-45.7 46.46,-45.7"/>
<text xml:space="preserve" text-anchor="middle" x="49.63" y="-58.15" font-family="Times,serif" font-size="8.00" fill="#162130">Yes</text>
</g>
<!-- replan&#45;&gt;plan -->
<g id="edge8" class="edge">
<title>replan&#45;&gt;plan</title>
<path fill="none" stroke="#445a79" stroke-width="1.3" d="M156.19,-119.85C147.71,-146.42 131.01,-198.75 131.01,-198.75 131.01,-198.75 92.01,-284.5 92.01,-284.5 92.01,-284.5 77.29,-302.28 64.16,-318.15"/>
<polygon fill="#445a79" stroke="#445a79" stroke-width="1.3" points="62.5,-316.31 59.93,-323.27 66.28,-319.44 62.5,-316.31"/>
<text xml:space="preserve" text-anchor="middle" x="127.44" y="-220.9" font-family="Times,serif" font-size="8.00" fill="#162130">Yes</text>
</g>
<!-- replan&#45;&gt;step -->
<g id="edge9" class="edge">
<title>replan&#45;&gt;step</title>
<path fill="none" stroke="#445a79" stroke-width="1.3" d="M150.57,-116.46C140.9,-127.3 128.01,-141.75 128.01,-141.75 128.01,-141.75 94.01,-198.75 94.01,-198.75 94.01,-198.75 76.67,-221.89 62.42,-240.93"/>
<polygon fill="#445a79" stroke="#445a79" stroke-width="1.3" points="60.56,-239.32 58.33,-246.39 64.48,-242.25 60.56,-239.32"/>
<text xml:space="preserve" text-anchor="middle" x="119.82" y="-178.03" font-family="Times,serif" font-size="8.00" fill="#162130">No</text>
</g>
</g>
</svg>
