<?xml version="1.0" encoding="UTF-8" standalone="no"?>
<!DOCTYPE svg PUBLIC "-//W3C//DTD SVG 1.1//EN"
 "http://www.w3.org/Graphics/SVG/1.1/DTD/svg11.dtd">
<!-- Generated by graphviz version 14.1.2 (20260124.0452)
 -->
<!-- Title: G Pages: 1 -->
<svg width="275pt" height="462pt"
 viewBox="1.00 1.00 273.00 460.00" xmlns="http://www.w3.org/2000/svg" xmlns:xlink="http://www.w3.org/1999/xlink">
<g id="graph0" class="graph" transform="scale(1 1) rotate(0) translate(5.76 455.78)">
<title>G</title>
<polygon fill="#ffffff" stroke="none" points="-4.32,4.32 -4.32,-454.34 267.39,-454.34 267.39,4.32 -4.32,4.32"/>
<!-- query -->
<g id="node1" class="node">
<title>query</title>
<polygon fill="#ffffff" stroke="#445a79" stroke-width="1.5" points="139.64,-450.02 78.5,-450.02 78.5,-414.02 139.64,-414.02 139.64,-450.02"/>
<text xml:space="preserve" text-anchor="middle" x="109.07" y="-428.32" font-family="Times,serif" font-size="11.00">User Query</text>
</g>
<!-- reason -->
<g id="node2" class="node">
<title>reason</title>
<polygon fill="#ffffff" stroke="#445a79" stroke-width="1.5" points="161.01,-375.02 57.12,-375.02 57.12,-339.02 161.01,-339.02 161.01,-375.02"/>
<text xml:space="preserve" text-anchor="middle" x="109.07" y="-353.32" font-family="Times,serif" font-size="11.00">LLM Reasoning Step</text>
</g>
<!-- query&#45;&gt;reason -->
<g id="edge1" class="edge">
<title>query&#45;&gt;reason</title>
<path fill="none" stroke="#445a79" stroke-width="1.3" d="M109.07,-413.35C109.07,-404.65 109.07,-393.99 109.07,-384.35"/>
<polygon fill="#445a79" stroke="#445a79" stroke-width="1.3" points="111.52,-384.5 109.07,-377.5 106.62,-384.5 111.52,-384.5"/>
</g>
<!-- need -->
<g id="node3" class="node">
<title>need</title>
<polygon fill="#ffffff" stroke="#445a79" stroke-width="1.5" points="109.07,-300.02 78.56,-267.26 109.07,-234.5 139.58,-267.26 109.07,-300.02"/>
<text xml:space="preserve" text-anchor="middle" x="109.07" y="-270.31" font-family="Times,serif" font-size="11.00">Need</text>
<text xml:space="preserve" text-anchor="middle" x="109.07" y="-256.81" font-family="Times,serif" font-size="11.00">Tool?</text>
</g>
<!-- reason&#45;&gt;need -->
<g id="edge2" class="edge">
<title>reason&#45;&gt;need</title>
<path fill="none" stroke="#445a79" stroke-width="1.3" d="M109.07,-338.68C109.07,-330.34 109.07,-319.94 109.07,-309.72"/>
<polygon fill="#445a79" stroke="#445a79" stroke-width="1.3" points="111.52,-309.8 109.07,-302.8 106.62,-309.8 111.52,-309.8"/>
</g>
<!-- select -->
<g id="node4" class="node">
<title>select</title>
<polygon fill="#ffffff" stroke="#445a79" stroke-width="1.5" points="118.14,-186 0,-186 0,-150 118.14,-150 118.14,-186"/>
<text xml:space="preserve" text-anchor="middle" x="59.07" y="-164.3" font-family="Times,serif" font-size="11.00">Select Tool + Arguments</text>
</g>
<!-- need&#45;&gt;select -->
<g id="edge3" class="edge">
<title>need&#45;&gt;select</title>
<path fill="none" stroke="#445a79" stroke-width="1.3" d="M98.22,-245.16C90.54,-230.22 80.2,-210.11 72.08,-194.31"/>
<polygon fill="#445a79" stroke="#445a79" stroke-width="1.3" points="74.34,-193.34 68.96,-188.24 69.98,-195.58 74.34,-193.34"/>
<text xml:space="preserve" text-anchor="middle" x="89.32" y="-206.95" font-family="Times,serif" font-size="9.00" fill="#162130">Yes</text>
</g>
<!-- answer -->
<g id="node7" class="node">
<title>answer</title>
<polygon fill="#ffffff" stroke="#445a79" stroke-width="1.5" points="252.14,-186 140,-186 140,-150 252.14,-150 252.14,-186"/>
<text xml:space="preserve" text-anchor="middle" x="196.07" y="-164.3" font-family="Times,serif" font-size="11.00">Generate Final Answer</text>
</g>
<!-- need&#45;&gt;answer -->
<g id="edge4" class="edge">
<title>need&#45;&gt;answer</title>
<path fill="none" stroke="#445a79" stroke-width="1.3" d="M123.83,-249.76C137.7,-234.26 158.61,-210.87 174.38,-193.25"/>
<polygon fill="#445a79" stroke="#445a79" stroke-width="1.3" points="176.2,-194.88 179.04,-188.03 172.55,-191.62 176.2,-194.88"/>
<text xml:space="preserve" text-anchor="middle" x="168.55" y="-206.95" font-family="Times,serif" font-size="9.00" fill="#162130">No</text>
</g>
<!-- execute -->
<g id="node5" class="node">
<title>execute</title>
<polygon fill="#ffffff" stroke="#445a79" stroke-width="1.5" points="92.64,-111 25.5,-111 25.5,-75 92.64,-75 92.64,-111"/>
<text xml:space="preserve" text-anchor="middle" x="59.07" y="-89.3" font-family="Times,serif" font-size="11.00">Execute Tool</text>
</g>
<!-- select&#45;&gt;execute -->
<g id="edge5" class="edge">
<title>select&#45;&gt;execute</title>
<path fill="none" stroke="#445a79" stroke-width="1.3" d="M59.07,-149.33C59.07,-140.63 59.07,-129.97 59.07,-120.33"/>
<polygon fill="#445a79" stroke="#445a79" stroke-width="1.3" points="61.52,-120.48 59.07,-113.48 56.62,-120.48 61.52,-120.48"/>
</g>
<!-- observe -->
<g id="node6" class="node">
<title>observe</title>
<polygon fill="#ffffff" stroke="#445a79" stroke-width="1.5" points="101.64,-36 16.5,-36 16.5,0 101.64,0 101.64,-36"/>
<text xml:space="preserve" text-anchor="middle" x="59.07" y="-14.3" font-family="Times,serif" font-size="11.00">Tool Observation</text>
</g>
<!-- execute&#45;&gt;observe -->
<g id="edge6" class="edge">
<title>execute&#45;&gt;observe</title>
<path fill="none" stroke="#445a79" stroke-width="1.3" d="M59.07,-74.33C59.07,-65.63 59.07,-54.97 59.07,-45.33"/>
<polygon fill="#445a79" stroke="#445a79" stroke-width="1.3" points="61.52,-45.48 59.07,-38.48 56.62,-45.48 61.52,-45.48"/>
</g>
<!-- observe&#45;&gt;reason -->
<g id="edge7" class="edge">
<title>observe&#45;&gt;reason</title>
<path fill="none" stroke="#445a79" stroke-width="1.3" d="M86.58,-36.67C142.27,-72.42 263.07,-150 263.07,-150 263.07,-150 263.07,-186 263.07,-186 263.07,-186 173.36,-285.04 130.88,-331.94"/>
<polygon fill="#445a79" stroke="#445a79" stroke-width="1.3" points="129.18,-330.17 126.29,-337.01 132.81,-333.46 129.18,-330.17"/>
</g>
</g>
</svg>
