<?xml version="1.0" encoding="UTF-8" standalone="no"?>
<!DOCTYPE svg PUBLIC "-//W3C//DTD SVG 1.1//EN"
 "http://www.w3.org/Graphics/SVG/1.1/DTD/svg11.dtd">
<!-- Generated by graphviz version 14.1.2 (20260124.0452)
 -->
<!-- Title: G Pages: 1 -->
<svg width="248pt" height="546pt"
 viewBox="1.00 1.00 247.00 545.00" xmlns="http://www.w3.org/2000/svg" xmlns:xlink="http://www.w3.org/1999/xlink">
<g id="graph0" class="graph" transform="scale(1 1) rotate(0) translate(5.76 540.28)">
<title>G</title>
<polygon fill="#ffffff" stroke="none" points="-4.32,4.32 -4.32,-538.84 240.77,-538.84 240.77,4.32 -4.32,4.32"/>
<!-- input -->
<g id="node1" class="node">
<title>input</title>
<polygon fill="#ffffff" stroke="#445a79" stroke-width="1.5" points="82.89,-534.52 28.5,-534.52 28.5,-498.52 82.89,-498.52 82.89,-534.52"/>
<text xml:space="preserve" text-anchor="middle" x="55.7" y="-512.64" font-family="Latin Modern Roman" font-size="10.00">Input Task</text>
</g>
<!-- init -->
<g id="node2" class="node">
<title>init</title>
<polygon fill="#ffffff" stroke="#445a79" stroke-width="1.5" points="91.14,-457.52 20.25,-457.52 20.25,-421.52 91.14,-421.52 91.14,-457.52"/>
<text xml:space="preserve" text-anchor="middle" x="55.7" y="-435.64" font-family="Latin Modern Roman" font-size="10.00">Initialize State</text>
</g>
<!-- input&#45;&gt;init -->
<g id="edge1" class="edge">
<title>input&#45;&gt;init</title>
<path fill="none" stroke="#445a79" stroke-width="1.3" d="M55.7,-498.12C55.7,-488.82 55.7,-477.17 55.7,-466.79"/>
<polygon fill="#445a79" stroke="#445a79" stroke-width="1.3" points="58.15,-467.05 55.7,-460.05 53.25,-467.05 58.15,-467.05"/>
</g>
<!-- plan -->
<g id="node3" class="node">
<title>plan</title>
<polygon fill="#ffffff" stroke="#445a79" stroke-width="1.5" points="111.39,-380.52 0,-380.52 0,-344.52 111.39,-344.52 111.39,-380.52"/>
<text xml:space="preserve" text-anchor="middle" x="55.7" y="-358.64" font-family="Latin Modern Roman" font-size="10.00">Generate / Update Plan</text>
</g>
<!-- init&#45;&gt;plan -->
<g id="edge2" class="edge">
<title>init&#45;&gt;plan</title>
<path fill="none" stroke="#445a79" stroke-width="1.3" d="M55.7,-421.12C55.7,-411.82 55.7,-400.17 55.7,-389.79"/>
<polygon fill="#445a79" stroke="#445a79" stroke-width="1.3" points="58.15,-390.05 55.7,-383.05 53.25,-390.05 58.15,-390.05"/>
</g>
<!-- step -->
<g id="node4" class="node">
<title>step</title>
<polygon fill="#ffffff" stroke="#445a79" stroke-width="1.5" points="101.64,-303.52 9.75,-303.52 9.75,-267.52 101.64,-267.52 101.64,-303.52"/>
<text xml:space="preserve" text-anchor="middle" x="55.7" y="-281.64" font-family="Latin Modern Roman" font-size="10.00">Execute Next Step</text>
</g>
<!-- plan&#45;&gt;step -->
<g id="edge3" class="edge">
<title>plan&#45;&gt;step</title>
<path fill="none" stroke="#445a79" stroke-width="1.3" d="M55.7,-344.12C55.7,-334.82 55.7,-323.17 55.7,-312.79"/>
<polygon fill="#445a79" stroke="#445a79" stroke-width="1.3" points="58.15,-313.05 55.7,-306.05 53.25,-313.05 58.15,-313.05"/>
</g>
<!-- observe -->
<g id="node5" class="node">
<title>observe</title>
<polygon fill="#ffffff" stroke="#445a79" stroke-width="1.5" points="103.14,-218.52 8.25,-218.52 8.25,-182.52 103.14,-182.52 103.14,-218.52"/>
<text xml:space="preserve" text-anchor="middle" x="55.7" y="-196.64" font-family="Latin Modern Roman" font-size="10.00">Collect Observation</text>
</g>
<!-- step&#45;&gt;observe -->
<g id="edge4" class="edge">
<title>step&#45;&gt;observe</title>
<path fill="none" stroke="#445a79" stroke-width="1.3" d="M55.7,-266.92C55.7,-255.58 55.7,-240.64 55.7,-227.9"/>
<polygon fill="#445a79" stroke="#445a79" stroke-width="1.3" points="58.15,-228.06 55.7,-221.06 53.25,-228.06 58.15,-228.06"/>
</g>
<!-- goal -->
<g id="node6" class="node">
<title>goal</title>
<polygon fill="#ffffff" stroke="#445a79" stroke-width="1.5" points="55.7,-141.52 6.44,-113.26 55.69,-85 104.95,-113.26 55.7,-141.52"/>
<text xml:space="preserve" text-anchor="middle" x="55.7" y="-115.01" font-family="Latin Modern Roman" font-size="10.00">Goal</text>
<text xml:space="preserve" text-anchor="middle" x="55.7" y="-103.76" font-family="Latin Modern Roman" font-size="10.00">Satisfied?</text>
</g>
<!-- observe&#45;&gt;goal -->
<g id="edge5" class="edge">
<title>observe&#45;&gt;goal</title>
<path fill="none" stroke="#445a79" stroke-width="1.3" d="M55.7,-181.85C55.7,-172.94 55.7,-161.77 55.7,-151.1"/>
<polygon fill="#445a79" stroke="#445a79" stroke-width="1.3" points="58.15,-151.28 55.7,-144.28 53.25,-151.28 58.15,-151.28"/>
</g>
<!-- replan -->
<g id="node7" class="node">
<title>replan</title>
<polygon fill="#ffffff" stroke="#445a79" stroke-width="1.5" points="194.69,-141.52 152.94,-113.26 194.69,-85 236.45,-113.26 194.69,-141.52"/>
<text xml:space="preserve" text-anchor="middle" x="194.69" y="-115.01" font-family="Latin Modern Roman" font-size="10.00">Need</text>
<text xml:space="preserve" text-anchor="middle" x="194.69" y="-103.76" font-family="Latin Modern Roman" font-size="10.00">Replan?</text>
</g>
<!-- goal&#45;&gt;replan -->
<g id="edge7" class="edge">
<title>goal&#45;&gt;replan</title>
<path fill="none" stroke="#445a79" stroke-width="1.3" d="M106.27,-113.26C118.15,-113.26 130.82,-113.26 142.76,-113.26"/>
<polygon fill="#445a79" stroke="#445a79" stroke-width="1.3" points="142.75,-115.71 149.75,-113.26 142.75,-110.81 142.75,-115.71"/>
<text xml:space="preserve" text-anchor="middle" x="128.94" y="-117.66" font-family="Latin Modern Roman" font-size="8.00" fill="#162130">No</text>
</g>
<!-- out -->
<g id="node8" class="node">
<title>out</title>
<polygon fill="#ffffff" stroke="#445a79" stroke-width="1.5" points="110.27,-36 1.12,-36 1.12,0 110.27,0 110.27,-36"/>
<text xml:space="preserve" text-anchor="middle" x="55.7" y="-14.12" font-family="Latin Modern Roman" font-size="10.00">Return Final Response</text>
</g>
<!-- goal&#45;&gt;out -->
<g id="edge6" class="edge">
<title>goal&#45;&gt;out</title>
<path fill="none" stroke="#445a79" stroke-width="1.3" d="M55.7,-84.28C55.7,-71.97 55.7,-57.58 55.7,-45.44"/>
<polygon fill="#445a79" stroke="#445a79" stroke-width="1.3" points="58.15,-45.65 55.7,-38.65 53.25,-45.65 58.15,-45.65"/>
<text xml:space="preserve" text-anchor="middle" x="62.07" y="-57.4" font-family="Latin Modern Roman" font-size="8.00" fill="#162130">Yes</text>
</g>
<!-- replan&#45;&gt;plan -->
<g id="edge8" class="edge">
<title>replan&#45;&gt;plan</title>
<path fill="none" stroke="#445a79" stroke-width="1.3" d="M186.21,-136.37C174.47,-166.98 154.69,-218.52 154.69,-218.52 154.69,-218.52 113.69,-303.52 113.69,-303.52 113.69,-303.52 95.59,-321.62 79.62,-337.6"/>
<polygon fill="#445a79" stroke="#445a79" stroke-width="1.3" points="78.02,-335.73 74.8,-342.41 81.49,-339.19 78.02,-335.73"/>
<text xml:space="preserve" text-anchor="middle" x="151.41" y="-239.92" font-family="Latin Modern Roman" font-size="8.00" fill="#162130">Yes</text>
</g>
<!-- replan&#45;&gt;step -->
<g id="edge9" class="edge">
<title>replan&#45;&gt;step</title>
<path fill="none" stroke="#445a79" stroke-width="1.3" d="M179.29,-131.59C167.31,-145.08 152.69,-161.52 152.69,-161.52 152.69,-161.52 114.69,-218.52 114.69,-218.52 114.69,-218.52 93.94,-241.74 77.05,-260.63"/>
<polygon fill="#445a79" stroke="#445a79" stroke-width="1.3" points="75.66,-258.51 72.82,-265.37 79.31,-261.78 75.66,-258.51"/>
<text xml:space="preserve" text-anchor="middle" x="143.34" y="-197.42" font-family="Latin Modern Roman" font-size="8.00" fill="#162130">No</text>
</g>
</g>
</svg>
