<?xml version="1.0" encoding="UTF-8" standalone="no"?>
<!DOCTYPE svg PUBLIC "-//W3C//DTD SVG 1.1//EN"
 "http://www.w3.org/Graphics/SVG/1.1/DTD/svg11.dtd">
<!-- Generated by graphviz version 14.1.2 (20260124.0452)
 -->
<!-- Title: G Pages: 1 -->
<svg width="261pt" height="434pt"
 viewBox="1.00 1.00 259.00 432.00" xmlns="http://www.w3.org/2000/svg" xmlns:xlink="http://www.w3.org/1999/xlink">
<g id="graph0" class="graph" transform="scale(1 1) rotate(0) translate(5.76 427.76)">
<title>G</title>
<polygon fill="#ffffff" stroke="none" points="-4.32,4.32 -4.32,-426.32 253.58,-426.32 253.58,4.32 -4.32,4.32"/>
<!-- query -->
<g id="node1" class="node">
<title>query</title>
<polygon fill="#ffffff" stroke="#445a79" stroke-width="1.5" points="133.27,-422 75.25,-422 75.25,-386 133.27,-386 133.27,-422"/>
<text xml:space="preserve" text-anchor="middle" x="104.26" y="-400.32" font-family="Helvetica,sans-Serif" font-size="9.00">User Query</text>
</g>
<!-- reason -->
<g id="node2" class="node">
<title>reason</title>
<polygon fill="#ffffff" stroke="#445a79" stroke-width="1.5" points="153.14,-347 55.37,-347 55.37,-311 153.14,-311 153.14,-347"/>
<text xml:space="preserve" text-anchor="middle" x="104.26" y="-325.32" font-family="Helvetica,sans-Serif" font-size="9.00">LLM Reasoning Step</text>
</g>
<!-- query&#45;&gt;reason -->
<g id="edge1" class="edge">
<title>query&#45;&gt;reason</title>
<path fill="none" stroke="#445a79" stroke-width="1.3" d="M104.26,-385.33C104.26,-376.63 104.26,-365.97 104.26,-356.33"/>
<polygon fill="#445a79" stroke="#445a79" stroke-width="1.3" points="106.71,-356.48 104.26,-349.48 101.81,-356.48 106.71,-356.48"/>
</g>
<!-- need -->
<g id="node3" class="node">
<title>need</title>
<polygon fill="#ffffff" stroke="#445a79" stroke-width="1.5" points="104.26,-272 76.21,-254 104.26,-236 132.31,-254 104.26,-272"/>
<text xml:space="preserve" text-anchor="middle" x="104.26" y="-255.2" font-family="Helvetica,sans-Serif" font-size="9.00">Need</text>
<text xml:space="preserve" text-anchor="middle" x="104.26" y="-245.45" font-family="Helvetica,sans-Serif" font-size="9.00">Tool?</text>
</g>
<!-- reason&#45;&gt;need -->
<g id="edge2" class="edge">
<title>reason&#45;&gt;need</title>
<path fill="none" stroke="#445a79" stroke-width="1.3" d="M104.26,-310.33C104.26,-301.69 104.26,-291.13 104.26,-281.55"/>
<polygon fill="#445a79" stroke="#445a79" stroke-width="1.3" points="106.71,-281.73 104.26,-274.73 101.81,-281.73 106.71,-281.73"/>
</g>
<!-- select -->
<g id="node4" class="node">
<title>select</title>
<polygon fill="#ffffff" stroke="#445a79" stroke-width="1.5" points="110.52,-186 0,-186 0,-150 110.52,-150 110.52,-186"/>
<text xml:space="preserve" text-anchor="middle" x="55.26" y="-164.32" font-family="Helvetica,sans-Serif" font-size="9.00">Select Tool + Arguments</text>
</g>
<!-- need&#45;&gt;select -->
<g id="edge3" class="edge">
<title>need&#45;&gt;select</title>
<path fill="none" stroke="#445a79" stroke-width="1.3" d="M96.82,-240.24C89.7,-228.05 78.78,-209.33 69.92,-194.13"/>
<polygon fill="#445a79" stroke="#445a79" stroke-width="1.3" points="72.14,-193.08 66.5,-188.26 67.91,-195.54 72.14,-193.08"/>
<text xml:space="preserve" text-anchor="middle" x="91.32" y="-206.55" font-family="Helvetica,sans-Serif" font-size="11.00" fill="#162130">Yes</text>
</g>
<!-- answer -->
<g id="node7" class="node">
<title>answer</title>
<polygon fill="#ffffff" stroke="#445a79" stroke-width="1.5" points="237.89,-186 132.62,-186 132.62,-150 237.89,-150 237.89,-186"/>
<text xml:space="preserve" text-anchor="middle" x="185.26" y="-164.32" font-family="Helvetica,sans-Serif" font-size="9.00">Generate Final Answer</text>
</g>
<!-- need&#45;&gt;answer -->
<g id="edge4" class="edge">
<title>need&#45;&gt;answer</title>
<path fill="none" stroke="#445a79" stroke-width="1.3" d="M114.85,-242.02C126.81,-229.61 146.64,-209.05 162.21,-192.9"/>
<polygon fill="#445a79" stroke="#445a79" stroke-width="1.3" points="163.7,-194.89 166.8,-188.15 160.17,-191.49 163.7,-194.89"/>
<text xml:space="preserve" text-anchor="middle" x="156.73" y="-206.55" font-family="Helvetica,sans-Serif" font-size="11.00" fill="#162130">No</text>
</g>
<!-- execute -->
<g id="node5" class="node">
<title>execute</title>
<polygon fill="#ffffff" stroke="#445a79" stroke-width="1.5" points="87.27,-111 23.25,-111 23.25,-75 87.27,-75 87.27,-111"/>
<text xml:space="preserve" text-anchor="middle" x="55.26" y="-89.33" font-family="Helvetica,sans-Serif" font-size="9.00">Execute Tool</text>
</g>
<!-- select&#45;&gt;execute -->
<g id="edge5" class="edge">
<title>select&#45;&gt;execute</title>
<path fill="none" stroke="#445a79" stroke-width="1.3" d="M55.26,-149.33C55.26,-140.63 55.26,-129.97 55.26,-120.33"/>
<polygon fill="#445a79" stroke="#445a79" stroke-width="1.3" points="57.71,-120.48 55.26,-113.48 52.81,-120.48 57.71,-120.48"/>
</g>
<!-- observe -->
<g id="node6" class="node">
<title>observe</title>
<polygon fill="#ffffff" stroke="#445a79" stroke-width="1.5" points="95.52,-36 15,-36 15,0 95.52,0 95.52,-36"/>
<text xml:space="preserve" text-anchor="middle" x="55.26" y="-14.32" font-family="Helvetica,sans-Serif" font-size="9.00">Tool Observation</text>
</g>
<!-- execute&#45;&gt;observe -->
<g id="edge6" class="edge">
<title>execute&#45;&gt;observe</title>
<path fill="none" stroke="#445a79" stroke-width="1.3" d="M55.26,-74.33C55.26,-65.63 55.26,-54.97 55.26,-45.33"/>
<polygon fill="#445a79" stroke="#445a79" stroke-width="1.3" points="57.71,-45.48 55.26,-38.48 52.81,-45.48 57.71,-45.48"/>
</g>
<!-- observe&#45;&gt;reason -->
<g id="edge7" class="edge">
<title>observe&#45;&gt;reason</title>
<path fill="none" stroke="#445a79" stroke-width="1.3" d="M81.42,-36.67C134.38,-72.42 249.26,-150 249.26,-150 249.26,-150 249.26,-186 249.26,-186 249.26,-186 169.92,-263.7 128.62,-304.15"/>
<polygon fill="#445a79" stroke="#445a79" stroke-width="1.3" points="127.02,-302.28 123.74,-308.93 130.45,-305.78 127.02,-302.28"/>
</g>
</g>
</svg>
