<?xml version="1.0" encoding="UTF-8" standalone="no"?>
<!DOCTYPE svg PUBLIC "-//W3C//DTD SVG 1.1//EN"
 "http://www.w3.org/Graphics/SVG/1.1/DTD/svg11.dtd">
<!-- Generated by graphviz version 14.1.2 (20260124.0452)
 -->
<!-- Title: G Pages: 1 -->
<svg width="390pt" height="478pt"
 viewBox="1.00 1.00 388.00 477.00" xmlns="http://www.w3.org/2000/svg" xmlns:xlink="http://www.w3.org/1999/xlink">
<g id="graph0" class="graph" transform="scale(1 1) rotate(0) translate(5.76 472.6)">
<title>G</title>
<polygon fill="#ffffff" stroke="none" points="-4.32,4.32 -4.32,-471.16 382.71,-471.16 382.71,4.32 -4.32,4.32"/>
<!-- seed -->
<g id="node1" class="node">
<title>seed</title>
<polygon fill="#ffffff" stroke="#445a79" stroke-width="1.5" points="187.02,-466.84 0,-466.84 0,-428.2 187.02,-428.2 187.02,-466.84"/>
<text xml:space="preserve" text-anchor="middle" x="93.51" y="-450.17" font-family="Times,serif" font-size="13.00">Seeded Corpus</text>
<text xml:space="preserve" text-anchor="middle" x="93.51" y="-435.17" font-family="Times,serif" font-size="13.00">(Pre&#45;Curated ToT+Agent Scope)</text>
</g>
<!-- records -->
<g id="node2" class="node">
<title>records</title>
<polygon fill="#ffffff" stroke="#445a79" stroke-width="1.5" points="149.15,-387.2 37.88,-387.2 37.88,-348.56 149.15,-348.56 149.15,-387.2"/>
<text xml:space="preserve" text-anchor="middle" x="93.51" y="-370.53" font-family="Times,serif" font-size="13.00">Records Identified</text>
<text xml:space="preserve" text-anchor="middle" x="93.51" y="-355.53" font-family="Times,serif" font-size="13.00">n = 30</text>
</g>
<!-- seed&#45;&gt;records -->
<g id="edge1" class="edge">
<title>seed&#45;&gt;records</title>
<path fill="none" stroke="#445a79" stroke-width="1.3" d="M93.51,-427.73C93.51,-418.35 93.51,-406.84 93.51,-396.49"/>
<polygon fill="#445a79" stroke="#445a79" stroke-width="1.3" points="95.96,-396.74 93.51,-389.74 91.06,-396.74 95.96,-396.74"/>
</g>
<!-- dupes -->
<g id="node3" class="node">
<title>dupes</title>
<polygon fill="#ffffff" stroke="#445a79" stroke-width="1.5" points="155.15,-307.56 31.88,-307.56 31.88,-268.92 155.15,-268.92 155.15,-307.56"/>
<text xml:space="preserve" text-anchor="middle" x="93.51" y="-290.89" font-family="Times,serif" font-size="13.00">Duplicates Removed</text>
<text xml:space="preserve" text-anchor="middle" x="93.51" y="-275.89" font-family="Times,serif" font-size="13.00">n = 0</text>
</g>
<!-- records&#45;&gt;dupes -->
<g id="edge2" class="edge">
<title>records&#45;&gt;dupes</title>
<path fill="none" stroke="#445a79" stroke-width="1.3" d="M93.51,-348.09C93.51,-338.71 93.51,-327.2 93.51,-316.85"/>
<polygon fill="#445a79" stroke="#445a79" stroke-width="1.3" points="95.96,-317.1 93.51,-310.1 91.06,-317.1 95.96,-317.1"/>
</g>
<!-- screened -->
<g id="node4" class="node">
<title>screened</title>
<polygon fill="#ffffff" stroke="#445a79" stroke-width="1.5" points="162.65,-227.92 24.38,-227.92 24.38,-189.28 162.65,-189.28 162.65,-227.92"/>
<text xml:space="preserve" text-anchor="middle" x="93.51" y="-211.25" font-family="Times,serif" font-size="13.00">Title/Abstract Screened</text>
<text xml:space="preserve" text-anchor="middle" x="93.51" y="-196.25" font-family="Times,serif" font-size="13.00">n = 30</text>
</g>
<!-- dupes&#45;&gt;screened -->
<g id="edge3" class="edge">
<title>dupes&#45;&gt;screened</title>
<path fill="none" stroke="#445a79" stroke-width="1.3" d="M93.51,-268.45C93.51,-259.07 93.51,-247.56 93.51,-237.21"/>
<polygon fill="#445a79" stroke="#445a79" stroke-width="1.3" points="95.96,-237.46 93.51,-230.46 91.06,-237.46 95.96,-237.46"/>
</g>
<!-- fulltext -->
<g id="node5" class="node">
<title>fulltext</title>
<polygon fill="#ffffff" stroke="#445a79" stroke-width="1.5" points="149.9,-133.28 37.13,-133.28 37.13,-94.64 149.9,-94.64 149.9,-133.28"/>
<text xml:space="preserve" text-anchor="middle" x="93.51" y="-116.61" font-family="Times,serif" font-size="13.00">Full&#45;Text Assessed</text>
<text xml:space="preserve" text-anchor="middle" x="93.51" y="-101.61" font-family="Times,serif" font-size="13.00">n = 30</text>
</g>
<!-- screened&#45;&gt;fulltext -->
<g id="edge4" class="edge">
<title>screened&#45;&gt;fulltext</title>
<path fill="none" stroke="#445a79" stroke-width="1.3" d="M93.51,-188.85C93.51,-175.63 93.51,-157.69 93.51,-142.81"/>
<polygon fill="#445a79" stroke="#445a79" stroke-width="1.3" points="95.96,-142.96 93.51,-135.96 91.06,-142.96 95.96,-142.96"/>
</g>
<!-- included -->
<g id="node6" class="node">
<title>included</title>
<polygon fill="#ffffff" stroke="#445a79" stroke-width="1.5" points="178.4,-38.64 8.62,-38.64 8.62,0 178.4,0 178.4,-38.64"/>
<text xml:space="preserve" text-anchor="middle" x="93.51" y="-21.97" font-family="Times,serif" font-size="13.00">Studies Included in Synthesis</text>
<text xml:space="preserve" text-anchor="middle" x="93.51" y="-6.97" font-family="Times,serif" font-size="13.00">n = 22</text>
</g>
<!-- fulltext&#45;&gt;included -->
<g id="edge5" class="edge">
<title>fulltext&#45;&gt;included</title>
<path fill="none" stroke="#445a79" stroke-width="1.3" d="M93.51,-94.21C93.51,-80.99 93.51,-63.05 93.51,-48.17"/>
<polygon fill="#445a79" stroke="#445a79" stroke-width="1.3" points="95.96,-48.32 93.51,-41.32 91.06,-48.32 95.96,-48.32"/>
</g>
<!-- excluded -->
<g id="node7" class="node">
<title>excluded</title>
<polygon fill="#ffffff" stroke="#445a79" stroke-width="1.5" points="378.39,-148.28 214.62,-148.28 214.62,-79.64 378.39,-79.64 378.39,-148.28"/>
<text xml:space="preserve" text-anchor="middle" x="296.51" y="-131.61" font-family="Times,serif" font-size="13.00">Full&#45;Text Exclusions</text>
<text xml:space="preserve" text-anchor="middle" x="296.51" y="-116.61" font-family="Times,serif" font-size="13.00">n = 8</text>
<text xml:space="preserve" text-anchor="middle" x="296.51" y="-101.61" font-family="Times,serif" font-size="13.00">Out of scope / method fit</text>
<text xml:space="preserve" text-anchor="middle" x="296.51" y="-86.61" font-family="Times,serif" font-size="13.00">Insufficient extraction detail</text>
</g>
<!-- fulltext&#45;&gt;excluded -->
<g id="edge6" class="edge">
<title>fulltext&#45;&gt;excluded</title>
<path fill="none" stroke="#445a79" stroke-width="1.3" d="M150.6,-113.96C167.6,-113.96 186.69,-113.96 205.3,-113.96"/>
<polygon fill="#445a79" stroke="#445a79" stroke-width="1.3" points="205.13,-116.41 212.13,-113.96 205.13,-111.51 205.13,-116.41"/>
<text xml:space="preserve" text-anchor="middle" x="182.26" y="-120.01" font-family="Times,serif" font-size="11.00" fill="#162130">Excluded</text>
</g>
</g>
</svg>
