<?xml version="1.0" encoding="UTF-8" standalone="no"?>
<!DOCTYPE svg PUBLIC "-//W3C//DTD SVG 1.1//EN"
 "http://www.w3.org/Graphics/SVG/1.1/DTD/svg11.dtd">
<!-- Generated by graphviz version 14.1.2 (20260124.0452)
 -->
<!-- Title: G Pages: 1 -->
<svg width="262pt" height="444pt"
 viewBox="1.00 1.00 261.00 443.00" xmlns="http://www.w3.org/2000/svg" xmlns:xlink="http://www.w3.org/1999/xlink">
<g id="graph0" class="graph" transform="scale(1 1) rotate(0) translate(5.76 438.4)">
<title>G</title>
<polygon fill="#ffffff" stroke="none" points="-4.32,4.32 -4.32,-436.96 254.84,-436.96 254.84,4.32 -4.32,4.32"/>
<!-- seed -->
<g id="node1" class="node">
<title>seed</title>
<polygon fill="#ffffff" stroke="#445a79" stroke-width="1.5" points="118.77,-432.64 0,-432.64 0,-396.64 118.77,-396.64 118.77,-432.64"/>
<text xml:space="preserve" text-anchor="middle" x="59.38" y="-416.79" font-family="Times,serif" font-size="8.00">Seeded Corpus</text>
<text xml:space="preserve" text-anchor="middle" x="59.38" y="-407.04" font-family="Times,serif" font-size="8.00">(Pre&#45;Curated ToT+Agent Scope)</text>
</g>
<!-- records -->
<g id="node2" class="node">
<title>records</title>
<polygon fill="#ffffff" stroke="#445a79" stroke-width="1.5" points="95.14,-355.64 23.62,-355.64 23.62,-319.64 95.14,-319.64 95.14,-355.64"/>
<text xml:space="preserve" text-anchor="middle" x="59.38" y="-339.79" font-family="Times,serif" font-size="8.00">Records Identified</text>
<text xml:space="preserve" text-anchor="middle" x="59.38" y="-330.04" font-family="Times,serif" font-size="8.00">n = 30</text>
</g>
<!-- seed&#45;&gt;records -->
<g id="edge1" class="edge">
<title>seed&#45;&gt;records</title>
<path fill="none" stroke="#445a79" stroke-width="1.3" d="M59.38,-396.24C59.38,-386.94 59.38,-375.29 59.38,-364.91"/>
<polygon fill="#445a79" stroke="#445a79" stroke-width="1.3" points="61.84,-365.17 59.39,-358.17 56.94,-365.17 61.84,-365.17"/>
</g>
<!-- dupes -->
<g id="node3" class="node">
<title>dupes</title>
<polygon fill="#ffffff" stroke="#445a79" stroke-width="1.5" points="98.52,-278.64 20.25,-278.64 20.25,-242.64 98.52,-242.64 98.52,-278.64"/>
<text xml:space="preserve" text-anchor="middle" x="59.38" y="-262.79" font-family="Times,serif" font-size="8.00">Duplicates Removed</text>
<text xml:space="preserve" text-anchor="middle" x="59.38" y="-253.04" font-family="Times,serif" font-size="8.00">n = 0</text>
</g>
<!-- records&#45;&gt;dupes -->
<g id="edge2" class="edge">
<title>records&#45;&gt;dupes</title>
<path fill="none" stroke="#445a79" stroke-width="1.3" d="M59.38,-319.24C59.38,-309.94 59.38,-298.29 59.38,-287.91"/>
<polygon fill="#445a79" stroke="#445a79" stroke-width="1.3" points="61.84,-288.17 59.39,-281.17 56.94,-288.17 61.84,-288.17"/>
</g>
<!-- screened -->
<g id="node4" class="node">
<title>screened</title>
<polygon fill="#ffffff" stroke="#445a79" stroke-width="1.5" points="103.77,-201.64 15,-201.64 15,-165.64 103.77,-165.64 103.77,-201.64"/>
<text xml:space="preserve" text-anchor="middle" x="59.38" y="-185.79" font-family="Times,serif" font-size="8.00">Title/Abstract Screened</text>
<text xml:space="preserve" text-anchor="middle" x="59.38" y="-176.04" font-family="Times,serif" font-size="8.00">n = 30</text>
</g>
<!-- dupes&#45;&gt;screened -->
<g id="edge3" class="edge">
<title>dupes&#45;&gt;screened</title>
<path fill="none" stroke="#445a79" stroke-width="1.3" d="M59.38,-242.24C59.38,-232.94 59.38,-221.29 59.38,-210.91"/>
<polygon fill="#445a79" stroke="#445a79" stroke-width="1.3" points="61.84,-211.17 59.39,-204.17 56.94,-211.17 61.84,-211.17"/>
</g>
<!-- fulltext -->
<g id="node5" class="node">
<title>fulltext</title>
<polygon fill="#ffffff" stroke="#445a79" stroke-width="1.5" points="94.77,-118.82 24,-118.82 24,-82.82 94.77,-82.82 94.77,-118.82"/>
<text xml:space="preserve" text-anchor="middle" x="59.38" y="-102.97" font-family="Times,serif" font-size="8.00">Full&#45;Text Assessed</text>
<text xml:space="preserve" text-anchor="middle" x="59.38" y="-93.22" font-family="Times,serif" font-size="8.00">n = 30</text>
</g>
<!-- screened&#45;&gt;fulltext -->
<g id="edge4" class="edge">
<title>screened&#45;&gt;fulltext</title>
<path fill="none" stroke="#445a79" stroke-width="1.3" d="M59.38,-165.1C59.38,-154.3 59.38,-140.25 59.38,-128.13"/>
<polygon fill="#445a79" stroke="#445a79" stroke-width="1.3" points="61.84,-128.29 59.39,-121.29 56.94,-128.29 61.84,-128.29"/>
</g>
<!-- included -->
<g id="node6" class="node">
<title>included</title>
<polygon fill="#ffffff" stroke="#445a79" stroke-width="1.5" points="112.02,-36 6.75,-36 6.75,0 112.02,0 112.02,-36"/>
<text xml:space="preserve" text-anchor="middle" x="59.38" y="-20.15" font-family="Times,serif" font-size="8.00">Studies Included in Synthesis</text>
<text xml:space="preserve" text-anchor="middle" x="59.38" y="-10.4" font-family="Times,serif" font-size="8.00">n = 22</text>
</g>
<!-- fulltext&#45;&gt;included -->
<g id="edge5" class="edge">
<title>fulltext&#45;&gt;included</title>
<path fill="none" stroke="#445a79" stroke-width="1.3" d="M59.38,-82.28C59.38,-71.48 59.38,-57.43 59.38,-45.31"/>
<polygon fill="#445a79" stroke="#445a79" stroke-width="1.3" points="61.84,-45.47 59.39,-38.47 56.94,-45.47 61.84,-45.47"/>
</g>
<!-- excluded -->
<g id="node7" class="node">
<title>excluded</title>
<polygon fill="#ffffff" stroke="#445a79" stroke-width="1.5" points="250.52,-124.64 148.25,-124.64 148.25,-77 250.52,-77 250.52,-124.64"/>
<text xml:space="preserve" text-anchor="middle" x="199.38" y="-112.72" font-family="Times,serif" font-size="8.00">Full&#45;Text Exclusions</text>
<text xml:space="preserve" text-anchor="middle" x="199.38" y="-102.97" font-family="Times,serif" font-size="8.00">n = 8</text>
<text xml:space="preserve" text-anchor="middle" x="199.38" y="-93.22" font-family="Times,serif" font-size="8.00">Out of scope / method fit</text>
<text xml:space="preserve" text-anchor="middle" x="199.38" y="-83.47" font-family="Times,serif" font-size="8.00">Insufficient extraction detail</text>
</g>
<!-- fulltext&#45;&gt;excluded -->
<g id="edge6" class="edge">
<title>fulltext&#45;&gt;excluded</title>
<path fill="none" stroke="#445a79" stroke-width="1.3" d="M95.44,-100.82C108.71,-100.82 124.14,-100.82 138.97,-100.82"/>
<polygon fill="#445a79" stroke="#445a79" stroke-width="1.3" points="138.65,-103.27 145.65,-100.82 138.65,-98.37 138.65,-103.27"/>
<text xml:space="preserve" text-anchor="middle" x="121.51" y="-105.97" font-family="Times,serif" font-size="8.00" fill="#162130">Excluded</text>
</g>
</g>
</svg>
