<?xml version="1.0" encoding="UTF-8" standalone="no"?>
<!DOCTYPE svg PUBLIC "-//W3C//DTD SVG 1.1//EN"
 "http://www.w3.org/Graphics/SVG/1.1/DTD/svg11.dtd">
<!-- Generated by graphviz version 14.1.2 (20260124.0452)
 -->
<!-- Title: G Pages: 1 -->
<svg width="394pt" height="508pt"
 viewBox="1.00 1.00 393.00 507.00" xmlns="http://www.w3.org/2000/svg" xmlns:xlink="http://www.w3.org/1999/xlink">
<g id="graph0" class="graph" transform="scale(1 1) rotate(0) translate(5.76 502.24)">
<title>G</title>
<polygon fill="#ffffff" stroke="none" points="-4.32,4.32 -4.32,-500.8 386.96,-500.8 386.96,4.32 -4.32,4.32"/>
<!-- seed -->
<g id="node1" class="node">
<title>seed</title>
<polygon fill="#ffffff" stroke="#445a79" stroke-width="1.5" points="190.02,-496.48 0,-496.48 0,-453.4 190.02,-453.4 190.02,-496.48"/>
<text xml:space="preserve" text-anchor="middle" x="95.01" y="-478.14" font-family="Times,serif" font-size="14.00">Seeded Corpus</text>
<text xml:space="preserve" text-anchor="middle" x="95.01" y="-461.64" font-family="Times,serif" font-size="14.00">(Pre&#45;Curated ToT+Agent Scope)</text>
</g>
<!-- records -->
<g id="node2" class="node">
<title>records</title>
<polygon fill="#ffffff" stroke="#445a79" stroke-width="1.5" points="151.02,-412.4 39,-412.4 39,-369.32 151.02,-369.32 151.02,-412.4"/>
<text xml:space="preserve" text-anchor="middle" x="95.01" y="-394.06" font-family="Times,serif" font-size="14.00">Records Identified</text>
<text xml:space="preserve" text-anchor="middle" x="95.01" y="-377.56" font-family="Times,serif" font-size="14.00">n = 30</text>
</g>
<!-- seed&#45;&gt;records -->
<g id="edge1" class="edge">
<title>seed&#45;&gt;records</title>
<path fill="none" stroke="#445a79" stroke-width="1.3" d="M95.01,-452.8C95.01,-443.32 95.01,-431.98 95.01,-421.66"/>
<polygon fill="#445a79" stroke="#445a79" stroke-width="1.3" points="97.46,-421.89 95.01,-414.89 92.56,-421.89 97.46,-421.89"/>
</g>
<!-- dupes -->
<g id="node3" class="node">
<title>dupes</title>
<polygon fill="#ffffff" stroke="#445a79" stroke-width="1.5" points="157.77,-328.32 32.25,-328.32 32.25,-285.24 157.77,-285.24 157.77,-328.32"/>
<text xml:space="preserve" text-anchor="middle" x="95.01" y="-309.98" font-family="Times,serif" font-size="14.00">Duplicates Removed</text>
<text xml:space="preserve" text-anchor="middle" x="95.01" y="-293.48" font-family="Times,serif" font-size="14.00">n = 0</text>
</g>
<!-- records&#45;&gt;dupes -->
<g id="edge2" class="edge">
<title>records&#45;&gt;dupes</title>
<path fill="none" stroke="#445a79" stroke-width="1.3" d="M95.01,-368.72C95.01,-359.24 95.01,-347.9 95.01,-337.58"/>
<polygon fill="#445a79" stroke="#445a79" stroke-width="1.3" points="97.46,-337.81 95.01,-330.81 92.56,-337.81 97.46,-337.81"/>
</g>
<!-- screened -->
<g id="node4" class="node">
<title>screened</title>
<polygon fill="#ffffff" stroke="#445a79" stroke-width="1.5" points="164.9,-244.24 25.12,-244.24 25.12,-201.16 164.9,-201.16 164.9,-244.24"/>
<text xml:space="preserve" text-anchor="middle" x="95.01" y="-225.9" font-family="Times,serif" font-size="14.00">Title/Abstract Screened</text>
<text xml:space="preserve" text-anchor="middle" x="95.01" y="-209.4" font-family="Times,serif" font-size="14.00">n = 30</text>
</g>
<!-- dupes&#45;&gt;screened -->
<g id="edge3" class="edge">
<title>dupes&#45;&gt;screened</title>
<path fill="none" stroke="#445a79" stroke-width="1.3" d="M95.01,-284.64C95.01,-275.16 95.01,-263.82 95.01,-253.5"/>
<polygon fill="#445a79" stroke="#445a79" stroke-width="1.3" points="97.46,-253.73 95.01,-246.73 92.56,-253.73 97.46,-253.73"/>
</g>
<!-- fulltext -->
<g id="node5" class="node">
<title>fulltext</title>
<polygon fill="#ffffff" stroke="#445a79" stroke-width="1.5" points="152.52,-143.66 37.5,-143.66 37.5,-100.58 152.52,-100.58 152.52,-143.66"/>
<text xml:space="preserve" text-anchor="middle" x="95.01" y="-125.32" font-family="Times,serif" font-size="14.00">Full&#45;Text Assessed</text>
<text xml:space="preserve" text-anchor="middle" x="95.01" y="-108.82" font-family="Times,serif" font-size="14.00">n = 30</text>
</g>
<!-- screened&#45;&gt;fulltext -->
<g id="edge4" class="edge">
<title>screened&#45;&gt;fulltext</title>
<path fill="none" stroke="#445a79" stroke-width="1.3" d="M95.01,-200.79C95.01,-186.9 95.01,-168.45 95.01,-153.02"/>
<polygon fill="#445a79" stroke="#445a79" stroke-width="1.3" points="97.46,-153.3 95.01,-146.3 92.56,-153.3 97.46,-153.3"/>
</g>
<!-- included -->
<g id="node6" class="node">
<title>included</title>
<polygon fill="#ffffff" stroke="#445a79" stroke-width="1.5" points="181.02,-43.08 9,-43.08 9,0 181.02,0 181.02,-43.08"/>
<text xml:space="preserve" text-anchor="middle" x="95.01" y="-24.74" font-family="Times,serif" font-size="14.00">Studies Included in Synthesis</text>
<text xml:space="preserve" text-anchor="middle" x="95.01" y="-8.24" font-family="Times,serif" font-size="14.00">n = 22</text>
</g>
<!-- fulltext&#45;&gt;included -->
<g id="edge5" class="edge">
<title>fulltext&#45;&gt;included</title>
<path fill="none" stroke="#445a79" stroke-width="1.3" d="M95.01,-100.21C95.01,-86.32 95.01,-67.87 95.01,-52.44"/>
<polygon fill="#445a79" stroke="#445a79" stroke-width="1.3" points="97.46,-52.72 95.01,-45.72 92.56,-52.72 97.46,-52.72"/>
</g>
<!-- excluded -->
<g id="node7" class="node">
<title>excluded</title>
<polygon fill="#ffffff" stroke="#445a79" stroke-width="1.5" points="382.64,-160.16 217.38,-160.16 217.38,-84.08 382.64,-84.08 382.64,-160.16"/>
<text xml:space="preserve" text-anchor="middle" x="300.01" y="-141.82" font-family="Times,serif" font-size="14.00">Full&#45;Text Exclusions</text>
<text xml:space="preserve" text-anchor="middle" x="300.01" y="-125.32" font-family="Times,serif" font-size="14.00">n = 8</text>
<text xml:space="preserve" text-anchor="middle" x="300.01" y="-108.82" font-family="Times,serif" font-size="14.00">Out of scope / method fit</text>
<text xml:space="preserve" text-anchor="middle" x="300.01" y="-92.32" font-family="Times,serif" font-size="14.00">Insufficient extraction detail</text>
</g>
<!-- fulltext&#45;&gt;excluded -->
<g id="edge6" class="edge">
<title>fulltext&#45;&gt;excluded</title>
<path fill="none" stroke="#445a79" stroke-width="1.3" d="M153.21,-122.12C170.27,-122.12 189.37,-122.12 207.99,-122.12"/>
<polygon fill="#445a79" stroke="#445a79" stroke-width="1.3" points="207.83,-124.57 214.83,-122.12 207.83,-119.67 207.83,-124.57"/>
<text xml:space="preserve" text-anchor="middle" x="184.95" y="-128.17" font-family="Times,serif" font-size="11.00" fill="#162130">Excluded</text>
</g>
</g>
</svg>
