<?xml version="1.0" encoding="UTF-8" standalone="no"?>
<!DOCTYPE svg PUBLIC "-//W3C//DTD SVG 1.1//EN"
 "http://www.w3.org/Graphics/SVG/1.1/DTD/svg11.dtd">
<!-- Generated by graphviz version 14.1.2 (20260124.0452)
 -->
<!-- Title: G Pages: 1 -->
<svg width="531pt" height="853pt"
 viewBox="11.00 11.00 520.00 843.00" xmlns="http://www.w3.org/2000/svg" xmlns:xlink="http://www.w3.org/1999/xlink">
<g id="graph0" class="graph" transform="scale(1 1) rotate(0) translate(36 817.35)">
<title>G</title>
<polygon fill="#ffffff" stroke="none" points="-25.2,25.2 -25.2,-806.55 484.36,-806.55 484.36,25.2 -25.2,25.2"/>
<text xml:space="preserve" text-anchor="middle" x="229.58" y="-746.95" font-family="Helvetica,sans-Serif" font-size="32.00" fill="#14181f">MultiStepAgent State Diagram</text>
<!-- input -->
<g id="node1" class="node">
<title>input</title>
<path fill="#f8fbff" stroke="#4f6485" stroke-width="2" d="M387.16,-741.1C387.16,-741.1 301,-741.1 301,-741.1 295,-741.1 289,-735.1 289,-729.1 289,-729.1 289,-717.1 289,-717.1 289,-711.1 295,-705.1 301,-705.1 301,-705.1 387.16,-705.1 387.16,-705.1 393.16,-705.1 399.16,-711.1 399.16,-717.1 399.16,-717.1 399.16,-729.1 399.16,-729.1 399.16,-735.1 393.16,-741.1 387.16,-741.1"/>
<text xml:space="preserve" text-anchor="middle" x="344.08" y="-714.6" font-family="Helvetica,sans-Serif" font-size="20.00">Input Task</text>
</g>
<!-- init -->
<g id="node2" class="node">
<title>init</title>
<path fill="#f8fbff" stroke="#4f6485" stroke-width="2" d="M404.03,-654.1C404.03,-654.1 284.12,-654.1 284.12,-654.1 278.12,-654.1 272.12,-648.1 272.12,-642.1 272.12,-642.1 272.12,-630.1 272.12,-630.1 272.12,-624.1 278.12,-618.1 284.12,-618.1 284.12,-618.1 404.03,-618.1 404.03,-618.1 410.03,-618.1 416.03,-624.1 416.03,-630.1 416.03,-630.1 416.03,-642.1 416.03,-642.1 416.03,-648.1 410.03,-654.1 404.03,-654.1"/>
<text xml:space="preserve" text-anchor="middle" x="344.08" y="-627.6" font-family="Helvetica,sans-Serif" font-size="20.00">Initialize State</text>
</g>
<!-- input&#45;&gt;init -->
<g id="edge1" class="edge">
<title>input&#45;&gt;init</title>
<path fill="none" stroke="#5f7390" stroke-width="1.8" d="M344.08,-704.49C344.08,-693.28 344.08,-678.51 344.08,-665.65"/>
<polygon fill="#5f7390" stroke="#5f7390" stroke-width="1.8" points="346.88,-665.71 344.08,-657.71 341.28,-665.71 346.88,-665.71"/>
</g>
<!-- plan -->
<g id="node3" class="node">
<title>plan</title>
<path fill="#f8fbff" stroke="#4f6485" stroke-width="2" d="M447.16,-567.1C447.16,-567.1 241,-567.1 241,-567.1 235,-567.1 229,-561.1 229,-555.1 229,-555.1 229,-543.1 229,-543.1 229,-537.1 235,-531.1 241,-531.1 241,-531.1 447.16,-531.1 447.16,-531.1 453.16,-531.1 459.16,-537.1 459.16,-543.1 459.16,-543.1 459.16,-555.1 459.16,-555.1 459.16,-561.1 453.16,-567.1 447.16,-567.1"/>
<text xml:space="preserve" text-anchor="middle" x="344.08" y="-540.6" font-family="Helvetica,sans-Serif" font-size="20.00">Generate / Update Plan</text>
</g>
<!-- init&#45;&gt;plan -->
<g id="edge2" class="edge">
<title>init&#45;&gt;plan</title>
<path fill="none" stroke="#5f7390" stroke-width="1.8" d="M344.08,-617.49C344.08,-606.28 344.08,-591.51 344.08,-578.65"/>
<polygon fill="#5f7390" stroke="#5f7390" stroke-width="1.8" points="346.88,-578.71 344.08,-570.71 341.28,-578.71 346.88,-578.71"/>
</g>
<!-- step -->
<g id="node4" class="node">
<title>step</title>
<path fill="#f8fbff" stroke="#4f6485" stroke-width="2" d="M348.28,-480.1C348.28,-480.1 187.88,-480.1 187.88,-480.1 181.88,-480.1 175.88,-474.1 175.88,-468.1 175.88,-468.1 175.88,-456.1 175.88,-456.1 175.88,-450.1 181.88,-444.1 187.88,-444.1 187.88,-444.1 348.28,-444.1 348.28,-444.1 354.28,-444.1 360.28,-450.1 360.28,-456.1 360.28,-456.1 360.28,-468.1 360.28,-468.1 360.28,-474.1 354.28,-480.1 348.28,-480.1"/>
<text xml:space="preserve" text-anchor="middle" x="268.08" y="-453.6" font-family="Helvetica,sans-Serif" font-size="20.00">Execute Next Step</text>
</g>
<!-- plan&#45;&gt;step -->
<g id="edge3" class="edge">
<title>plan&#45;&gt;step</title>
<path fill="none" stroke="#5f7390" stroke-width="1.8" d="M328.33,-530.49C317.6,-518.49 303.22,-502.4 291.2,-488.95"/>
<polygon fill="#5f7390" stroke="#5f7390" stroke-width="1.8" points="293.3,-487.11 285.88,-483.01 289.13,-490.84 293.3,-487.11"/>
</g>
<!-- observe -->
<g id="node5" class="node">
<title>observe</title>
<path fill="#f8fbff" stroke="#4f6485" stroke-width="2" d="M244.16,-393.1C244.16,-393.1 74,-393.1 74,-393.1 68,-393.1 62,-387.1 62,-381.1 62,-381.1 62,-369.1 62,-369.1 62,-363.1 68,-357.1 74,-357.1 74,-357.1 244.16,-357.1 244.16,-357.1 250.16,-357.1 256.16,-363.1 256.16,-369.1 256.16,-369.1 256.16,-381.1 256.16,-381.1 256.16,-387.1 250.16,-393.1 244.16,-393.1"/>
<text xml:space="preserve" text-anchor="middle" x="159.08" y="-366.6" font-family="Helvetica,sans-Serif" font-size="20.00">Collect Observation</text>
</g>
<!-- step&#45;&gt;observe -->
<g id="edge4" class="edge">
<title>step&#45;&gt;observe</title>
<path fill="none" stroke="#5f7390" stroke-width="1.8" d="M245.23,-443.28C229.24,-430.81 207.7,-414.01 190.15,-400.33"/>
<polygon fill="#5f7390" stroke="#5f7390" stroke-width="1.8" points="192.08,-398.28 184.05,-395.57 188.64,-402.7 192.08,-398.28"/>
</g>
<!-- goal -->
<g id="node6" class="node">
<title>goal</title>
<polygon fill="#edf2f8" stroke="#4f6485" stroke-width="2" points="151.08,-291.35 43.17,-234.95 151.08,-178.55 258.99,-234.95 151.08,-291.35"/>
<text xml:space="preserve" text-anchor="middle" x="151.08" y="-236.95" font-family="Helvetica,sans-Serif" font-size="20.00">Goal</text>
<text xml:space="preserve" text-anchor="middle" x="151.08" y="-215.95" font-family="Helvetica,sans-Serif" font-size="20.00">Satisfied?</text>
</g>
<!-- observe&#45;&gt;goal -->
<g id="edge5" class="edge">
<title>observe&#45;&gt;goal</title>
<path fill="none" stroke="#5f7390" stroke-width="1.8" d="M158.05,-356.32C157.23,-342.17 156.03,-321.45 154.86,-301.16"/>
<polygon fill="#5f7390" stroke="#5f7390" stroke-width="1.8" points="157.66,-301.18 154.4,-293.35 152.07,-301.5 157.66,-301.18"/>
</g>
<!-- replan -->
<g id="node7" class="node">
<title>replan</title>
<polygon fill="#edf2f8" stroke="#4f6485" stroke-width="2" points="359.08,-112.8 263.92,-56.4 359.08,0 454.24,-56.4 359.08,-112.8"/>
<text xml:space="preserve" text-anchor="middle" x="359.08" y="-58.4" font-family="Helvetica,sans-Serif" font-size="20.00">Need</text>
<text xml:space="preserve" text-anchor="middle" x="359.08" y="-37.4" font-family="Helvetica,sans-Serif" font-size="20.00">Replan?</text>
</g>
<!-- goal&#45;&gt;replan -->
<g id="edge7" class="edge">
<title>goal&#45;&gt;replan</title>
<path fill="none" stroke="#5f7390" stroke-width="1.8" d="M192.17,-199.07C226.74,-169.73 276.14,-127.8 312.23,-97.16"/>
<polygon fill="#5f7390" stroke="#5f7390" stroke-width="1.8" points="313.82,-99.49 318.1,-92.18 310.19,-95.22 313.82,-99.49"/>
<text xml:space="preserve" text-anchor="middle" x="270.69" y="-139.3" font-family="Helvetica,sans-Serif" font-size="15.00">No</text>
</g>
<!-- out -->
<g id="node8" class="node">
<title>out</title>
<path fill="#f8fbff" stroke="#4f6485" stroke-width="2" d="M212.16,-74.4C212.16,-74.4 12,-74.4 12,-74.4 6,-74.4 0,-68.4 0,-62.4 0,-62.4 0,-50.4 0,-50.4 0,-44.4 6,-38.4 12,-38.4 12,-38.4 212.16,-38.4 212.16,-38.4 218.16,-38.4 224.16,-44.4 224.16,-50.4 224.16,-50.4 224.16,-62.4 224.16,-62.4 224.16,-68.4 218.16,-74.4 212.16,-74.4"/>
<text xml:space="preserve" text-anchor="middle" x="112.08" y="-47.9" font-family="Helvetica,sans-Serif" font-size="20.00">Return Final Response</text>
</g>
<!-- goal&#45;&gt;out -->
<g id="edge6" class="edge">
<title>goal&#45;&gt;out</title>
<path fill="none" stroke="#5f7390" stroke-width="1.8" d="M139.9,-183.36C132.89,-151.62 124.11,-111.88 118.31,-85.62"/>
<polygon fill="#5f7390" stroke="#5f7390" stroke-width="1.8" points="121.07,-85.12 116.61,-77.91 115.6,-86.33 121.07,-85.12"/>
<text xml:space="preserve" text-anchor="middle" x="144.75" y="-139.3" font-family="Helvetica,sans-Serif" font-size="15.00">Yes</text>
</g>
<!-- replan&#45;&gt;plan -->
<g id="edge8" class="edge">
<title>replan&#45;&gt;plan</title>
<path fill="none" stroke="#5f7390" stroke-width="1.8" d="M375.37,-103.79C393.74,-156.1 421.08,-233.95 421.08,-233.95 421.08,-463.1 421.08,-463.1 421.08,-463.1 421.08,-463.1 389.74,-497.7 367.05,-522.75"/>
<polygon fill="#5f7390" stroke="#5f7390" stroke-width="1.8" points="365.16,-520.66 361.86,-528.47 369.31,-524.42 365.16,-520.66"/>
<text xml:space="preserve" text-anchor="middle" x="433.08" y="-368.73" font-family="Helvetica,sans-Serif" font-size="15.00">Yes</text>
</g>
<!-- replan&#45;&gt;step -->
<g id="edge9" class="edge">
<title>replan&#45;&gt;step</title>
<path fill="none" stroke="#5f7390" stroke-width="1.8" d="M347.89,-107.05C328.6,-192.63 289.69,-365.23 274.43,-432.93"/>
<polygon fill="#5f7390" stroke="#5f7390" stroke-width="1.8" points="271.73,-432.16 272.71,-440.57 277.2,-433.39 271.73,-432.16"/>
<text xml:space="preserve" text-anchor="middle" x="309.99" y="-317.85" font-family="Helvetica,sans-Serif" font-size="15.00">No</text>
</g>
</g>
</svg>
