<?xml version="1.0" encoding="UTF-8" standalone="no"?>
<!DOCTYPE svg PUBLIC "-//W3C//DTD SVG 1.1//EN"
 "http://www.w3.org/Graphics/SVG/1.1/DTD/svg11.dtd">
<!-- Generated by graphviz version 14.1.2 (20260124.0452)
 -->
<!-- Title: G Pages: 1 -->
<svg width="287pt" height="570pt"
 viewBox="1.00 1.00 285.00 569.00" xmlns="http://www.w3.org/2000/svg" xmlns:xlink="http://www.w3.org/1999/xlink">
<g id="graph0" class="graph" transform="scale(1 1) rotate(0) translate(5.76 564.28)">
<title>G</title>
<polygon fill="#ffffff" stroke="none" points="-4.32,4.32 -4.32,-562.84 279.34,-562.84 279.34,4.32 -4.32,4.32"/>
<!-- input -->
<g id="node1" class="node">
<title>input</title>
<polygon fill="#ffffff" stroke="#445a79" stroke-width="1.5" points="101.9,-558.52 34.13,-558.52 34.13,-522.52 101.9,-522.52 101.9,-558.52"/>
<text xml:space="preserve" text-anchor="middle" x="68.01" y="-535.67" font-family="Times,serif" font-size="13.00">Input Task</text>
</g>
<!-- init -->
<g id="node2" class="node">
<title>init</title>
<polygon fill="#ffffff" stroke="#445a79" stroke-width="1.5" points="112.77,-481.52 23.25,-481.52 23.25,-445.52 112.77,-445.52 112.77,-481.52"/>
<text xml:space="preserve" text-anchor="middle" x="68.01" y="-458.67" font-family="Times,serif" font-size="13.00">Initialize State</text>
</g>
<!-- input&#45;&gt;init -->
<g id="edge1" class="edge">
<title>input&#45;&gt;init</title>
<path fill="none" stroke="#445a79" stroke-width="1.3" d="M68.01,-522.12C68.01,-512.82 68.01,-501.17 68.01,-490.79"/>
<polygon fill="#445a79" stroke="#445a79" stroke-width="1.3" points="70.46,-491.05 68.01,-484.05 65.56,-491.05 70.46,-491.05"/>
</g>
<!-- plan -->
<g id="node3" class="node">
<title>plan</title>
<polygon fill="#ffffff" stroke="#445a79" stroke-width="1.5" points="136.02,-404.52 0,-404.52 0,-368.52 136.02,-368.52 136.02,-404.52"/>
<text xml:space="preserve" text-anchor="middle" x="68.01" y="-381.67" font-family="Times,serif" font-size="13.00">Generate / Update Plan</text>
</g>
<!-- init&#45;&gt;plan -->
<g id="edge2" class="edge">
<title>init&#45;&gt;plan</title>
<path fill="none" stroke="#445a79" stroke-width="1.3" d="M68.01,-445.12C68.01,-435.82 68.01,-424.17 68.01,-413.79"/>
<polygon fill="#445a79" stroke="#445a79" stroke-width="1.3" points="70.46,-414.05 68.01,-407.05 65.56,-414.05 70.46,-414.05"/>
</g>
<!-- step -->
<g id="node4" class="node">
<title>step</title>
<polygon fill="#ffffff" stroke="#445a79" stroke-width="1.5" points="123.65,-327.52 12.38,-327.52 12.38,-291.52 123.65,-291.52 123.65,-327.52"/>
<text xml:space="preserve" text-anchor="middle" x="68.01" y="-304.67" font-family="Times,serif" font-size="13.00">Execute Next Step</text>
</g>
<!-- plan&#45;&gt;step -->
<g id="edge3" class="edge">
<title>plan&#45;&gt;step</title>
<path fill="none" stroke="#445a79" stroke-width="1.3" d="M68.01,-368.12C68.01,-358.82 68.01,-347.17 68.01,-336.79"/>
<polygon fill="#445a79" stroke="#445a79" stroke-width="1.3" points="70.46,-337.05 68.01,-330.05 65.56,-337.05 70.46,-337.05"/>
</g>
<!-- observe -->
<g id="node5" class="node">
<title>observe</title>
<polygon fill="#ffffff" stroke="#445a79" stroke-width="1.5" points="127.77,-238.02 8.25,-238.02 8.25,-202.02 127.77,-202.02 127.77,-238.02"/>
<text xml:space="preserve" text-anchor="middle" x="68.01" y="-215.17" font-family="Times,serif" font-size="13.00">Collect Observation</text>
</g>
<!-- step&#45;&gt;observe -->
<g id="edge4" class="edge">
<title>step&#45;&gt;observe</title>
<path fill="none" stroke="#445a79" stroke-width="1.3" d="M68.01,-290.81C68.01,-278.36 68.01,-261.48 68.01,-247.44"/>
<polygon fill="#445a79" stroke="#445a79" stroke-width="1.3" points="70.46,-247.67 68.01,-240.67 65.56,-247.67 70.46,-247.67"/>
</g>
<!-- goal -->
<g id="node6" class="node">
<title>goal</title>
<polygon fill="#ffffff" stroke="#445a79" stroke-width="1.5" points="68.01,-161.02 9,-125.26 68.01,-89.5 127.02,-125.26 68.01,-161.02"/>
<text xml:space="preserve" text-anchor="middle" x="68.01" y="-127.91" font-family="Times,serif" font-size="13.00">Goal</text>
<text xml:space="preserve" text-anchor="middle" x="68.01" y="-112.91" font-family="Times,serif" font-size="13.00">Satisfied?</text>
</g>
<!-- observe&#45;&gt;goal -->
<g id="edge5" class="edge">
<title>observe&#45;&gt;goal</title>
<path fill="none" stroke="#445a79" stroke-width="1.3" d="M68.01,-201.57C68.01,-192.71 68.01,-181.5 68.01,-170.46"/>
<polygon fill="#445a79" stroke="#445a79" stroke-width="1.3" points="70.46,-170.65 68.01,-163.65 65.56,-170.65 70.46,-170.65"/>
</g>
<!-- replan -->
<g id="node7" class="node">
<title>replan</title>
<polygon fill="#ffffff" stroke="#445a79" stroke-width="1.5" points="225.01,-161.02 175,-125.26 225.01,-89.5 275.02,-125.26 225.01,-161.02"/>
<text xml:space="preserve" text-anchor="middle" x="225.01" y="-127.91" font-family="Times,serif" font-size="13.00">Need</text>
<text xml:space="preserve" text-anchor="middle" x="225.01" y="-112.91" font-family="Times,serif" font-size="13.00">Replan?</text>
</g>
<!-- goal&#45;&gt;replan -->
<g id="edge7" class="edge">
<title>goal&#45;&gt;replan</title>
<path fill="none" stroke="#445a79" stroke-width="1.3" d="M128.26,-125.26C140.37,-125.26 153.09,-125.26 165.18,-125.26"/>
<polygon fill="#445a79" stroke="#445a79" stroke-width="1.3" points="164.89,-127.71 171.89,-125.26 164.89,-122.81 164.89,-127.71"/>
<text xml:space="preserve" text-anchor="middle" x="151.01" y="-131.31" font-family="Times,serif" font-size="11.00" fill="#162130">No</text>
</g>
<!-- out -->
<g id="node8" class="node">
<title>out</title>
<polygon fill="#ffffff" stroke="#445a79" stroke-width="1.5" points="134.9,-36 1.12,-36 1.12,0 134.9,0 134.9,-36"/>
<text xml:space="preserve" text-anchor="middle" x="68.01" y="-13.15" font-family="Times,serif" font-size="13.00">Return Final Response</text>
</g>
<!-- goal&#45;&gt;out -->
<g id="edge6" class="edge">
<title>goal&#45;&gt;out</title>
<path fill="none" stroke="#445a79" stroke-width="1.3" d="M68.01,-88.62C68.01,-74.51 68.01,-58.58 68.01,-45.52"/>
<polygon fill="#445a79" stroke="#445a79" stroke-width="1.3" points="70.46,-45.55 68.01,-38.55 65.56,-45.55 70.46,-45.55"/>
<text xml:space="preserve" text-anchor="middle" x="76.26" y="-59.05" font-family="Times,serif" font-size="11.00" fill="#162130">Yes</text>
</g>
<!-- replan&#45;&gt;plan -->
<g id="edge8" class="edge">
<title>replan&#45;&gt;plan</title>
<path fill="none" stroke="#445a79" stroke-width="1.3" d="M214.27,-154.17C201.53,-187.28 182.01,-238.02 182.01,-238.02 182.01,-238.02 136.01,-327.52 136.01,-327.52 136.01,-327.52 114.41,-345.94 95.56,-362.02"/>
<polygon fill="#445a79" stroke="#445a79" stroke-width="1.3" points="94.01,-360.12 90.28,-366.53 97.19,-363.85 94.01,-360.12"/>
<text xml:space="preserve" text-anchor="middle" x="179.87" y="-261.07" font-family="Times,serif" font-size="11.00" fill="#162130">Yes</text>
</g>
<!-- replan&#45;&gt;step -->
<g id="edge9" class="edge">
<title>replan&#45;&gt;step</title>
<path fill="none" stroke="#445a79" stroke-width="1.3" d="M206.04,-147.9C192.62,-163.21 177.01,-181.02 177.01,-181.02 177.01,-181.02 140.01,-238.02 140.01,-238.02 140.01,-238.02 113.01,-264.46 92.07,-284.96"/>
<polygon fill="#445a79" stroke="#445a79" stroke-width="1.3" points="90.5,-283.07 87.21,-289.72 93.93,-286.57 90.5,-283.07"/>
<text xml:space="preserve" text-anchor="middle" x="169.54" y="-216.32" font-family="Times,serif" font-size="11.00" fill="#162130">No</text>
</g>
</g>
</svg>
